%TF.GenerationSoftware,KiCad,Pcbnew,7.0.7*%
%TF.CreationDate,2024-01-21T18:01:16-05:00*%
%TF.ProjectId,Forerunner-Cubic-Mainboard,466f7265-7275-46e6-9e65-722d43756269,rev?*%
%TF.SameCoordinates,Original*%
%TF.FileFunction,Soldermask,Bot*%
%TF.FilePolarity,Negative*%
%FSLAX46Y46*%
G04 Gerber Fmt 4.6, Leading zero omitted, Abs format (unit mm)*
G04 Created by KiCad (PCBNEW 7.0.7) date 2024-01-21 18:01:16*
%MOMM*%
%LPD*%
G01*
G04 APERTURE LIST*
G04 APERTURE END LIST*
G36*
X4088957Y6994924D02*
G01*
X4174434Y6994924D01*
X4253494Y6985683D01*
X4335885Y6981056D01*
X4430234Y6965025D01*
X4520945Y6954423D01*
X4592629Y6937433D01*
X4667539Y6924706D01*
X4765911Y6896365D01*
X4860410Y6873969D01*
X4924041Y6850808D01*
X4990814Y6831572D01*
X5091661Y6789799D01*
X5188239Y6754648D01*
X5243373Y6726958D01*
X5301620Y6702832D01*
X5403203Y6646688D01*
X5500000Y6598076D01*
X5546505Y6567489D01*
X5596046Y6540109D01*
X5696435Y6468878D01*
X5791476Y6406370D01*
X5829495Y6374467D01*
X5870419Y6345431D01*
X5967610Y6258574D01*
X6058725Y6182121D01*
X6088617Y6150437D01*
X6121263Y6121263D01*
X6213177Y6018411D01*
X6298133Y5928363D01*
X6320509Y5898306D01*
X6345431Y5870419D01*
X6429930Y5751327D01*
X6506463Y5648527D01*
X6522148Y5621358D01*
X6540109Y5596046D01*
X6615055Y5460439D01*
X6680898Y5346398D01*
X6690902Y5323204D01*
X6702832Y5301620D01*
X6766103Y5148868D01*
X6819078Y5026060D01*
X6824566Y5007725D01*
X6831572Y4990814D01*
X6881142Y4818751D01*
X6919135Y4691848D01*
X6921394Y4679033D01*
X6924706Y4667539D01*
X6958707Y4467416D01*
X6979715Y4348279D01*
X6980113Y4341429D01*
X6981056Y4335885D01*
X6997761Y4038434D01*
X7000000Y4000000D01*
X6997761Y3961568D01*
X6981056Y3664114D01*
X6980113Y3658568D01*
X6979715Y3651721D01*
X6958712Y3532609D01*
X6924706Y3332460D01*
X6921394Y3320964D01*
X6919135Y3308152D01*
X6881149Y3181273D01*
X6831572Y3009185D01*
X6824565Y2992270D01*
X6819078Y2973940D01*
X6766114Y2851155D01*
X6702832Y2698379D01*
X6690900Y2676790D01*
X6680898Y2653602D01*
X6615068Y2539583D01*
X6540109Y2403953D01*
X6522145Y2378635D01*
X6506463Y2351473D01*
X6429945Y2248692D01*
X6345431Y2129580D01*
X6320504Y2101687D01*
X6298133Y2071637D01*
X6213194Y1981606D01*
X6121263Y1878736D01*
X6088611Y1849556D01*
X6058725Y1817879D01*
X5967629Y1741440D01*
X5870419Y1654568D01*
X5829487Y1625525D01*
X5791476Y1593630D01*
X5696454Y1531133D01*
X5596046Y1459890D01*
X5546495Y1432504D01*
X5500000Y1401924D01*
X5403223Y1353321D01*
X5301620Y1297167D01*
X5243361Y1273035D01*
X5188239Y1245352D01*
X5091681Y1210207D01*
X4990814Y1168427D01*
X4924028Y1149186D01*
X4860410Y1126031D01*
X4765930Y1103639D01*
X4667539Y1075293D01*
X4592615Y1062562D01*
X4520945Y1045577D01*
X4430253Y1034976D01*
X4335885Y1018943D01*
X4253478Y1014314D01*
X4174434Y1005076D01*
X4088975Y1005076D01*
X4000000Y1000079D01*
X3911025Y1005076D01*
X3825566Y1005076D01*
X3746522Y1014314D01*
X3664114Y1018943D01*
X3569743Y1034977D01*
X3479055Y1045577D01*
X3407387Y1062562D01*
X3332460Y1075293D01*
X3234063Y1103640D01*
X3139590Y1126031D01*
X3075975Y1149184D01*
X3009185Y1168427D01*
X2908310Y1210210D01*
X2811761Y1245352D01*
X2756642Y1273033D01*
X2698379Y1297167D01*
X2596765Y1353326D01*
X2500000Y1401924D01*
X2453509Y1432501D01*
X2403953Y1459890D01*
X2303531Y1531142D01*
X2208524Y1593630D01*
X2170517Y1625521D01*
X2129580Y1654568D01*
X2032354Y1741454D01*
X1941275Y1817879D01*
X1911394Y1849550D01*
X1878736Y1878736D01*
X1786786Y1981626D01*
X1701867Y2071637D01*
X1679500Y2101680D01*
X1654568Y2129580D01*
X1570032Y2248720D01*
X1493537Y2351473D01*
X1477858Y2378628D01*
X1459890Y2403953D01*
X1384907Y2539623D01*
X1319102Y2653602D01*
X1309102Y2676782D01*
X1297167Y2698379D01*
X1233860Y2851214D01*
X1180922Y2973940D01*
X1175436Y2992262D01*
X1168427Y3009185D01*
X1118823Y3181362D01*
X1080865Y3308152D01*
X1078607Y3320955D01*
X1075293Y3332460D01*
X1041259Y3532765D01*
X1020285Y3651721D01*
X1019886Y3658559D01*
X1018943Y3664114D01*
X1002210Y3962048D01*
X1000000Y4000000D01*
X1002210Y4037954D01*
X1018943Y4335885D01*
X1019886Y4341438D01*
X1020285Y4348279D01*
X1041264Y4467260D01*
X1075293Y4667539D01*
X1078606Y4679042D01*
X1080865Y4691848D01*
X1118831Y4818663D01*
X1168427Y4990814D01*
X1175435Y5007734D01*
X1180922Y5026060D01*
X1233871Y5148809D01*
X1297167Y5301620D01*
X1309100Y5323212D01*
X1319102Y5346398D01*
X1384920Y5460398D01*
X1459890Y5596046D01*
X1477855Y5621366D01*
X1493537Y5648527D01*
X1570048Y5751299D01*
X1654568Y5870419D01*
X1679495Y5898313D01*
X1701867Y5928363D01*
X1786803Y6018390D01*
X1878736Y6121263D01*
X1911388Y6150442D01*
X1941275Y6182121D01*
X2032372Y6258561D01*
X2129580Y6345431D01*
X2170509Y6374472D01*
X2208524Y6406370D01*
X2303550Y6468869D01*
X2403953Y6540109D01*
X2453499Y6567492D01*
X2500000Y6598076D01*
X2596785Y6646683D01*
X2698379Y6702832D01*
X2756631Y6726960D01*
X2811761Y6754648D01*
X2908330Y6789796D01*
X3009185Y6831572D01*
X3075962Y6850810D01*
X3139590Y6873969D01*
X3234083Y6896364D01*
X3332460Y6924706D01*
X3407372Y6937434D01*
X3479055Y6954423D01*
X3569762Y6965025D01*
X3664114Y6981056D01*
X3746506Y6985683D01*
X3825566Y6994924D01*
X3911043Y6994924D01*
X4000000Y6999920D01*
X4088957Y6994924D01*
G37*
G36*
X46088957Y6994924D02*
G01*
X46174434Y6994924D01*
X46253494Y6985683D01*
X46335885Y6981056D01*
X46430234Y6965025D01*
X46520945Y6954423D01*
X46592629Y6937433D01*
X46667539Y6924706D01*
X46765911Y6896365D01*
X46860410Y6873969D01*
X46924041Y6850808D01*
X46990814Y6831572D01*
X47091661Y6789799D01*
X47188239Y6754648D01*
X47243373Y6726958D01*
X47301620Y6702832D01*
X47403203Y6646688D01*
X47500000Y6598076D01*
X47546505Y6567489D01*
X47596046Y6540109D01*
X47696435Y6468878D01*
X47791476Y6406370D01*
X47829495Y6374467D01*
X47870419Y6345431D01*
X47967610Y6258574D01*
X48058725Y6182121D01*
X48088617Y6150437D01*
X48121263Y6121263D01*
X48213177Y6018411D01*
X48298133Y5928363D01*
X48320509Y5898306D01*
X48345431Y5870419D01*
X48429930Y5751327D01*
X48506463Y5648527D01*
X48522148Y5621358D01*
X48540109Y5596046D01*
X48615055Y5460439D01*
X48680898Y5346398D01*
X48690902Y5323204D01*
X48702832Y5301620D01*
X48766103Y5148868D01*
X48819078Y5026060D01*
X48824566Y5007725D01*
X48831572Y4990814D01*
X48881142Y4818751D01*
X48919135Y4691848D01*
X48921394Y4679033D01*
X48924706Y4667539D01*
X48958707Y4467416D01*
X48979715Y4348279D01*
X48980113Y4341429D01*
X48981056Y4335885D01*
X48997761Y4038434D01*
X49000000Y4000000D01*
X48997761Y3961568D01*
X48981056Y3664114D01*
X48980113Y3658568D01*
X48979715Y3651721D01*
X48958712Y3532609D01*
X48924706Y3332460D01*
X48921394Y3320964D01*
X48919135Y3308152D01*
X48881149Y3181273D01*
X48831572Y3009185D01*
X48824565Y2992270D01*
X48819078Y2973940D01*
X48766114Y2851155D01*
X48702832Y2698379D01*
X48690900Y2676790D01*
X48680898Y2653602D01*
X48615068Y2539583D01*
X48540109Y2403953D01*
X48522145Y2378635D01*
X48506463Y2351473D01*
X48429945Y2248692D01*
X48345431Y2129580D01*
X48320504Y2101687D01*
X48298133Y2071637D01*
X48213194Y1981606D01*
X48121263Y1878736D01*
X48088611Y1849556D01*
X48058725Y1817879D01*
X47967629Y1741440D01*
X47870419Y1654568D01*
X47829487Y1625525D01*
X47791476Y1593630D01*
X47696454Y1531133D01*
X47596046Y1459890D01*
X47546495Y1432504D01*
X47500000Y1401924D01*
X47403223Y1353321D01*
X47301620Y1297167D01*
X47243361Y1273035D01*
X47188239Y1245352D01*
X47091681Y1210207D01*
X46990814Y1168427D01*
X46924028Y1149186D01*
X46860410Y1126031D01*
X46765930Y1103639D01*
X46667539Y1075293D01*
X46592615Y1062562D01*
X46520945Y1045577D01*
X46430253Y1034976D01*
X46335885Y1018943D01*
X46253478Y1014314D01*
X46174434Y1005076D01*
X46088975Y1005076D01*
X46000000Y1000079D01*
X45911025Y1005076D01*
X45825566Y1005076D01*
X45746522Y1014314D01*
X45664114Y1018943D01*
X45569743Y1034977D01*
X45479055Y1045577D01*
X45407387Y1062562D01*
X45332460Y1075293D01*
X45234063Y1103640D01*
X45139590Y1126031D01*
X45075975Y1149184D01*
X45009185Y1168427D01*
X44908310Y1210210D01*
X44811761Y1245352D01*
X44756642Y1273033D01*
X44698379Y1297167D01*
X44596765Y1353326D01*
X44500000Y1401924D01*
X44453509Y1432501D01*
X44403953Y1459890D01*
X44303531Y1531142D01*
X44208524Y1593630D01*
X44170517Y1625521D01*
X44129580Y1654568D01*
X44032354Y1741454D01*
X43941275Y1817879D01*
X43911394Y1849550D01*
X43878736Y1878736D01*
X43786786Y1981626D01*
X43701867Y2071637D01*
X43679500Y2101680D01*
X43654568Y2129580D01*
X43570032Y2248720D01*
X43493537Y2351473D01*
X43477858Y2378628D01*
X43459890Y2403953D01*
X43384907Y2539623D01*
X43319102Y2653602D01*
X43309102Y2676782D01*
X43297167Y2698379D01*
X43233860Y2851214D01*
X43180922Y2973940D01*
X43175436Y2992262D01*
X43168427Y3009185D01*
X43118823Y3181362D01*
X43080865Y3308152D01*
X43078607Y3320955D01*
X43075293Y3332460D01*
X43041259Y3532765D01*
X43020285Y3651721D01*
X43019886Y3658559D01*
X43018943Y3664114D01*
X43002210Y3962048D01*
X43000000Y4000000D01*
X43002210Y4037954D01*
X43018943Y4335885D01*
X43019886Y4341438D01*
X43020285Y4348279D01*
X43041264Y4467260D01*
X43075293Y4667539D01*
X43078606Y4679042D01*
X43080865Y4691848D01*
X43118831Y4818663D01*
X43168427Y4990814D01*
X43175435Y5007734D01*
X43180922Y5026060D01*
X43233871Y5148809D01*
X43297167Y5301620D01*
X43309100Y5323212D01*
X43319102Y5346398D01*
X43384920Y5460398D01*
X43459890Y5596046D01*
X43477855Y5621366D01*
X43493537Y5648527D01*
X43570048Y5751299D01*
X43654568Y5870419D01*
X43679495Y5898313D01*
X43701867Y5928363D01*
X43786803Y6018390D01*
X43878736Y6121263D01*
X43911388Y6150442D01*
X43941275Y6182121D01*
X44032372Y6258561D01*
X44129580Y6345431D01*
X44170509Y6374472D01*
X44208524Y6406370D01*
X44303550Y6468869D01*
X44403953Y6540109D01*
X44453499Y6567492D01*
X44500000Y6598076D01*
X44596785Y6646683D01*
X44698379Y6702832D01*
X44756631Y6726960D01*
X44811761Y6754648D01*
X44908330Y6789796D01*
X45009185Y6831572D01*
X45075962Y6850810D01*
X45139590Y6873969D01*
X45234083Y6896364D01*
X45332460Y6924706D01*
X45407372Y6937434D01*
X45479055Y6954423D01*
X45569762Y6965025D01*
X45664114Y6981056D01*
X45746506Y6985683D01*
X45825566Y6994924D01*
X45911043Y6994924D01*
X46000000Y6999920D01*
X46088957Y6994924D01*
G37*
G36*
X27450000Y1300000D02*
G01*
X27444999Y1300000D01*
X26055004Y1300000D01*
X26050000Y1300000D01*
X26050000Y2350000D01*
X27450000Y2350000D01*
X27450000Y1300000D01*
G37*
G36*
X9850000Y1750000D02*
G01*
X9844999Y1750000D01*
X8455004Y1750000D01*
X8450000Y1750000D01*
X8450000Y2800000D01*
X9850000Y2800000D01*
X9850000Y1750000D01*
G37*
G36*
X16525000Y1750000D02*
G01*
X16519999Y1750000D01*
X15130004Y1750000D01*
X15125000Y1750000D01*
X15125000Y2800000D01*
X16525000Y2800000D01*
X16525000Y1750000D01*
G37*
G36*
X31770000Y1750000D02*
G01*
X31764998Y1750000D01*
X31025004Y1750000D01*
X31020000Y1750000D01*
X31020000Y2850000D01*
X31770000Y2850000D01*
X31770000Y1750000D01*
G37*
G36*
X32870000Y1750000D02*
G01*
X32864998Y1750000D01*
X32125004Y1750000D01*
X32120000Y1750000D01*
X32120000Y2850000D01*
X32870000Y2850000D01*
X32870000Y1750000D01*
G37*
G36*
X33970000Y1750000D02*
G01*
X33964998Y1750000D01*
X33225004Y1750000D01*
X33220000Y1750000D01*
X33220000Y2850000D01*
X33970000Y2850000D01*
X33970000Y1750000D01*
G37*
G36*
X35070000Y1750000D02*
G01*
X35064998Y1750000D01*
X34325004Y1750000D01*
X34320000Y1750000D01*
X34320000Y2850000D01*
X35070000Y2850000D01*
X35070000Y1750000D01*
G37*
G36*
X36170000Y1750000D02*
G01*
X36164998Y1750000D01*
X35425004Y1750000D01*
X35420000Y1750000D01*
X35420000Y2850000D01*
X36170000Y2850000D01*
X36170000Y1750000D01*
G37*
G36*
X37270000Y1750000D02*
G01*
X37264998Y1750000D01*
X36525004Y1750000D01*
X36520000Y1750000D01*
X36520000Y2850000D01*
X37270000Y2850000D01*
X37270000Y1750000D01*
G37*
G36*
X38370000Y1750000D02*
G01*
X38364998Y1750000D01*
X37625004Y1750000D01*
X37620000Y1750000D01*
X37620000Y2850000D01*
X38370000Y2850000D01*
X38370000Y1750000D01*
G37*
G36*
X39470000Y1750000D02*
G01*
X39464998Y1750000D01*
X38725004Y1750000D01*
X38720000Y1750000D01*
X38720000Y2850000D01*
X39470000Y2850000D01*
X39470000Y1750000D01*
G37*
G36*
X29710000Y1800000D02*
G01*
X29704999Y1800000D01*
X28165004Y1800000D01*
X28160000Y1800000D01*
X28160000Y3150000D01*
X29710000Y3150000D01*
X29710000Y1800000D01*
G37*
G36*
X40700000Y1800000D02*
G01*
X40694998Y1800000D01*
X39805004Y1800000D01*
X39800000Y1800000D01*
X39800000Y3600000D01*
X40700000Y3600000D01*
X40700000Y1800000D01*
G37*
G36*
X11625000Y1950000D02*
G01*
X11619998Y1950000D01*
X10630004Y1950000D01*
X10625000Y1950000D01*
X10625000Y2550000D01*
X11625000Y2550000D01*
X11625000Y1950000D01*
G37*
G36*
X14175000Y1950000D02*
G01*
X14169998Y1950000D01*
X13180004Y1950000D01*
X13175000Y1950000D01*
X13175000Y2550000D01*
X14175000Y2550000D01*
X14175000Y1950000D01*
G37*
G36*
X25475000Y2075000D02*
G01*
X25469999Y2075000D01*
X22030004Y2075000D01*
X22025000Y2075000D01*
X22025000Y3925000D01*
X25475000Y3925000D01*
X25475000Y2075000D01*
G37*
G36*
X11625000Y2900000D02*
G01*
X11619998Y2900000D01*
X10630004Y2900000D01*
X10625000Y2900000D01*
X10625000Y3500000D01*
X11625000Y3500000D01*
X11625000Y2900000D01*
G37*
G36*
X27450000Y3150000D02*
G01*
X27444999Y3150000D01*
X26055004Y3150000D01*
X26050000Y3150000D01*
X26050000Y4200000D01*
X27450000Y4200000D01*
X27450000Y3150000D01*
G37*
G36*
X9850000Y3600000D02*
G01*
X9844999Y3600000D01*
X8455004Y3600000D01*
X8450000Y3600000D01*
X8450000Y4650000D01*
X9850000Y4650000D01*
X9850000Y3600000D01*
G37*
G36*
X16525000Y3600000D02*
G01*
X16519999Y3600000D01*
X15130004Y3600000D01*
X15125000Y3600000D01*
X15125000Y4650000D01*
X16525000Y4650000D01*
X16525000Y3600000D01*
G37*
G36*
X11625000Y3850000D02*
G01*
X11619998Y3850000D01*
X10630004Y3850000D01*
X10625000Y3850000D01*
X10625000Y4450000D01*
X11625000Y4450000D01*
X11625000Y3850000D01*
G37*
G36*
X14175000Y3850000D02*
G01*
X14169998Y3850000D01*
X13180004Y3850000D01*
X13175000Y3850000D01*
X13175000Y4450000D01*
X14175000Y4450000D01*
X14175000Y3850000D01*
G37*
G36*
X9475000Y5300000D02*
G01*
X9469998Y5300000D01*
X8430004Y5300000D01*
X8425000Y5300000D01*
X8425000Y6700000D01*
X9475000Y6700000D01*
X9475000Y5300000D01*
G37*
G36*
X11325000Y5300000D02*
G01*
X11319998Y5300000D01*
X10280004Y5300000D01*
X10275000Y5300000D01*
X10275000Y6700000D01*
X11325000Y6700000D01*
X11325000Y5300000D01*
G37*
G36*
X12975000Y5300000D02*
G01*
X12969998Y5300000D01*
X11930004Y5300000D01*
X11925000Y5300000D01*
X11925000Y6700000D01*
X12975000Y6700000D01*
X12975000Y5300000D01*
G37*
G36*
X14825000Y5300000D02*
G01*
X14819998Y5300000D01*
X13780004Y5300000D01*
X13775000Y5300000D01*
X13775000Y6700000D01*
X14825000Y6700000D01*
X14825000Y5300000D01*
G37*
G36*
X16970000Y6050000D02*
G01*
X16964999Y6050000D01*
X15375004Y6050000D01*
X15370000Y6050000D01*
X15370000Y8350000D01*
X16970000Y8350000D01*
X16970000Y6050000D01*
G37*
G36*
X21230000Y6050000D02*
G01*
X21224999Y6050000D01*
X19635004Y6050000D01*
X19630000Y6050000D01*
X19630000Y8350000D01*
X21230000Y8350000D01*
X21230000Y6050000D01*
G37*
G36*
X27500000Y6175000D02*
G01*
X27494998Y6175000D01*
X26505004Y6175000D01*
X26500000Y6175000D01*
X26500000Y7125000D01*
X27500000Y7125000D01*
X27500000Y6175000D01*
G37*
G36*
X25475000Y6325000D02*
G01*
X25469999Y6325000D01*
X22030004Y6325000D01*
X22025000Y6325000D01*
X22025000Y8175000D01*
X25475000Y8175000D01*
X25475000Y6325000D01*
G37*
G36*
X9475000Y7300000D02*
G01*
X9469998Y7300000D01*
X8430004Y7300000D01*
X8425000Y7300000D01*
X8425000Y8700000D01*
X9475000Y8700000D01*
X9475000Y7300000D01*
G37*
G36*
X11325000Y7300000D02*
G01*
X11319998Y7300000D01*
X10280004Y7300000D01*
X10275000Y7300000D01*
X10275000Y8700000D01*
X11325000Y8700000D01*
X11325000Y7300000D01*
G37*
G36*
X12975000Y7300000D02*
G01*
X12969998Y7300000D01*
X11930004Y7300000D01*
X11925000Y7300000D01*
X11925000Y8700000D01*
X12975000Y8700000D01*
X12975000Y7300000D01*
G37*
G36*
X14825000Y7300000D02*
G01*
X14819998Y7300000D01*
X13780004Y7300000D01*
X13775000Y7300000D01*
X13775000Y8700000D01*
X14825000Y8700000D01*
X14825000Y7300000D01*
G37*
G36*
X27500000Y7875000D02*
G01*
X27494998Y7875000D01*
X26505004Y7875000D01*
X26500000Y7875000D01*
X26500000Y8825000D01*
X27500000Y8825000D01*
X27500000Y7875000D01*
G37*
G36*
X29360000Y7950000D02*
G01*
X29354999Y7950000D01*
X28165004Y7950000D01*
X28160000Y7950000D01*
X28160000Y8950000D01*
X29360000Y8950000D01*
X29360000Y7950000D01*
G37*
G36*
X2332853Y9514646D02*
G01*
X2340151Y9511768D01*
X2344648Y9511176D01*
X2404119Y9486542D01*
X2469660Y9460697D01*
X2473443Y9457828D01*
X2474781Y9457274D01*
X2525858Y9418080D01*
X2586838Y9371838D01*
X2633080Y9310858D01*
X2672274Y9259781D01*
X2672828Y9258443D01*
X2675697Y9254660D01*
X2701536Y9189135D01*
X2726177Y9129647D01*
X2726769Y9125147D01*
X2729646Y9117853D01*
X2745000Y8990000D01*
X2745000Y8870000D01*
X2729646Y8742147D01*
X2726768Y8734849D01*
X2726176Y8730351D01*
X2701534Y8670859D01*
X2675697Y8605340D01*
X2672829Y8601558D01*
X2672274Y8600218D01*
X2633016Y8549056D01*
X2586838Y8488162D01*
X2525968Y8442003D01*
X2474781Y8402725D01*
X2473440Y8402169D01*
X2469660Y8399303D01*
X2404185Y8373483D01*
X2344647Y8348822D01*
X2340144Y8348229D01*
X2332853Y8345354D01*
X2205000Y8330000D01*
X2201673Y8330000D01*
X1288326Y8330000D01*
X1285000Y8330000D01*
X1157147Y8345354D01*
X1149853Y8348230D01*
X1145351Y8348823D01*
X1085809Y8373485D01*
X1020340Y8399303D01*
X1016560Y8402168D01*
X1015218Y8402725D01*
X963945Y8442068D01*
X903162Y8488162D01*
X857068Y8548945D01*
X817725Y8600218D01*
X817168Y8601560D01*
X814303Y8605340D01*
X788491Y8670793D01*
X763822Y8730352D01*
X763229Y8734856D01*
X760354Y8742147D01*
X745000Y8870000D01*
X745000Y8990000D01*
X760354Y9117853D01*
X763230Y9125147D01*
X763823Y9129648D01*
X788477Y9189169D01*
X814303Y9254660D01*
X817169Y9258440D01*
X817725Y9259781D01*
X857003Y9310968D01*
X903162Y9371838D01*
X964056Y9418016D01*
X1015218Y9457274D01*
X1016558Y9457829D01*
X1020340Y9460697D01*
X1085843Y9486528D01*
X1145352Y9511177D01*
X1149852Y9511769D01*
X1157147Y9514646D01*
X1285000Y9530000D01*
X2205000Y9530000D01*
X2332853Y9514646D01*
G37*
G36*
X6512853Y9514646D02*
G01*
X6520151Y9511768D01*
X6524648Y9511176D01*
X6584119Y9486542D01*
X6649660Y9460697D01*
X6653443Y9457828D01*
X6654781Y9457274D01*
X6705858Y9418080D01*
X6766838Y9371838D01*
X6813080Y9310858D01*
X6852274Y9259781D01*
X6852828Y9258443D01*
X6855697Y9254660D01*
X6881536Y9189135D01*
X6906177Y9129647D01*
X6906769Y9125147D01*
X6909646Y9117853D01*
X6925000Y8990000D01*
X6925000Y8870000D01*
X6909646Y8742147D01*
X6906768Y8734849D01*
X6906176Y8730351D01*
X6881534Y8670859D01*
X6855697Y8605340D01*
X6852829Y8601558D01*
X6852274Y8600218D01*
X6813016Y8549056D01*
X6766838Y8488162D01*
X6705968Y8442003D01*
X6654781Y8402725D01*
X6653440Y8402169D01*
X6649660Y8399303D01*
X6584185Y8373483D01*
X6524647Y8348822D01*
X6520144Y8348229D01*
X6512853Y8345354D01*
X6385000Y8330000D01*
X6381673Y8330000D01*
X5468326Y8330000D01*
X5465000Y8330000D01*
X5337147Y8345354D01*
X5329853Y8348230D01*
X5325351Y8348823D01*
X5265809Y8373485D01*
X5200340Y8399303D01*
X5196560Y8402168D01*
X5195218Y8402725D01*
X5143945Y8442068D01*
X5083162Y8488162D01*
X5037068Y8548945D01*
X4997725Y8600218D01*
X4997168Y8601560D01*
X4994303Y8605340D01*
X4968491Y8670793D01*
X4943822Y8730352D01*
X4943229Y8734856D01*
X4940354Y8742147D01*
X4925000Y8870000D01*
X4925000Y8990000D01*
X4940354Y9117853D01*
X4943230Y9125147D01*
X4943823Y9129648D01*
X4968477Y9189169D01*
X4994303Y9254660D01*
X4997169Y9258440D01*
X4997725Y9259781D01*
X5037003Y9310968D01*
X5083162Y9371838D01*
X5144056Y9418016D01*
X5195218Y9457274D01*
X5196558Y9457829D01*
X5200340Y9460697D01*
X5265843Y9486528D01*
X5325352Y9511177D01*
X5329852Y9511769D01*
X5337147Y9514646D01*
X5465000Y9530000D01*
X6385000Y9530000D01*
X6512853Y9514646D01*
G37*
G36*
X27500000Y9175000D02*
G01*
X27494998Y9175000D01*
X26505004Y9175000D01*
X26500000Y9175000D01*
X26500000Y10125000D01*
X27500000Y10125000D01*
X27500000Y9175000D01*
G37*
G36*
X5522975Y10605430D02*
G01*
X5543275Y10605430D01*
X5567739Y10596525D01*
X5595671Y10590970D01*
X5610825Y10580843D01*
X5624610Y10575827D01*
X5649139Y10555243D01*
X5676777Y10536777D01*
X5683962Y10526022D01*
X5690909Y10520194D01*
X5710308Y10486592D01*
X5730970Y10455671D01*
X5732446Y10448250D01*
X5734187Y10445235D01*
X5743095Y10394710D01*
X5750000Y10360000D01*
X5743096Y10325292D01*
X5734187Y10274764D01*
X5732445Y10271748D01*
X5730970Y10264329D01*
X5710313Y10233413D01*
X5690909Y10199805D01*
X5683961Y10193974D01*
X5676777Y10183223D01*
X5649145Y10164760D01*
X5624610Y10144172D01*
X5610823Y10139154D01*
X5595671Y10129030D01*
X5567740Y10123474D01*
X5543275Y10114570D01*
X5522975Y10114570D01*
X5500000Y10110000D01*
X5477025Y10114570D01*
X5456725Y10114570D01*
X5432258Y10123474D01*
X5404329Y10129030D01*
X5389177Y10139153D01*
X5375389Y10144172D01*
X5350849Y10164763D01*
X5323223Y10183223D01*
X5316040Y10193972D01*
X5309090Y10199805D01*
X5289679Y10233424D01*
X5269030Y10264329D01*
X5267554Y10271745D01*
X5265812Y10274764D01*
X5256894Y10325336D01*
X5250000Y10360000D01*
X5256895Y10394666D01*
X5265812Y10445235D01*
X5267554Y10448253D01*
X5269030Y10455671D01*
X5289681Y10486579D01*
X5309089Y10520193D01*
X5316038Y10526024D01*
X5323223Y10536777D01*
X5350858Y10555242D01*
X5375390Y10575827D01*
X5389174Y10580843D01*
X5404329Y10590970D01*
X5432260Y10596525D01*
X5456725Y10605430D01*
X5477025Y10605430D01*
X5500000Y10610000D01*
X5522975Y10605430D01*
G37*
G36*
X16970000Y10550000D02*
G01*
X16964999Y10550000D01*
X15375004Y10550000D01*
X15370000Y10550000D01*
X15370000Y12850000D01*
X16970000Y12850000D01*
X16970000Y10550000D01*
G37*
G36*
X21230000Y10550000D02*
G01*
X21224999Y10550000D01*
X19635004Y10550000D01*
X19630000Y10550000D01*
X19630000Y12850000D01*
X21230000Y12850000D01*
X21230000Y10550000D01*
G37*
G36*
X25475000Y10825000D02*
G01*
X25469999Y10825000D01*
X22030004Y10825000D01*
X22025000Y10825000D01*
X22025000Y12675000D01*
X25475000Y12675000D01*
X25475000Y10825000D01*
G37*
G36*
X27500000Y10875000D02*
G01*
X27494998Y10875000D01*
X26505004Y10875000D01*
X26500000Y10875000D01*
X26500000Y11825000D01*
X27500000Y11825000D01*
X27500000Y10875000D01*
G37*
G36*
X29360000Y11560000D02*
G01*
X29354999Y11560000D01*
X28165004Y11560000D01*
X28160000Y11560000D01*
X28160000Y12560000D01*
X29360000Y12560000D01*
X29360000Y11560000D01*
G37*
G36*
X33210000Y12450000D02*
G01*
X33204999Y12450000D01*
X31315004Y12450000D01*
X31310000Y12450000D01*
X31310000Y13800000D01*
X33210000Y13800000D01*
X33210000Y12450000D01*
G37*
G36*
X39180000Y12450000D02*
G01*
X39174999Y12450000D01*
X37285004Y12450000D01*
X37280000Y12450000D01*
X37280000Y13800000D01*
X39180000Y13800000D01*
X39180000Y12450000D01*
G37*
G36*
X26450000Y15800000D02*
G01*
X26444998Y15800000D01*
X25405004Y15800000D01*
X25400000Y15800000D01*
X25400000Y17200000D01*
X26450000Y17200000D01*
X26450000Y15800000D01*
G37*
G36*
X28300000Y15800000D02*
G01*
X28294998Y15800000D01*
X27255004Y15800000D01*
X27250000Y15800000D01*
X27250000Y17200000D01*
X28300000Y17200000D01*
X28300000Y15800000D01*
G37*
G36*
X32950000Y15800000D02*
G01*
X32944998Y15800000D01*
X31905004Y15800000D01*
X31900000Y15800000D01*
X31900000Y17200000D01*
X32950000Y17200000D01*
X32950000Y15800000D01*
G37*
G36*
X34800000Y15800000D02*
G01*
X34794998Y15800000D01*
X33755004Y15800000D01*
X33750000Y15800000D01*
X33750000Y17200000D01*
X34800000Y17200000D01*
X34800000Y15800000D01*
G37*
G36*
X5522975Y16385430D02*
G01*
X5543275Y16385430D01*
X5567739Y16376525D01*
X5595671Y16370970D01*
X5610825Y16360843D01*
X5624610Y16355827D01*
X5649139Y16335243D01*
X5676777Y16316777D01*
X5683962Y16306022D01*
X5690909Y16300194D01*
X5710308Y16266592D01*
X5730970Y16235671D01*
X5732446Y16228250D01*
X5734187Y16225235D01*
X5743095Y16174710D01*
X5750000Y16140000D01*
X5743096Y16105292D01*
X5734187Y16054764D01*
X5732445Y16051748D01*
X5730970Y16044329D01*
X5710313Y16013413D01*
X5690909Y15979805D01*
X5683961Y15973974D01*
X5676777Y15963223D01*
X5649145Y15944760D01*
X5624610Y15924172D01*
X5610823Y15919154D01*
X5595671Y15909030D01*
X5567740Y15903474D01*
X5543275Y15894570D01*
X5522975Y15894570D01*
X5500000Y15890000D01*
X5477025Y15894570D01*
X5456725Y15894570D01*
X5432258Y15903474D01*
X5404329Y15909030D01*
X5389177Y15919153D01*
X5375389Y15924172D01*
X5350849Y15944763D01*
X5323223Y15963223D01*
X5316040Y15973972D01*
X5309090Y15979805D01*
X5289679Y16013424D01*
X5269030Y16044329D01*
X5267554Y16051745D01*
X5265812Y16054764D01*
X5256894Y16105336D01*
X5250000Y16140000D01*
X5256895Y16174666D01*
X5265812Y16225235D01*
X5267554Y16228253D01*
X5269030Y16235671D01*
X5289681Y16266579D01*
X5309089Y16300193D01*
X5316038Y16306024D01*
X5323223Y16316777D01*
X5350858Y16335242D01*
X5375390Y16355827D01*
X5389174Y16360843D01*
X5404329Y16370970D01*
X5432260Y16376525D01*
X5456725Y16385430D01*
X5477025Y16385430D01*
X5500000Y16390000D01*
X5522975Y16385430D01*
G37*
G36*
X2332853Y18154646D02*
G01*
X2340151Y18151768D01*
X2344648Y18151176D01*
X2404119Y18126542D01*
X2469660Y18100697D01*
X2473443Y18097828D01*
X2474781Y18097274D01*
X2525858Y18058080D01*
X2586838Y18011838D01*
X2633080Y17950858D01*
X2672274Y17899781D01*
X2672828Y17898443D01*
X2675697Y17894660D01*
X2701536Y17829135D01*
X2726177Y17769647D01*
X2726769Y17765147D01*
X2729646Y17757853D01*
X2745000Y17630000D01*
X2745000Y17510000D01*
X2729646Y17382147D01*
X2726768Y17374849D01*
X2726176Y17370351D01*
X2701534Y17310859D01*
X2675697Y17245340D01*
X2672829Y17241558D01*
X2672274Y17240218D01*
X2633016Y17189056D01*
X2586838Y17128162D01*
X2525968Y17082003D01*
X2474781Y17042725D01*
X2473440Y17042169D01*
X2469660Y17039303D01*
X2404185Y17013483D01*
X2344647Y16988822D01*
X2340144Y16988229D01*
X2332853Y16985354D01*
X2205000Y16970000D01*
X2201673Y16970000D01*
X1288326Y16970000D01*
X1285000Y16970000D01*
X1157147Y16985354D01*
X1149853Y16988230D01*
X1145351Y16988823D01*
X1085809Y17013485D01*
X1020340Y17039303D01*
X1016560Y17042168D01*
X1015218Y17042725D01*
X963945Y17082068D01*
X903162Y17128162D01*
X857068Y17188945D01*
X817725Y17240218D01*
X817168Y17241560D01*
X814303Y17245340D01*
X788491Y17310793D01*
X763822Y17370352D01*
X763229Y17374856D01*
X760354Y17382147D01*
X745000Y17510000D01*
X745000Y17630000D01*
X760354Y17757853D01*
X763230Y17765147D01*
X763823Y17769648D01*
X788477Y17829169D01*
X814303Y17894660D01*
X817169Y17898440D01*
X817725Y17899781D01*
X857003Y17950968D01*
X903162Y18011838D01*
X964056Y18058016D01*
X1015218Y18097274D01*
X1016558Y18097829D01*
X1020340Y18100697D01*
X1085843Y18126528D01*
X1145352Y18151177D01*
X1149852Y18151769D01*
X1157147Y18154646D01*
X1285000Y18170000D01*
X2205000Y18170000D01*
X2332853Y18154646D01*
G37*
G36*
X6512853Y18154646D02*
G01*
X6520151Y18151768D01*
X6524648Y18151176D01*
X6584119Y18126542D01*
X6649660Y18100697D01*
X6653443Y18097828D01*
X6654781Y18097274D01*
X6705858Y18058080D01*
X6766838Y18011838D01*
X6813080Y17950858D01*
X6852274Y17899781D01*
X6852828Y17898443D01*
X6855697Y17894660D01*
X6881536Y17829135D01*
X6906177Y17769647D01*
X6906769Y17765147D01*
X6909646Y17757853D01*
X6925000Y17630000D01*
X6925000Y17510000D01*
X6909646Y17382147D01*
X6906768Y17374849D01*
X6906176Y17370351D01*
X6881534Y17310859D01*
X6855697Y17245340D01*
X6852829Y17241558D01*
X6852274Y17240218D01*
X6813016Y17189056D01*
X6766838Y17128162D01*
X6705968Y17082003D01*
X6654781Y17042725D01*
X6653440Y17042169D01*
X6649660Y17039303D01*
X6584185Y17013483D01*
X6524647Y16988822D01*
X6520144Y16988229D01*
X6512853Y16985354D01*
X6385000Y16970000D01*
X6381673Y16970000D01*
X5468326Y16970000D01*
X5465000Y16970000D01*
X5337147Y16985354D01*
X5329853Y16988230D01*
X5325351Y16988823D01*
X5265809Y17013485D01*
X5200340Y17039303D01*
X5196560Y17042168D01*
X5195218Y17042725D01*
X5143945Y17082068D01*
X5083162Y17128162D01*
X5037068Y17188945D01*
X4997725Y17240218D01*
X4997168Y17241560D01*
X4994303Y17245340D01*
X4968491Y17310793D01*
X4943822Y17370352D01*
X4943229Y17374856D01*
X4940354Y17382147D01*
X4925000Y17510000D01*
X4925000Y17630000D01*
X4940354Y17757853D01*
X4943230Y17765147D01*
X4943823Y17769648D01*
X4968477Y17829169D01*
X4994303Y17894660D01*
X4997169Y17898440D01*
X4997725Y17899781D01*
X5037003Y17950968D01*
X5083162Y18011838D01*
X5144056Y18058016D01*
X5195218Y18097274D01*
X5196558Y18097829D01*
X5200340Y18100697D01*
X5265843Y18126528D01*
X5325352Y18151177D01*
X5329852Y18151769D01*
X5337147Y18154646D01*
X5465000Y18170000D01*
X6385000Y18170000D01*
X6512853Y18154646D01*
G37*
G36*
X26175000Y17845000D02*
G01*
X26169998Y17845000D01*
X25780004Y17845000D01*
X25775000Y17845000D01*
X25775000Y19415000D01*
X26175000Y19415000D01*
X26175000Y17845000D01*
G37*
G36*
X26825000Y17845000D02*
G01*
X26819998Y17845000D01*
X26430004Y17845000D01*
X26425000Y17845000D01*
X26425000Y19415000D01*
X26825000Y19415000D01*
X26825000Y17845000D01*
G37*
G36*
X27475000Y17845000D02*
G01*
X27469998Y17845000D01*
X27080004Y17845000D01*
X27075000Y17845000D01*
X27075000Y19415000D01*
X27475000Y19415000D01*
X27475000Y17845000D01*
G37*
G36*
X28125000Y17845000D02*
G01*
X28119998Y17845000D01*
X27730004Y17845000D01*
X27725000Y17845000D01*
X27725000Y19415000D01*
X28125000Y19415000D01*
X28125000Y17845000D01*
G37*
G36*
X28775000Y17845000D02*
G01*
X28769998Y17845000D01*
X28380004Y17845000D01*
X28375000Y17845000D01*
X28375000Y19415000D01*
X28775000Y19415000D01*
X28775000Y17845000D01*
G37*
G36*
X29425000Y17845000D02*
G01*
X29419998Y17845000D01*
X29030004Y17845000D01*
X29025000Y17845000D01*
X29025000Y19415000D01*
X29425000Y19415000D01*
X29425000Y17845000D01*
G37*
G36*
X30075000Y17845000D02*
G01*
X30069998Y17845000D01*
X29680004Y17845000D01*
X29675000Y17845000D01*
X29675000Y19415000D01*
X30075000Y19415000D01*
X30075000Y17845000D01*
G37*
G36*
X30725000Y17845000D02*
G01*
X30719998Y17845000D01*
X30330004Y17845000D01*
X30325000Y17845000D01*
X30325000Y19415000D01*
X30725000Y19415000D01*
X30725000Y17845000D01*
G37*
G36*
X32675000Y17845000D02*
G01*
X32669998Y17845000D01*
X32280004Y17845000D01*
X32275000Y17845000D01*
X32275000Y19415000D01*
X32675000Y19415000D01*
X32675000Y17845000D01*
G37*
G36*
X33325000Y17845000D02*
G01*
X33319998Y17845000D01*
X32930004Y17845000D01*
X32925000Y17845000D01*
X32925000Y19415000D01*
X33325000Y19415000D01*
X33325000Y17845000D01*
G37*
G36*
X33975000Y17845000D02*
G01*
X33969998Y17845000D01*
X33580004Y17845000D01*
X33575000Y17845000D01*
X33575000Y19415000D01*
X33975000Y19415000D01*
X33975000Y17845000D01*
G37*
G36*
X34625000Y17845000D02*
G01*
X34619998Y17845000D01*
X34230004Y17845000D01*
X34225000Y17845000D01*
X34225000Y19415000D01*
X34625000Y19415000D01*
X34625000Y17845000D01*
G37*
G36*
X35275000Y17845000D02*
G01*
X35269998Y17845000D01*
X34880004Y17845000D01*
X34875000Y17845000D01*
X34875000Y19415000D01*
X35275000Y19415000D01*
X35275000Y17845000D01*
G37*
G36*
X35925000Y17845000D02*
G01*
X35919998Y17845000D01*
X35530004Y17845000D01*
X35525000Y17845000D01*
X35525000Y19415000D01*
X35925000Y19415000D01*
X35925000Y17845000D01*
G37*
G36*
X36575000Y17845000D02*
G01*
X36569998Y17845000D01*
X36180004Y17845000D01*
X36175000Y17845000D01*
X36175000Y19415000D01*
X36575000Y19415000D01*
X36575000Y17845000D01*
G37*
G36*
X37225000Y17845000D02*
G01*
X37219998Y17845000D01*
X36830004Y17845000D01*
X36825000Y17845000D01*
X36825000Y19415000D01*
X37225000Y19415000D01*
X37225000Y17845000D01*
G37*
G36*
X26175000Y23585000D02*
G01*
X26169998Y23585000D01*
X25780004Y23585000D01*
X25775000Y23585000D01*
X25775000Y25155000D01*
X26175000Y25155000D01*
X26175000Y23585000D01*
G37*
G36*
X26825000Y23585000D02*
G01*
X26819998Y23585000D01*
X26430004Y23585000D01*
X26425000Y23585000D01*
X26425000Y25155000D01*
X26825000Y25155000D01*
X26825000Y23585000D01*
G37*
G36*
X27475000Y23585000D02*
G01*
X27469998Y23585000D01*
X27080004Y23585000D01*
X27075000Y23585000D01*
X27075000Y25155000D01*
X27475000Y25155000D01*
X27475000Y23585000D01*
G37*
G36*
X28125000Y23585000D02*
G01*
X28119998Y23585000D01*
X27730004Y23585000D01*
X27725000Y23585000D01*
X27725000Y25155000D01*
X28125000Y25155000D01*
X28125000Y23585000D01*
G37*
G36*
X28775000Y23585000D02*
G01*
X28769998Y23585000D01*
X28380004Y23585000D01*
X28375000Y23585000D01*
X28375000Y25155000D01*
X28775000Y25155000D01*
X28775000Y23585000D01*
G37*
G36*
X29425000Y23585000D02*
G01*
X29419998Y23585000D01*
X29030004Y23585000D01*
X29025000Y23585000D01*
X29025000Y25155000D01*
X29425000Y25155000D01*
X29425000Y23585000D01*
G37*
G36*
X30075000Y23585000D02*
G01*
X30069998Y23585000D01*
X29680004Y23585000D01*
X29675000Y23585000D01*
X29675000Y25155000D01*
X30075000Y25155000D01*
X30075000Y23585000D01*
G37*
G36*
X30725000Y23585000D02*
G01*
X30719998Y23585000D01*
X30330004Y23585000D01*
X30325000Y23585000D01*
X30325000Y25155000D01*
X30725000Y25155000D01*
X30725000Y23585000D01*
G37*
G36*
X32675000Y23585000D02*
G01*
X32669998Y23585000D01*
X32280004Y23585000D01*
X32275000Y23585000D01*
X32275000Y25155000D01*
X32675000Y25155000D01*
X32675000Y23585000D01*
G37*
G36*
X33325000Y23585000D02*
G01*
X33319998Y23585000D01*
X32930004Y23585000D01*
X32925000Y23585000D01*
X32925000Y25155000D01*
X33325000Y25155000D01*
X33325000Y23585000D01*
G37*
G36*
X33975000Y23585000D02*
G01*
X33969998Y23585000D01*
X33580004Y23585000D01*
X33575000Y23585000D01*
X33575000Y25155000D01*
X33975000Y25155000D01*
X33975000Y23585000D01*
G37*
G36*
X34625000Y23585000D02*
G01*
X34619998Y23585000D01*
X34230004Y23585000D01*
X34225000Y23585000D01*
X34225000Y25155000D01*
X34625000Y25155000D01*
X34625000Y23585000D01*
G37*
G36*
X35275000Y23585000D02*
G01*
X35269998Y23585000D01*
X34880004Y23585000D01*
X34875000Y23585000D01*
X34875000Y25155000D01*
X35275000Y25155000D01*
X35275000Y23585000D01*
G37*
G36*
X35925000Y23585000D02*
G01*
X35919998Y23585000D01*
X35530004Y23585000D01*
X35525000Y23585000D01*
X35525000Y25155000D01*
X35925000Y25155000D01*
X35925000Y23585000D01*
G37*
G36*
X36575000Y23585000D02*
G01*
X36569998Y23585000D01*
X36180004Y23585000D01*
X36175000Y23585000D01*
X36175000Y25155000D01*
X36575000Y25155000D01*
X36575000Y23585000D01*
G37*
G36*
X37225000Y23585000D02*
G01*
X37219998Y23585000D01*
X36830004Y23585000D01*
X36825000Y23585000D01*
X36825000Y25155000D01*
X37225000Y25155000D01*
X37225000Y23585000D01*
G37*
G36*
X25750000Y26800000D02*
G01*
X25744998Y26800000D01*
X25355004Y26800000D01*
X25350000Y26800000D01*
X25350000Y27600000D01*
X25750000Y27600000D01*
X25750000Y26800000D01*
G37*
G36*
X26550000Y26800000D02*
G01*
X26544998Y26800000D01*
X26155004Y26800000D01*
X26150000Y26800000D01*
X26150000Y27600000D01*
X26550000Y27600000D01*
X26550000Y26800000D01*
G37*
G36*
X27350000Y26800000D02*
G01*
X27344998Y26800000D01*
X26955004Y26800000D01*
X26950000Y26800000D01*
X26950000Y27600000D01*
X27350000Y27600000D01*
X27350000Y26800000D01*
G37*
G36*
X28150000Y26800000D02*
G01*
X28144998Y26800000D01*
X27755004Y26800000D01*
X27750000Y26800000D01*
X27750000Y27600000D01*
X28150000Y27600000D01*
X28150000Y26800000D01*
G37*
G36*
X29500000Y26800000D02*
G01*
X29494998Y26800000D01*
X29105004Y26800000D01*
X29100000Y26800000D01*
X29100000Y27600000D01*
X29500000Y27600000D01*
X29500000Y26800000D01*
G37*
G36*
X30300000Y26800000D02*
G01*
X30294998Y26800000D01*
X29905004Y26800000D01*
X29900000Y26800000D01*
X29900000Y27600000D01*
X30300000Y27600000D01*
X30300000Y26800000D01*
G37*
G36*
X31100000Y26800000D02*
G01*
X31094998Y26800000D01*
X30705004Y26800000D01*
X30700000Y26800000D01*
X30700000Y27600000D01*
X31100000Y27600000D01*
X31100000Y26800000D01*
G37*
G36*
X31900000Y26800000D02*
G01*
X31894998Y26800000D01*
X31505004Y26800000D01*
X31500000Y26800000D01*
X31500000Y27600000D01*
X31900000Y27600000D01*
X31900000Y26800000D01*
G37*
G36*
X37000000Y26800000D02*
G01*
X36994998Y26800000D01*
X36605004Y26800000D01*
X36600000Y26800000D01*
X36600000Y27600000D01*
X37000000Y27600000D01*
X37000000Y26800000D01*
G37*
G36*
X37800000Y26800000D02*
G01*
X37794998Y26800000D01*
X37405004Y26800000D01*
X37400000Y26800000D01*
X37400000Y27600000D01*
X37800000Y27600000D01*
X37800000Y26800000D01*
G37*
G36*
X38600000Y26800000D02*
G01*
X38594998Y26800000D01*
X38205004Y26800000D01*
X38200000Y26800000D01*
X38200000Y27600000D01*
X38600000Y27600000D01*
X38600000Y26800000D01*
G37*
G36*
X39400000Y26800000D02*
G01*
X39394998Y26800000D01*
X39005004Y26800000D01*
X39000000Y26800000D01*
X39000000Y27600000D01*
X39400000Y27600000D01*
X39400000Y26800000D01*
G37*
G36*
X40750000Y26800000D02*
G01*
X40744998Y26800000D01*
X40355004Y26800000D01*
X40350000Y26800000D01*
X40350000Y27600000D01*
X40750000Y27600000D01*
X40750000Y26800000D01*
G37*
G36*
X41550000Y26800000D02*
G01*
X41544998Y26800000D01*
X41155004Y26800000D01*
X41150000Y26800000D01*
X41150000Y27600000D01*
X41550000Y27600000D01*
X41550000Y26800000D01*
G37*
G36*
X42350000Y26800000D02*
G01*
X42344998Y26800000D01*
X41955004Y26800000D01*
X41950000Y26800000D01*
X41950000Y27600000D01*
X42350000Y27600000D01*
X42350000Y26800000D01*
G37*
G36*
X43150000Y26800000D02*
G01*
X43144998Y26800000D01*
X42755004Y26800000D01*
X42750000Y26800000D01*
X42750000Y27600000D01*
X43150000Y27600000D01*
X43150000Y26800000D01*
G37*
G36*
X33250000Y27800000D02*
G01*
X33244998Y27800000D01*
X32855004Y27800000D01*
X32850000Y27800000D01*
X32850000Y28600000D01*
X33250000Y28600000D01*
X33250000Y27800000D01*
G37*
G36*
X34050000Y27800000D02*
G01*
X34044998Y27800000D01*
X33655004Y27800000D01*
X33650000Y27800000D01*
X33650000Y28600000D01*
X34050000Y28600000D01*
X34050000Y27800000D01*
G37*
G36*
X34850000Y27800000D02*
G01*
X34844998Y27800000D01*
X34455004Y27800000D01*
X34450000Y27800000D01*
X34450000Y28600000D01*
X34850000Y28600000D01*
X34850000Y27800000D01*
G37*
G36*
X35650000Y27800000D02*
G01*
X35644998Y27800000D01*
X35255004Y27800000D01*
X35250000Y27800000D01*
X35250000Y28600000D01*
X35650000Y28600000D01*
X35650000Y27800000D01*
G37*
G36*
X17288388Y28631281D02*
G01*
X16616637Y27959530D01*
X16613099Y27963067D01*
X16613096Y27963070D01*
X15913069Y28663096D01*
X15913064Y28663102D01*
X15909530Y28666637D01*
X16581281Y29338388D01*
X17288388Y28631281D01*
G37*
G36*
X25750000Y28400000D02*
G01*
X25744998Y28400000D01*
X25355004Y28400000D01*
X25350000Y28400000D01*
X25350000Y29200000D01*
X25750000Y29200000D01*
X25750000Y28400000D01*
G37*
G36*
X26550000Y28400000D02*
G01*
X26544998Y28400000D01*
X26155004Y28400000D01*
X26150000Y28400000D01*
X26150000Y29200000D01*
X26550000Y29200000D01*
X26550000Y28400000D01*
G37*
G36*
X27350000Y28400000D02*
G01*
X27344998Y28400000D01*
X26955004Y28400000D01*
X26950000Y28400000D01*
X26950000Y29200000D01*
X27350000Y29200000D01*
X27350000Y28400000D01*
G37*
G36*
X28150000Y28400000D02*
G01*
X28144998Y28400000D01*
X27755004Y28400000D01*
X27750000Y28400000D01*
X27750000Y29200000D01*
X28150000Y29200000D01*
X28150000Y28400000D01*
G37*
G36*
X29500000Y28400000D02*
G01*
X29494998Y28400000D01*
X29105004Y28400000D01*
X29100000Y28400000D01*
X29100000Y29200000D01*
X29500000Y29200000D01*
X29500000Y28400000D01*
G37*
G36*
X30300000Y28400000D02*
G01*
X30294998Y28400000D01*
X29905004Y28400000D01*
X29900000Y28400000D01*
X29900000Y29200000D01*
X30300000Y29200000D01*
X30300000Y28400000D01*
G37*
G36*
X31100000Y28400000D02*
G01*
X31094998Y28400000D01*
X30705004Y28400000D01*
X30700000Y28400000D01*
X30700000Y29200000D01*
X31100000Y29200000D01*
X31100000Y28400000D01*
G37*
G36*
X31900000Y28400000D02*
G01*
X31894998Y28400000D01*
X31505004Y28400000D01*
X31500000Y28400000D01*
X31500000Y29200000D01*
X31900000Y29200000D01*
X31900000Y28400000D01*
G37*
G36*
X37000000Y28400000D02*
G01*
X36994998Y28400000D01*
X36605004Y28400000D01*
X36600000Y28400000D01*
X36600000Y29200000D01*
X37000000Y29200000D01*
X37000000Y28400000D01*
G37*
G36*
X37800000Y28400000D02*
G01*
X37794998Y28400000D01*
X37405004Y28400000D01*
X37400000Y28400000D01*
X37400000Y29200000D01*
X37800000Y29200000D01*
X37800000Y28400000D01*
G37*
G36*
X38600000Y28400000D02*
G01*
X38594998Y28400000D01*
X38205004Y28400000D01*
X38200000Y28400000D01*
X38200000Y29200000D01*
X38600000Y29200000D01*
X38600000Y28400000D01*
G37*
G36*
X39400000Y28400000D02*
G01*
X39394998Y28400000D01*
X39005004Y28400000D01*
X39000000Y28400000D01*
X39000000Y29200000D01*
X39400000Y29200000D01*
X39400000Y28400000D01*
G37*
G36*
X40750000Y28400000D02*
G01*
X40744998Y28400000D01*
X40355004Y28400000D01*
X40350000Y28400000D01*
X40350000Y29200000D01*
X40750000Y29200000D01*
X40750000Y28400000D01*
G37*
G36*
X41550000Y28400000D02*
G01*
X41544998Y28400000D01*
X41155004Y28400000D01*
X41150000Y28400000D01*
X41150000Y29200000D01*
X41550000Y29200000D01*
X41550000Y28400000D01*
G37*
G36*
X42350000Y28400000D02*
G01*
X42344998Y28400000D01*
X41955004Y28400000D01*
X41950000Y28400000D01*
X41950000Y29200000D01*
X42350000Y29200000D01*
X42350000Y28400000D01*
G37*
G36*
X43150000Y28400000D02*
G01*
X43144998Y28400000D01*
X42755004Y28400000D01*
X42750000Y28400000D01*
X42750000Y29200000D01*
X43150000Y29200000D01*
X43150000Y28400000D01*
G37*
G36*
X11040470Y29166637D02*
G01*
X11036929Y29163096D01*
X10336903Y28463069D01*
X10336899Y28463066D01*
X10333363Y28459530D01*
X10122717Y28670176D01*
X9665151Y29127741D01*
X9665148Y29127744D01*
X9661612Y29131281D01*
X9993401Y29463070D01*
X10365178Y29834848D01*
X10365181Y29834850D01*
X10368719Y29838388D01*
X11040470Y29166637D01*
G37*
G36*
X16288388Y29631281D02*
G01*
X15616637Y28959530D01*
X15613099Y28963067D01*
X15613096Y28963070D01*
X14913069Y29663096D01*
X14913064Y29663102D01*
X14909530Y29666637D01*
X15581281Y30338388D01*
X16288388Y29631281D01*
G37*
G36*
X18490470Y29833363D02*
G01*
X17818719Y29161612D01*
X17815181Y29165149D01*
X17815178Y29165152D01*
X17115151Y29865178D01*
X17115146Y29865184D01*
X17111612Y29868719D01*
X17783363Y30540470D01*
X18490470Y29833363D01*
G37*
G36*
X33250000Y29400000D02*
G01*
X33244998Y29400000D01*
X32855004Y29400000D01*
X32850000Y29400000D01*
X32850000Y30200000D01*
X33250000Y30200000D01*
X33250000Y29400000D01*
G37*
G36*
X34050000Y29400000D02*
G01*
X34044998Y29400000D01*
X33655004Y29400000D01*
X33650000Y29400000D01*
X33650000Y30200000D01*
X34050000Y30200000D01*
X34050000Y29400000D01*
G37*
G36*
X34850000Y29400000D02*
G01*
X34844998Y29400000D01*
X34455004Y29400000D01*
X34450000Y29400000D01*
X34450000Y30200000D01*
X34850000Y30200000D01*
X34850000Y29400000D01*
G37*
G36*
X35650000Y29400000D02*
G01*
X35644998Y29400000D01*
X35255004Y29400000D01*
X35250000Y29400000D01*
X35250000Y30200000D01*
X35650000Y30200000D01*
X35650000Y29400000D01*
G37*
G36*
X12040470Y30166637D02*
G01*
X12036929Y30163096D01*
X11336903Y29463069D01*
X11336899Y29463066D01*
X11333363Y29459530D01*
X11122717Y29670176D01*
X10665151Y30127741D01*
X10665148Y30127744D01*
X10661612Y30131281D01*
X10902589Y30372258D01*
X11365178Y30834848D01*
X11365181Y30834850D01*
X11368719Y30838388D01*
X12040470Y30166637D01*
G37*
G36*
X9838388Y30368719D02*
G01*
X9834847Y30365178D01*
X9134821Y29665151D01*
X9134817Y29665148D01*
X9131281Y29661612D01*
X8829823Y29963070D01*
X8463069Y30329823D01*
X8463066Y30329826D01*
X8459530Y30333363D01*
X8796343Y30670176D01*
X9163096Y31036930D01*
X9163099Y31036932D01*
X9166637Y31040470D01*
X9838388Y30368719D01*
G37*
G36*
X15288388Y30631281D02*
G01*
X14616637Y29959530D01*
X14613099Y29963067D01*
X14613096Y29963070D01*
X13913069Y30663096D01*
X13913064Y30663102D01*
X13909530Y30666637D01*
X14581281Y31338388D01*
X15288388Y30631281D01*
G37*
G36*
X17490470Y30833363D02*
G01*
X16818719Y30161612D01*
X16815181Y30165149D01*
X16815178Y30165152D01*
X16115151Y30865178D01*
X16115146Y30865184D01*
X16111612Y30868719D01*
X16783363Y31540470D01*
X17490470Y30833363D01*
G37*
G36*
X10838388Y31368719D02*
G01*
X10834847Y31365178D01*
X10134821Y30665151D01*
X10134817Y30665148D01*
X10131281Y30661612D01*
X9920635Y30872258D01*
X9463069Y31329823D01*
X9463066Y31329826D01*
X9459530Y31333363D01*
X9764907Y31638740D01*
X10163096Y32036930D01*
X10163099Y32036932D01*
X10166637Y32040470D01*
X10838388Y31368719D01*
G37*
G36*
X3286328Y32506823D02*
G01*
X3439566Y32453202D01*
X3577030Y32366828D01*
X3691828Y32252030D01*
X3778202Y32114566D01*
X3831823Y31961328D01*
X3850000Y31800000D01*
X3831823Y31638672D01*
X3778202Y31485434D01*
X3691828Y31347970D01*
X3577030Y31233172D01*
X3439566Y31146798D01*
X3286328Y31093177D01*
X3125000Y31075000D01*
X2963672Y31093177D01*
X2810434Y31146798D01*
X2672970Y31233172D01*
X2558172Y31347970D01*
X2471798Y31485434D01*
X2418177Y31638672D01*
X2400000Y31800000D01*
X2418177Y31961328D01*
X2471798Y32114566D01*
X2558172Y32252030D01*
X2672970Y32366828D01*
X2810434Y32453202D01*
X2963672Y32506823D01*
X3125000Y32525000D01*
X3286328Y32506823D01*
G37*
G36*
X16490470Y31833363D02*
G01*
X15818719Y31161612D01*
X15815181Y31165149D01*
X15815178Y31165152D01*
X15115151Y31865178D01*
X15115146Y31865184D01*
X15111612Y31868719D01*
X15783363Y32540470D01*
X16490470Y31833363D01*
G37*
G36*
X13036328Y33156823D02*
G01*
X13189566Y33103202D01*
X13327030Y33016828D01*
X13441828Y32902030D01*
X13528202Y32764566D01*
X13581823Y32611328D01*
X13600000Y32450000D01*
X13581823Y32288672D01*
X13528202Y32135434D01*
X13441828Y31997970D01*
X13327030Y31883172D01*
X13189566Y31796798D01*
X13036328Y31743177D01*
X12875000Y31725000D01*
X12713672Y31743177D01*
X12560434Y31796798D01*
X12422970Y31883172D01*
X12308172Y31997970D01*
X12221798Y32135434D01*
X12168177Y32288672D01*
X12150000Y32450000D01*
X12168177Y32611328D01*
X12221798Y32764566D01*
X12308172Y32902030D01*
X12422970Y33016828D01*
X12560434Y33103202D01*
X12713672Y33156823D01*
X12875000Y33175000D01*
X13036328Y33156823D01*
G37*
G36*
X40300000Y34050000D02*
G01*
X40294999Y34050000D01*
X39005004Y34050000D01*
X39000000Y34050000D01*
X39000000Y37450000D01*
X40300000Y37450000D01*
X40300000Y34050000D01*
G37*
G36*
X49000000Y34050000D02*
G01*
X48994999Y34050000D01*
X47705004Y34050000D01*
X47700000Y34050000D01*
X47700000Y37450000D01*
X49000000Y37450000D01*
X49000000Y34050000D01*
G37*
G36*
X10315825Y35520078D02*
G01*
X10356362Y35520078D01*
X10390498Y35511664D01*
X10425132Y35507762D01*
X10469930Y35492086D01*
X10514358Y35481136D01*
X10540630Y35467347D01*
X10567729Y35457865D01*
X10613528Y35429087D01*
X10658444Y35405514D01*
X10676491Y35389525D01*
X10695657Y35377483D01*
X10738931Y35334208D01*
X10780245Y35297608D01*
X10790747Y35282392D01*
X10802483Y35270657D01*
X10839376Y35211940D01*
X10872683Y35163688D01*
X10877231Y35151694D01*
X10882865Y35142729D01*
X10909504Y35066597D01*
X10930386Y35011538D01*
X10931244Y35004469D01*
X10932762Y35000132D01*
X10945529Y34886816D01*
X10950000Y34850000D01*
X10945530Y34813187D01*
X10932762Y34699867D01*
X10931244Y34695529D01*
X10930386Y34688462D01*
X10909509Y34633414D01*
X10882865Y34557270D01*
X10877230Y34548302D01*
X10872683Y34536312D01*
X10839383Y34488069D01*
X10802483Y34429342D01*
X10790745Y34417604D01*
X10780245Y34402392D01*
X10738940Y34365799D01*
X10695657Y34322516D01*
X10676487Y34310471D01*
X10658444Y34294486D01*
X10613538Y34270917D01*
X10567729Y34242134D01*
X10540624Y34232649D01*
X10514358Y34218864D01*
X10469940Y34207916D01*
X10425132Y34192237D01*
X10390490Y34188333D01*
X10356362Y34179922D01*
X10315835Y34179922D01*
X10275000Y34175321D01*
X10234165Y34179922D01*
X10193638Y34179922D01*
X10159510Y34188333D01*
X10124867Y34192237D01*
X10080056Y34207917D01*
X10035642Y34218864D01*
X10009377Y34232648D01*
X9982270Y34242134D01*
X9936455Y34270920D01*
X9891556Y34294486D01*
X9873515Y34310468D01*
X9854342Y34322516D01*
X9811050Y34365807D01*
X9769755Y34402392D01*
X9759257Y34417600D01*
X9747516Y34429342D01*
X9710605Y34488085D01*
X9677317Y34536312D01*
X9672771Y34548298D01*
X9667134Y34557270D01*
X9640477Y34633448D01*
X9619614Y34688462D01*
X9618756Y34695524D01*
X9617237Y34699867D01*
X9604455Y34813301D01*
X9600000Y34850000D01*
X9604456Y34886701D01*
X9617237Y35000132D01*
X9618756Y35004473D01*
X9619614Y35011538D01*
X9640482Y35066563D01*
X9667134Y35142729D01*
X9672770Y35151698D01*
X9677317Y35163688D01*
X9710612Y35211924D01*
X9747516Y35270657D01*
X9759254Y35282395D01*
X9769755Y35297608D01*
X9811059Y35334200D01*
X9854342Y35377483D01*
X9873511Y35389527D01*
X9891556Y35405514D01*
X9936465Y35429084D01*
X9982270Y35457865D01*
X10009371Y35467348D01*
X10035642Y35481136D01*
X10080065Y35492085D01*
X10124867Y35507762D01*
X10159502Y35511664D01*
X10193638Y35520078D01*
X10234173Y35520078D01*
X10274999Y35524678D01*
X10315825Y35520078D01*
G37*
G36*
X10315825Y38320078D02*
G01*
X10356362Y38320078D01*
X10390498Y38311664D01*
X10425132Y38307762D01*
X10469930Y38292086D01*
X10514358Y38281136D01*
X10540630Y38267347D01*
X10567729Y38257865D01*
X10613528Y38229087D01*
X10658444Y38205514D01*
X10676491Y38189525D01*
X10695657Y38177483D01*
X10738931Y38134208D01*
X10780245Y38097608D01*
X10790747Y38082392D01*
X10802483Y38070657D01*
X10839376Y38011940D01*
X10872683Y37963688D01*
X10877231Y37951694D01*
X10882865Y37942729D01*
X10909504Y37866597D01*
X10930386Y37811538D01*
X10931244Y37804469D01*
X10932762Y37800132D01*
X10945529Y37686816D01*
X10950000Y37650000D01*
X10945530Y37613187D01*
X10932762Y37499867D01*
X10931244Y37495529D01*
X10930386Y37488462D01*
X10909509Y37433414D01*
X10882865Y37357270D01*
X10877230Y37348302D01*
X10872683Y37336312D01*
X10839383Y37288069D01*
X10802483Y37229342D01*
X10790745Y37217604D01*
X10780245Y37202392D01*
X10738940Y37165799D01*
X10695657Y37122516D01*
X10676487Y37110471D01*
X10658444Y37094486D01*
X10613538Y37070917D01*
X10567729Y37042134D01*
X10540624Y37032649D01*
X10514358Y37018864D01*
X10469940Y37007916D01*
X10425132Y36992237D01*
X10390490Y36988333D01*
X10356362Y36979922D01*
X10315835Y36979922D01*
X10275000Y36975321D01*
X10234165Y36979922D01*
X10193638Y36979922D01*
X10159510Y36988333D01*
X10124867Y36992237D01*
X10080056Y37007917D01*
X10035642Y37018864D01*
X10009377Y37032648D01*
X9982270Y37042134D01*
X9936455Y37070920D01*
X9891556Y37094486D01*
X9873515Y37110468D01*
X9854342Y37122516D01*
X9811050Y37165807D01*
X9769755Y37202392D01*
X9759257Y37217600D01*
X9747516Y37229342D01*
X9710605Y37288085D01*
X9677317Y37336312D01*
X9672771Y37348298D01*
X9667134Y37357270D01*
X9640477Y37433448D01*
X9619614Y37488462D01*
X9618756Y37495524D01*
X9617237Y37499867D01*
X9604455Y37613301D01*
X9600000Y37650000D01*
X9604456Y37686701D01*
X9617237Y37800132D01*
X9618756Y37804473D01*
X9619614Y37811538D01*
X9640482Y37866563D01*
X9667134Y37942729D01*
X9672770Y37951698D01*
X9677317Y37963688D01*
X9710612Y38011924D01*
X9747516Y38070657D01*
X9759254Y38082395D01*
X9769755Y38097608D01*
X9811059Y38134200D01*
X9854342Y38177483D01*
X9873511Y38189527D01*
X9891556Y38205514D01*
X9936465Y38229084D01*
X9982270Y38257865D01*
X10009371Y38267348D01*
X10035642Y38281136D01*
X10080065Y38292085D01*
X10124867Y38307762D01*
X10159502Y38311664D01*
X10193638Y38320078D01*
X10234173Y38320078D01*
X10274999Y38324678D01*
X10315825Y38320078D01*
G37*
G36*
X1750000Y38175000D02*
G01*
X1744998Y38175000D01*
X755004Y38175000D01*
X750000Y38175000D01*
X750000Y39125000D01*
X1750000Y39125000D01*
X1750000Y38175000D01*
G37*
G36*
X13036328Y40756823D02*
G01*
X13189566Y40703202D01*
X13327030Y40616828D01*
X13441828Y40502030D01*
X13528202Y40364566D01*
X13581823Y40211328D01*
X13600000Y40050000D01*
X13581823Y39888672D01*
X13528202Y39735434D01*
X13441828Y39597970D01*
X13327030Y39483172D01*
X13189566Y39396798D01*
X13036328Y39343177D01*
X12875000Y39325000D01*
X12713672Y39343177D01*
X12560434Y39396798D01*
X12422970Y39483172D01*
X12308172Y39597970D01*
X12221798Y39735434D01*
X12168177Y39888672D01*
X12150000Y40050000D01*
X12168177Y40211328D01*
X12221798Y40364566D01*
X12308172Y40502030D01*
X12422970Y40616828D01*
X12560434Y40703202D01*
X12713672Y40756823D01*
X12875000Y40775000D01*
X13036328Y40756823D01*
G37*
G36*
X1750000Y39875000D02*
G01*
X1744998Y39875000D01*
X755004Y39875000D01*
X750000Y39875000D01*
X750000Y40825000D01*
X1750000Y40825000D01*
X1750000Y39875000D01*
G37*
G36*
X3286328Y41406823D02*
G01*
X3439566Y41353202D01*
X3577030Y41266828D01*
X3691828Y41152030D01*
X3778202Y41014566D01*
X3831823Y40861328D01*
X3850000Y40700000D01*
X3831823Y40538672D01*
X3778202Y40385434D01*
X3691828Y40247970D01*
X3577030Y40133172D01*
X3439566Y40046798D01*
X3286328Y39993177D01*
X3125000Y39975000D01*
X2963672Y39993177D01*
X2810434Y40046798D01*
X2672970Y40133172D01*
X2558172Y40247970D01*
X2471798Y40385434D01*
X2418177Y40538672D01*
X2400000Y40700000D01*
X2418177Y40861328D01*
X2471798Y41014566D01*
X2558172Y41152030D01*
X2672970Y41266828D01*
X2810434Y41353202D01*
X2963672Y41406823D01*
X3125000Y41425000D01*
X3286328Y41406823D01*
G37*
G36*
X43375000Y40750000D02*
G01*
X43369998Y40750000D01*
X42430004Y40750000D01*
X42425000Y40750000D01*
X42425000Y41750000D01*
X43375000Y41750000D01*
X43375000Y40750000D01*
G37*
G36*
X45075000Y40750000D02*
G01*
X45069998Y40750000D01*
X44130004Y40750000D01*
X44125000Y40750000D01*
X44125000Y41750000D01*
X45075000Y41750000D01*
X45075000Y40750000D01*
G37*
G36*
X40900000Y40800000D02*
G01*
X40894998Y40800000D01*
X40105004Y40800000D01*
X40100000Y40800000D01*
X40100000Y41700000D01*
X40900000Y41700000D01*
X40900000Y40800000D01*
G37*
G36*
X10625000Y41500000D02*
G01*
X10619998Y41500000D01*
X9680004Y41500000D01*
X9675000Y41500000D01*
X9675000Y42500000D01*
X10625000Y42500000D01*
X10625000Y41500000D01*
G37*
G36*
X12325000Y41500000D02*
G01*
X12319998Y41500000D01*
X11380004Y41500000D01*
X11375000Y41500000D01*
X11375000Y42500000D01*
X12325000Y42500000D01*
X12325000Y41500000D01*
G37*
G36*
X19048402Y44458779D02*
G01*
X19067500Y44400000D01*
X19067500Y44396000D01*
X19067500Y44029757D01*
X19097257Y44000000D01*
X19162496Y44000000D01*
X19167500Y44000000D01*
X19167500Y42400000D01*
X19162496Y42400000D01*
X18772504Y42400000D01*
X18767500Y42400000D01*
X18767500Y44000000D01*
X18837743Y44000000D01*
X18867500Y44029757D01*
X18867500Y44396000D01*
X18867500Y44400000D01*
X18868734Y44403799D01*
X18868735Y44403803D01*
X18885052Y44454021D01*
X18886598Y44458779D01*
X18936598Y44495106D01*
X18998402Y44495106D01*
X19048402Y44458779D01*
G37*
G36*
X19683402Y44458779D02*
G01*
X19702500Y44400000D01*
X19702500Y44396000D01*
X19702500Y44029757D01*
X19732257Y44000000D01*
X19797496Y44000000D01*
X19802500Y44000000D01*
X19802500Y42400000D01*
X19797496Y42400000D01*
X19407504Y42400000D01*
X19402500Y42400000D01*
X19402500Y44000000D01*
X19472743Y44000000D01*
X19502500Y44029757D01*
X19502500Y44396000D01*
X19502500Y44400000D01*
X19503734Y44403799D01*
X19503735Y44403803D01*
X19520052Y44454021D01*
X19521598Y44458779D01*
X19571598Y44495106D01*
X19633402Y44495106D01*
X19683402Y44458779D01*
G37*
G36*
X20318402Y44458779D02*
G01*
X20337500Y44400000D01*
X20337500Y44396000D01*
X20337500Y44029757D01*
X20367257Y44000000D01*
X20432496Y44000000D01*
X20437500Y44000000D01*
X20437500Y42400000D01*
X20432496Y42400000D01*
X20042504Y42400000D01*
X20037500Y42400000D01*
X20037500Y44000000D01*
X20107743Y44000000D01*
X20137500Y44029757D01*
X20137500Y44396000D01*
X20137500Y44400000D01*
X20138734Y44403799D01*
X20138735Y44403803D01*
X20155052Y44454021D01*
X20156598Y44458779D01*
X20206598Y44495106D01*
X20268402Y44495106D01*
X20318402Y44458779D01*
G37*
G36*
X20953402Y44458779D02*
G01*
X20972500Y44400000D01*
X20972500Y44396000D01*
X20972500Y44029757D01*
X21002257Y44000000D01*
X21067496Y44000000D01*
X21072500Y44000000D01*
X21072500Y42400000D01*
X21067496Y42400000D01*
X20677504Y42400000D01*
X20672500Y42400000D01*
X20672500Y44000000D01*
X20742743Y44000000D01*
X20772500Y44029757D01*
X20772500Y44396000D01*
X20772500Y44400000D01*
X20773734Y44403799D01*
X20773735Y44403803D01*
X20790052Y44454021D01*
X20791598Y44458779D01*
X20841598Y44495106D01*
X20903402Y44495106D01*
X20953402Y44458779D01*
G37*
G36*
X21588402Y44458779D02*
G01*
X21607500Y44400000D01*
X21607500Y44396000D01*
X21607500Y44029757D01*
X21637257Y44000000D01*
X21702496Y44000000D01*
X21707500Y44000000D01*
X21707500Y42400000D01*
X21702496Y42400000D01*
X21312504Y42400000D01*
X21307500Y42400000D01*
X21307500Y44000000D01*
X21377743Y44000000D01*
X21407500Y44029757D01*
X21407500Y44396000D01*
X21407500Y44400000D01*
X21408734Y44403799D01*
X21408735Y44403803D01*
X21425052Y44454021D01*
X21426598Y44458779D01*
X21476598Y44495106D01*
X21538402Y44495106D01*
X21588402Y44458779D01*
G37*
G36*
X22223402Y44458779D02*
G01*
X22242500Y44400000D01*
X22242500Y44396000D01*
X22242500Y44029757D01*
X22272257Y44000000D01*
X22337496Y44000000D01*
X22342500Y44000000D01*
X22342500Y42400000D01*
X22337496Y42400000D01*
X21947504Y42400000D01*
X21942500Y42400000D01*
X21942500Y44000000D01*
X22012743Y44000000D01*
X22042500Y44029757D01*
X22042500Y44396000D01*
X22042500Y44400000D01*
X22043734Y44403799D01*
X22043735Y44403803D01*
X22060052Y44454021D01*
X22061598Y44458779D01*
X22111598Y44495106D01*
X22173402Y44495106D01*
X22223402Y44458779D01*
G37*
G36*
X22858402Y44458779D02*
G01*
X22877500Y44400000D01*
X22877500Y44396000D01*
X22877500Y44029757D01*
X22907257Y44000000D01*
X22972496Y44000000D01*
X22977500Y44000000D01*
X22977500Y42400000D01*
X22972496Y42400000D01*
X22582504Y42400000D01*
X22577500Y42400000D01*
X22577500Y44000000D01*
X22647743Y44000000D01*
X22677500Y44029757D01*
X22677500Y44396000D01*
X22677500Y44400000D01*
X22678734Y44403799D01*
X22678735Y44403803D01*
X22695052Y44454021D01*
X22696598Y44458779D01*
X22746598Y44495106D01*
X22808402Y44495106D01*
X22858402Y44458779D01*
G37*
G36*
X23493402Y44458779D02*
G01*
X23512500Y44400000D01*
X23512500Y44396000D01*
X23512500Y44029757D01*
X23542257Y44000000D01*
X23607496Y44000000D01*
X23612500Y44000000D01*
X23612500Y42400000D01*
X23607496Y42400000D01*
X23217504Y42400000D01*
X23212500Y42400000D01*
X23212500Y44000000D01*
X23282743Y44000000D01*
X23312500Y44029757D01*
X23312500Y44396000D01*
X23312500Y44400000D01*
X23313734Y44403799D01*
X23313735Y44403803D01*
X23330052Y44454021D01*
X23331598Y44458779D01*
X23381598Y44495106D01*
X23443402Y44495106D01*
X23493402Y44458779D01*
G37*
G36*
X24128402Y44458779D02*
G01*
X24147500Y44400000D01*
X24147500Y44396000D01*
X24147500Y44029757D01*
X24177257Y44000000D01*
X24242496Y44000000D01*
X24247500Y44000000D01*
X24247500Y42400000D01*
X24242496Y42400000D01*
X23852504Y42400000D01*
X23847500Y42400000D01*
X23847500Y44000000D01*
X23917743Y44000000D01*
X23947500Y44029757D01*
X23947500Y44396000D01*
X23947500Y44400000D01*
X23948734Y44403799D01*
X23948735Y44403803D01*
X23965052Y44454021D01*
X23966598Y44458779D01*
X24016598Y44495106D01*
X24078402Y44495106D01*
X24128402Y44458779D01*
G37*
G36*
X24763402Y44458779D02*
G01*
X24782500Y44400000D01*
X24782500Y44396000D01*
X24782500Y44029757D01*
X24812257Y44000000D01*
X24877496Y44000000D01*
X24882500Y44000000D01*
X24882500Y42400000D01*
X24877496Y42400000D01*
X24487504Y42400000D01*
X24482500Y42400000D01*
X24482500Y44000000D01*
X24552743Y44000000D01*
X24582500Y44029757D01*
X24582500Y44396000D01*
X24582500Y44400000D01*
X24583734Y44403799D01*
X24583735Y44403803D01*
X24600052Y44454021D01*
X24601598Y44458779D01*
X24651598Y44495106D01*
X24713402Y44495106D01*
X24763402Y44458779D01*
G37*
G36*
X25398402Y44458779D02*
G01*
X25417500Y44400000D01*
X25417500Y44396000D01*
X25417500Y44029757D01*
X25447257Y44000000D01*
X25512496Y44000000D01*
X25517500Y44000000D01*
X25517500Y42400000D01*
X25512496Y42400000D01*
X25122504Y42400000D01*
X25117500Y42400000D01*
X25117500Y44000000D01*
X25187743Y44000000D01*
X25217500Y44029757D01*
X25217500Y44396000D01*
X25217500Y44400000D01*
X25218734Y44403799D01*
X25218735Y44403803D01*
X25235052Y44454021D01*
X25236598Y44458779D01*
X25286598Y44495106D01*
X25348402Y44495106D01*
X25398402Y44458779D01*
G37*
G36*
X26033402Y44458779D02*
G01*
X26052500Y44400000D01*
X26052500Y44396000D01*
X26052500Y44029757D01*
X26082257Y44000000D01*
X26147496Y44000000D01*
X26152500Y44000000D01*
X26152500Y42400000D01*
X26147496Y42400000D01*
X25757504Y42400000D01*
X25752500Y42400000D01*
X25752500Y44000000D01*
X25822743Y44000000D01*
X25852500Y44029757D01*
X25852500Y44396000D01*
X25852500Y44400000D01*
X25853734Y44403799D01*
X25853735Y44403803D01*
X25870052Y44454021D01*
X25871598Y44458779D01*
X25921598Y44495106D01*
X25983402Y44495106D01*
X26033402Y44458779D01*
G37*
G36*
X26668402Y44458779D02*
G01*
X26687500Y44400000D01*
X26687500Y44396000D01*
X26687500Y44029757D01*
X26717257Y44000000D01*
X26782496Y44000000D01*
X26787500Y44000000D01*
X26787500Y42400000D01*
X26782496Y42400000D01*
X26392504Y42400000D01*
X26387500Y42400000D01*
X26387500Y44000000D01*
X26457743Y44000000D01*
X26487500Y44029757D01*
X26487500Y44396000D01*
X26487500Y44400000D01*
X26488734Y44403799D01*
X26488735Y44403803D01*
X26505052Y44454021D01*
X26506598Y44458779D01*
X26556598Y44495106D01*
X26618402Y44495106D01*
X26668402Y44458779D01*
G37*
G36*
X27303402Y44458779D02*
G01*
X27322500Y44400000D01*
X27322500Y44396000D01*
X27322500Y44029757D01*
X27352257Y44000000D01*
X27417496Y44000000D01*
X27422500Y44000000D01*
X27422500Y42400000D01*
X27417496Y42400000D01*
X27027504Y42400000D01*
X27022500Y42400000D01*
X27022500Y44000000D01*
X27092743Y44000000D01*
X27122500Y44029757D01*
X27122500Y44396000D01*
X27122500Y44400000D01*
X27123734Y44403799D01*
X27123735Y44403803D01*
X27140052Y44454021D01*
X27141598Y44458779D01*
X27191598Y44495106D01*
X27253402Y44495106D01*
X27303402Y44458779D01*
G37*
G36*
X27938402Y44458779D02*
G01*
X27957500Y44400000D01*
X27957500Y44396000D01*
X27957500Y44029757D01*
X27987257Y44000000D01*
X28052496Y44000000D01*
X28057500Y44000000D01*
X28057500Y42400000D01*
X28052496Y42400000D01*
X27662504Y42400000D01*
X27657500Y42400000D01*
X27657500Y44000000D01*
X27727743Y44000000D01*
X27757500Y44029757D01*
X27757500Y44396000D01*
X27757500Y44400000D01*
X27758734Y44403799D01*
X27758735Y44403803D01*
X27775052Y44454021D01*
X27776598Y44458779D01*
X27826598Y44495106D01*
X27888402Y44495106D01*
X27938402Y44458779D01*
G37*
G36*
X28573402Y44458779D02*
G01*
X28592500Y44400000D01*
X28592500Y44396000D01*
X28592500Y44029757D01*
X28622257Y44000000D01*
X28687496Y44000000D01*
X28692500Y44000000D01*
X28692500Y42400000D01*
X28687496Y42400000D01*
X28297504Y42400000D01*
X28292500Y42400000D01*
X28292500Y44000000D01*
X28362743Y44000000D01*
X28392500Y44029757D01*
X28392500Y44396000D01*
X28392500Y44400000D01*
X28393734Y44403799D01*
X28393735Y44403803D01*
X28410052Y44454021D01*
X28411598Y44458779D01*
X28461598Y44495106D01*
X28523402Y44495106D01*
X28573402Y44458779D01*
G37*
G36*
X29208402Y44458779D02*
G01*
X29227500Y44400000D01*
X29227500Y44396000D01*
X29227500Y44029757D01*
X29257257Y44000000D01*
X29322496Y44000000D01*
X29327500Y44000000D01*
X29327500Y42400000D01*
X29322496Y42400000D01*
X28932504Y42400000D01*
X28927500Y42400000D01*
X28927500Y44000000D01*
X28997743Y44000000D01*
X29027500Y44029757D01*
X29027500Y44396000D01*
X29027500Y44400000D01*
X29028734Y44403799D01*
X29028735Y44403803D01*
X29045052Y44454021D01*
X29046598Y44458779D01*
X29096598Y44495106D01*
X29158402Y44495106D01*
X29208402Y44458779D01*
G37*
G36*
X29843402Y44458779D02*
G01*
X29862500Y44400000D01*
X29862500Y44396000D01*
X29862500Y44029757D01*
X29892257Y44000000D01*
X29957496Y44000000D01*
X29962500Y44000000D01*
X29962500Y42400000D01*
X29957496Y42400000D01*
X29567504Y42400000D01*
X29562500Y42400000D01*
X29562500Y44000000D01*
X29632743Y44000000D01*
X29662500Y44029757D01*
X29662500Y44396000D01*
X29662500Y44400000D01*
X29663734Y44403799D01*
X29663735Y44403803D01*
X29680052Y44454021D01*
X29681598Y44458779D01*
X29731598Y44495106D01*
X29793402Y44495106D01*
X29843402Y44458779D01*
G37*
G36*
X30478402Y44458779D02*
G01*
X30497500Y44400000D01*
X30497500Y44396000D01*
X30497500Y44029757D01*
X30527257Y44000000D01*
X30592496Y44000000D01*
X30597500Y44000000D01*
X30597500Y42400000D01*
X30592496Y42400000D01*
X30202504Y42400000D01*
X30197500Y42400000D01*
X30197500Y44000000D01*
X30267743Y44000000D01*
X30297500Y44029757D01*
X30297500Y44396000D01*
X30297500Y44400000D01*
X30298734Y44403799D01*
X30298735Y44403803D01*
X30315052Y44454021D01*
X30316598Y44458779D01*
X30366598Y44495106D01*
X30428402Y44495106D01*
X30478402Y44458779D01*
G37*
G36*
X31113402Y44458779D02*
G01*
X31132500Y44400000D01*
X31132500Y44396000D01*
X31132500Y44029757D01*
X31162257Y44000000D01*
X31227496Y44000000D01*
X31232500Y44000000D01*
X31232500Y42400000D01*
X31227496Y42400000D01*
X30837504Y42400000D01*
X30832500Y42400000D01*
X30832500Y44000000D01*
X30902743Y44000000D01*
X30932500Y44029757D01*
X30932500Y44396000D01*
X30932500Y44400000D01*
X30933734Y44403799D01*
X30933735Y44403803D01*
X30950052Y44454021D01*
X30951598Y44458779D01*
X31001598Y44495106D01*
X31063402Y44495106D01*
X31113402Y44458779D01*
G37*
G36*
X39950000Y42800000D02*
G01*
X39944998Y42800000D01*
X39155004Y42800000D01*
X39150000Y42800000D01*
X39150000Y43700000D01*
X39950000Y43700000D01*
X39950000Y42800000D01*
G37*
G36*
X41850000Y42800000D02*
G01*
X41844998Y42800000D01*
X41055004Y42800000D01*
X41050000Y42800000D01*
X41050000Y43700000D01*
X41850000Y43700000D01*
X41850000Y42800000D01*
G37*
G36*
X12650000Y43000000D02*
G01*
X12644999Y43000000D01*
X10855004Y43000000D01*
X10850000Y43000000D01*
X10850000Y45000000D01*
X12650000Y45000000D01*
X12650000Y43000000D01*
G37*
G36*
X4088957Y48994924D02*
G01*
X4174434Y48994924D01*
X4253494Y48985683D01*
X4335885Y48981056D01*
X4430234Y48965025D01*
X4520945Y48954423D01*
X4592629Y48937433D01*
X4667539Y48924706D01*
X4765911Y48896365D01*
X4860410Y48873969D01*
X4924041Y48850808D01*
X4990814Y48831572D01*
X5091661Y48789799D01*
X5188239Y48754648D01*
X5243373Y48726958D01*
X5301620Y48702832D01*
X5403203Y48646688D01*
X5500000Y48598076D01*
X5546505Y48567489D01*
X5596046Y48540109D01*
X5696435Y48468878D01*
X5791476Y48406370D01*
X5829495Y48374467D01*
X5870419Y48345431D01*
X5967610Y48258574D01*
X6058725Y48182121D01*
X6088617Y48150437D01*
X6121263Y48121263D01*
X6213177Y48018411D01*
X6298133Y47928363D01*
X6320509Y47898306D01*
X6345431Y47870419D01*
X6429930Y47751327D01*
X6506463Y47648527D01*
X6522148Y47621358D01*
X6540109Y47596046D01*
X6615055Y47460439D01*
X6680898Y47346398D01*
X6690902Y47323204D01*
X6702832Y47301620D01*
X6766103Y47148868D01*
X6819078Y47026060D01*
X6824566Y47007725D01*
X6831572Y46990814D01*
X6881142Y46818751D01*
X6919135Y46691848D01*
X6921394Y46679033D01*
X6924706Y46667539D01*
X6958707Y46467416D01*
X6979715Y46348279D01*
X6980113Y46341429D01*
X6981056Y46335885D01*
X6997761Y46038434D01*
X7000000Y46000000D01*
X6997761Y45961568D01*
X6981056Y45664114D01*
X6980113Y45658568D01*
X6979715Y45651721D01*
X6958712Y45532609D01*
X6924706Y45332460D01*
X6921394Y45320964D01*
X6919135Y45308152D01*
X6881149Y45181273D01*
X6831572Y45009185D01*
X6824565Y44992270D01*
X6819078Y44973940D01*
X6766114Y44851155D01*
X6702832Y44698379D01*
X6690900Y44676790D01*
X6680898Y44653602D01*
X6615068Y44539583D01*
X6540109Y44403953D01*
X6522145Y44378635D01*
X6506463Y44351473D01*
X6429945Y44248692D01*
X6345431Y44129580D01*
X6320504Y44101687D01*
X6298133Y44071637D01*
X6213194Y43981606D01*
X6121263Y43878736D01*
X6088611Y43849556D01*
X6058725Y43817879D01*
X5967629Y43741440D01*
X5870419Y43654568D01*
X5829487Y43625525D01*
X5791476Y43593630D01*
X5696454Y43531133D01*
X5596046Y43459890D01*
X5546495Y43432504D01*
X5500000Y43401924D01*
X5403223Y43353321D01*
X5301620Y43297167D01*
X5243361Y43273035D01*
X5188239Y43245352D01*
X5091681Y43210207D01*
X4990814Y43168427D01*
X4924028Y43149186D01*
X4860410Y43126031D01*
X4765930Y43103639D01*
X4667539Y43075293D01*
X4592615Y43062562D01*
X4520945Y43045577D01*
X4430253Y43034976D01*
X4335885Y43018943D01*
X4253478Y43014314D01*
X4174434Y43005076D01*
X4088975Y43005076D01*
X4000000Y43000079D01*
X3911025Y43005076D01*
X3825566Y43005076D01*
X3746522Y43014314D01*
X3664114Y43018943D01*
X3569743Y43034977D01*
X3479055Y43045577D01*
X3407387Y43062562D01*
X3332460Y43075293D01*
X3234063Y43103640D01*
X3139590Y43126031D01*
X3075975Y43149184D01*
X3009185Y43168427D01*
X2908310Y43210210D01*
X2811761Y43245352D01*
X2756642Y43273033D01*
X2698379Y43297167D01*
X2596765Y43353326D01*
X2500000Y43401924D01*
X2453509Y43432501D01*
X2403953Y43459890D01*
X2303531Y43531142D01*
X2208524Y43593630D01*
X2170517Y43625521D01*
X2129580Y43654568D01*
X2032354Y43741454D01*
X1941275Y43817879D01*
X1911394Y43849550D01*
X1878736Y43878736D01*
X1786786Y43981626D01*
X1701867Y44071637D01*
X1679500Y44101680D01*
X1654568Y44129580D01*
X1570032Y44248720D01*
X1493537Y44351473D01*
X1477858Y44378628D01*
X1459890Y44403953D01*
X1384907Y44539623D01*
X1319102Y44653602D01*
X1309102Y44676782D01*
X1297167Y44698379D01*
X1233860Y44851214D01*
X1180922Y44973940D01*
X1175436Y44992262D01*
X1168427Y45009185D01*
X1118823Y45181362D01*
X1080865Y45308152D01*
X1078607Y45320955D01*
X1075293Y45332460D01*
X1041259Y45532765D01*
X1020285Y45651721D01*
X1019886Y45658559D01*
X1018943Y45664114D01*
X1002210Y45962048D01*
X1000000Y46000000D01*
X1002210Y46037954D01*
X1018943Y46335885D01*
X1019886Y46341438D01*
X1020285Y46348279D01*
X1041264Y46467260D01*
X1075293Y46667539D01*
X1078606Y46679042D01*
X1080865Y46691848D01*
X1118831Y46818663D01*
X1168427Y46990814D01*
X1175435Y47007734D01*
X1180922Y47026060D01*
X1233871Y47148809D01*
X1297167Y47301620D01*
X1309100Y47323212D01*
X1319102Y47346398D01*
X1384920Y47460398D01*
X1459890Y47596046D01*
X1477855Y47621366D01*
X1493537Y47648527D01*
X1570048Y47751299D01*
X1654568Y47870419D01*
X1679495Y47898313D01*
X1701867Y47928363D01*
X1786803Y48018390D01*
X1878736Y48121263D01*
X1911388Y48150442D01*
X1941275Y48182121D01*
X2032372Y48258561D01*
X2129580Y48345431D01*
X2170509Y48374472D01*
X2208524Y48406370D01*
X2303550Y48468869D01*
X2403953Y48540109D01*
X2453499Y48567492D01*
X2500000Y48598076D01*
X2596785Y48646683D01*
X2698379Y48702832D01*
X2756631Y48726960D01*
X2811761Y48754648D01*
X2908330Y48789796D01*
X3009185Y48831572D01*
X3075962Y48850810D01*
X3139590Y48873969D01*
X3234083Y48896364D01*
X3332460Y48924706D01*
X3407372Y48937434D01*
X3479055Y48954423D01*
X3569762Y48965025D01*
X3664114Y48981056D01*
X3746506Y48985683D01*
X3825566Y48994924D01*
X3911043Y48994924D01*
X4000000Y48999920D01*
X4088957Y48994924D01*
G37*
G36*
X46088957Y48994924D02*
G01*
X46174434Y48994924D01*
X46253494Y48985683D01*
X46335885Y48981056D01*
X46430234Y48965025D01*
X46520945Y48954423D01*
X46592629Y48937433D01*
X46667539Y48924706D01*
X46765911Y48896365D01*
X46860410Y48873969D01*
X46924041Y48850808D01*
X46990814Y48831572D01*
X47091661Y48789799D01*
X47188239Y48754648D01*
X47243373Y48726958D01*
X47301620Y48702832D01*
X47403203Y48646688D01*
X47500000Y48598076D01*
X47546505Y48567489D01*
X47596046Y48540109D01*
X47696435Y48468878D01*
X47791476Y48406370D01*
X47829495Y48374467D01*
X47870419Y48345431D01*
X47967610Y48258574D01*
X48058725Y48182121D01*
X48088617Y48150437D01*
X48121263Y48121263D01*
X48213177Y48018411D01*
X48298133Y47928363D01*
X48320509Y47898306D01*
X48345431Y47870419D01*
X48429930Y47751327D01*
X48506463Y47648527D01*
X48522148Y47621358D01*
X48540109Y47596046D01*
X48615055Y47460439D01*
X48680898Y47346398D01*
X48690902Y47323204D01*
X48702832Y47301620D01*
X48766103Y47148868D01*
X48819078Y47026060D01*
X48824566Y47007725D01*
X48831572Y46990814D01*
X48881142Y46818751D01*
X48919135Y46691848D01*
X48921394Y46679033D01*
X48924706Y46667539D01*
X48958707Y46467416D01*
X48979715Y46348279D01*
X48980113Y46341429D01*
X48981056Y46335885D01*
X48997761Y46038434D01*
X49000000Y46000000D01*
X48997761Y45961568D01*
X48981056Y45664114D01*
X48980113Y45658568D01*
X48979715Y45651721D01*
X48958712Y45532609D01*
X48924706Y45332460D01*
X48921394Y45320964D01*
X48919135Y45308152D01*
X48881149Y45181273D01*
X48831572Y45009185D01*
X48824565Y44992270D01*
X48819078Y44973940D01*
X48766114Y44851155D01*
X48702832Y44698379D01*
X48690900Y44676790D01*
X48680898Y44653602D01*
X48615068Y44539583D01*
X48540109Y44403953D01*
X48522145Y44378635D01*
X48506463Y44351473D01*
X48429945Y44248692D01*
X48345431Y44129580D01*
X48320504Y44101687D01*
X48298133Y44071637D01*
X48213194Y43981606D01*
X48121263Y43878736D01*
X48088611Y43849556D01*
X48058725Y43817879D01*
X47967629Y43741440D01*
X47870419Y43654568D01*
X47829487Y43625525D01*
X47791476Y43593630D01*
X47696454Y43531133D01*
X47596046Y43459890D01*
X47546495Y43432504D01*
X47500000Y43401924D01*
X47403223Y43353321D01*
X47301620Y43297167D01*
X47243361Y43273035D01*
X47188239Y43245352D01*
X47091681Y43210207D01*
X46990814Y43168427D01*
X46924028Y43149186D01*
X46860410Y43126031D01*
X46765930Y43103639D01*
X46667539Y43075293D01*
X46592615Y43062562D01*
X46520945Y43045577D01*
X46430253Y43034976D01*
X46335885Y43018943D01*
X46253478Y43014314D01*
X46174434Y43005076D01*
X46088974Y43005076D01*
X45999999Y43000079D01*
X45911024Y43005076D01*
X45825566Y43005076D01*
X45746522Y43014314D01*
X45664114Y43018943D01*
X45569743Y43034977D01*
X45479055Y43045577D01*
X45407387Y43062562D01*
X45332460Y43075293D01*
X45234063Y43103640D01*
X45139590Y43126031D01*
X45075975Y43149184D01*
X45009185Y43168427D01*
X44908310Y43210210D01*
X44811761Y43245352D01*
X44756642Y43273033D01*
X44698379Y43297167D01*
X44596765Y43353326D01*
X44500000Y43401924D01*
X44453509Y43432501D01*
X44403953Y43459890D01*
X44303531Y43531142D01*
X44208524Y43593630D01*
X44170517Y43625521D01*
X44129580Y43654568D01*
X44032354Y43741454D01*
X43941275Y43817879D01*
X43911394Y43849550D01*
X43878736Y43878736D01*
X43786786Y43981626D01*
X43701867Y44071637D01*
X43679500Y44101680D01*
X43654568Y44129580D01*
X43570032Y44248720D01*
X43493537Y44351473D01*
X43477858Y44378628D01*
X43459890Y44403953D01*
X43384907Y44539623D01*
X43319102Y44653602D01*
X43309102Y44676782D01*
X43297167Y44698379D01*
X43233860Y44851214D01*
X43180922Y44973940D01*
X43175436Y44992262D01*
X43168427Y45009185D01*
X43118823Y45181362D01*
X43080865Y45308152D01*
X43078607Y45320955D01*
X43075293Y45332460D01*
X43041259Y45532765D01*
X43020285Y45651721D01*
X43019886Y45658559D01*
X43018943Y45664114D01*
X43002235Y45961623D01*
X43000000Y46000000D01*
X43002235Y46038379D01*
X43018943Y46335885D01*
X43019886Y46341438D01*
X43020285Y46348279D01*
X43041264Y46467260D01*
X43075293Y46667539D01*
X43078606Y46679042D01*
X43080865Y46691848D01*
X43118831Y46818663D01*
X43168427Y46990814D01*
X43175435Y47007734D01*
X43180922Y47026060D01*
X43233871Y47148809D01*
X43297167Y47301620D01*
X43309100Y47323212D01*
X43319102Y47346398D01*
X43384920Y47460398D01*
X43459890Y47596046D01*
X43477855Y47621366D01*
X43493537Y47648527D01*
X43570048Y47751299D01*
X43654568Y47870419D01*
X43679495Y47898313D01*
X43701867Y47928363D01*
X43786803Y48018390D01*
X43878736Y48121263D01*
X43911388Y48150442D01*
X43941275Y48182121D01*
X44032372Y48258561D01*
X44129580Y48345431D01*
X44170509Y48374472D01*
X44208524Y48406370D01*
X44303550Y48468869D01*
X44403953Y48540109D01*
X44453499Y48567492D01*
X44500000Y48598076D01*
X44596785Y48646683D01*
X44698379Y48702832D01*
X44756631Y48726960D01*
X44811761Y48754648D01*
X44908330Y48789796D01*
X45009185Y48831572D01*
X45075962Y48850810D01*
X45139590Y48873969D01*
X45234083Y48896364D01*
X45332460Y48924706D01*
X45407372Y48937434D01*
X45479055Y48954423D01*
X45569762Y48965025D01*
X45664114Y48981056D01*
X45746506Y48985683D01*
X45825566Y48994924D01*
X45911043Y48994924D01*
X46000000Y48999920D01*
X46088957Y48994924D01*
G37*
G36*
X18084860Y44304786D02*
G01*
X18191413Y44236309D01*
X18274358Y44140585D01*
X18326974Y44025371D01*
X18345000Y43900000D01*
X18326974Y43774629D01*
X18274358Y43659415D01*
X18191413Y43563691D01*
X18084860Y43495214D01*
X17963330Y43459529D01*
X17836670Y43459529D01*
X17715140Y43495214D01*
X17608587Y43563691D01*
X17525642Y43659415D01*
X17473026Y43774629D01*
X17455000Y43900000D01*
X17473026Y44025371D01*
X17525642Y44140585D01*
X17608587Y44236309D01*
X17715140Y44304786D01*
X17836670Y44340471D01*
X17963330Y44340471D01*
X18084860Y44304786D01*
G37*
G36*
X32284860Y44304786D02*
G01*
X32391413Y44236309D01*
X32474358Y44140585D01*
X32526974Y44025371D01*
X32545000Y43900000D01*
X32526974Y43774629D01*
X32474358Y43659415D01*
X32391413Y43563691D01*
X32284860Y43495214D01*
X32163330Y43459529D01*
X32036670Y43459529D01*
X31915140Y43495214D01*
X31808587Y43563691D01*
X31725642Y43659415D01*
X31673026Y43774629D01*
X31655000Y43900000D01*
X31673026Y44025371D01*
X31725642Y44140585D01*
X31808587Y44236309D01*
X31915140Y44304786D01*
X32036670Y44340471D01*
X32163330Y44340471D01*
X32284860Y44304786D01*
G37*
G36*
X39875000Y44250000D02*
G01*
X39869998Y44250000D01*
X38930004Y44250000D01*
X38925000Y44250000D01*
X38925000Y45250000D01*
X39875000Y45250000D01*
X39875000Y44250000D01*
G37*
G36*
X41575000Y44250000D02*
G01*
X41569998Y44250000D01*
X40630004Y44250000D01*
X40625000Y44250000D01*
X40625000Y45250000D01*
X41575000Y45250000D01*
X41575000Y44250000D01*
G37*
G36*
X19167500Y46000000D02*
G01*
X19162496Y46000000D01*
X19097257Y46000000D01*
X19067500Y45970243D01*
X19067500Y45600000D01*
X19048402Y45541221D01*
X18998402Y45504894D01*
X18995403Y45504894D01*
X18941602Y45504894D01*
X18936598Y45504894D01*
X18932550Y45507835D01*
X18890645Y45538280D01*
X18890643Y45538282D01*
X18886598Y45541221D01*
X18885052Y45545978D01*
X18868735Y45596196D01*
X18868734Y45596201D01*
X18867500Y45600000D01*
X18867500Y45970243D01*
X18837743Y46000000D01*
X18767500Y46000000D01*
X18767500Y47600000D01*
X19167500Y47600000D01*
X19167500Y46000000D01*
G37*
G36*
X19802500Y46000000D02*
G01*
X19797496Y46000000D01*
X19732257Y46000000D01*
X19702500Y45970243D01*
X19702500Y45600000D01*
X19683402Y45541221D01*
X19633402Y45504894D01*
X19630403Y45504894D01*
X19576602Y45504894D01*
X19571598Y45504894D01*
X19567550Y45507835D01*
X19525645Y45538280D01*
X19525643Y45538282D01*
X19521598Y45541221D01*
X19520052Y45545978D01*
X19503735Y45596196D01*
X19503734Y45596201D01*
X19502500Y45600000D01*
X19502500Y45970243D01*
X19472743Y46000000D01*
X19402500Y46000000D01*
X19402500Y47600000D01*
X19802500Y47600000D01*
X19802500Y46000000D01*
G37*
G36*
X20437500Y46000000D02*
G01*
X20432496Y46000000D01*
X20367257Y46000000D01*
X20337500Y45970243D01*
X20337500Y45600000D01*
X20318402Y45541221D01*
X20268402Y45504894D01*
X20265403Y45504894D01*
X20211602Y45504894D01*
X20206598Y45504894D01*
X20202550Y45507835D01*
X20160645Y45538280D01*
X20160643Y45538282D01*
X20156598Y45541221D01*
X20155052Y45545978D01*
X20138735Y45596196D01*
X20138734Y45596201D01*
X20137500Y45600000D01*
X20137500Y45970243D01*
X20107743Y46000000D01*
X20037500Y46000000D01*
X20037500Y47600000D01*
X20437500Y47600000D01*
X20437500Y46000000D01*
G37*
G36*
X21072500Y46000000D02*
G01*
X21067496Y46000000D01*
X21002257Y46000000D01*
X20972500Y45970243D01*
X20972500Y45600000D01*
X20953402Y45541221D01*
X20903402Y45504894D01*
X20900403Y45504894D01*
X20846602Y45504894D01*
X20841598Y45504894D01*
X20837550Y45507835D01*
X20795645Y45538280D01*
X20795643Y45538282D01*
X20791598Y45541221D01*
X20790052Y45545978D01*
X20773735Y45596196D01*
X20773734Y45596201D01*
X20772500Y45600000D01*
X20772500Y45970243D01*
X20742743Y46000000D01*
X20672500Y46000000D01*
X20672500Y47600000D01*
X21072500Y47600000D01*
X21072500Y46000000D01*
G37*
G36*
X21707500Y46000000D02*
G01*
X21702496Y46000000D01*
X21637257Y46000000D01*
X21607500Y45970243D01*
X21607500Y45600000D01*
X21588402Y45541221D01*
X21538402Y45504894D01*
X21535403Y45504894D01*
X21481602Y45504894D01*
X21476598Y45504894D01*
X21472550Y45507835D01*
X21430645Y45538280D01*
X21430643Y45538282D01*
X21426598Y45541221D01*
X21425052Y45545978D01*
X21408735Y45596196D01*
X21408734Y45596201D01*
X21407500Y45600000D01*
X21407500Y45970243D01*
X21377743Y46000000D01*
X21307500Y46000000D01*
X21307500Y47600000D01*
X21707500Y47600000D01*
X21707500Y46000000D01*
G37*
G36*
X22342500Y46000000D02*
G01*
X22337496Y46000000D01*
X22272257Y46000000D01*
X22242500Y45970243D01*
X22242500Y45600000D01*
X22223402Y45541221D01*
X22173402Y45504894D01*
X22170403Y45504894D01*
X22116602Y45504894D01*
X22111598Y45504894D01*
X22107550Y45507835D01*
X22065645Y45538280D01*
X22065643Y45538282D01*
X22061598Y45541221D01*
X22060052Y45545978D01*
X22043735Y45596196D01*
X22043734Y45596201D01*
X22042500Y45600000D01*
X22042500Y45970243D01*
X22012743Y46000000D01*
X21942500Y46000000D01*
X21942500Y47600000D01*
X22342500Y47600000D01*
X22342500Y46000000D01*
G37*
G36*
X22977500Y46000000D02*
G01*
X22972496Y46000000D01*
X22907257Y46000000D01*
X22877500Y45970243D01*
X22877500Y45600000D01*
X22858402Y45541221D01*
X22808402Y45504894D01*
X22805403Y45504894D01*
X22751602Y45504894D01*
X22746598Y45504894D01*
X22742550Y45507835D01*
X22700645Y45538280D01*
X22700643Y45538282D01*
X22696598Y45541221D01*
X22695052Y45545978D01*
X22678735Y45596196D01*
X22678734Y45596201D01*
X22677500Y45600000D01*
X22677500Y45970243D01*
X22647743Y46000000D01*
X22577500Y46000000D01*
X22577500Y47600000D01*
X22977500Y47600000D01*
X22977500Y46000000D01*
G37*
G36*
X23612500Y46000000D02*
G01*
X23607496Y46000000D01*
X23542257Y46000000D01*
X23512500Y45970243D01*
X23512500Y45600000D01*
X23493402Y45541221D01*
X23443402Y45504894D01*
X23440403Y45504894D01*
X23386602Y45504894D01*
X23381598Y45504894D01*
X23377550Y45507835D01*
X23335645Y45538280D01*
X23335643Y45538282D01*
X23331598Y45541221D01*
X23330052Y45545978D01*
X23313735Y45596196D01*
X23313734Y45596201D01*
X23312500Y45600000D01*
X23312500Y45970243D01*
X23282743Y46000000D01*
X23212500Y46000000D01*
X23212500Y47600000D01*
X23612500Y47600000D01*
X23612500Y46000000D01*
G37*
G36*
X24247500Y46000000D02*
G01*
X24242496Y46000000D01*
X24177257Y46000000D01*
X24147500Y45970243D01*
X24147500Y45600000D01*
X24128402Y45541221D01*
X24078402Y45504894D01*
X24075403Y45504894D01*
X24021602Y45504894D01*
X24016598Y45504894D01*
X24012550Y45507835D01*
X23970645Y45538280D01*
X23970643Y45538282D01*
X23966598Y45541221D01*
X23965052Y45545978D01*
X23948735Y45596196D01*
X23948734Y45596201D01*
X23947500Y45600000D01*
X23947500Y45970243D01*
X23917743Y46000000D01*
X23847500Y46000000D01*
X23847500Y47600000D01*
X24247500Y47600000D01*
X24247500Y46000000D01*
G37*
G36*
X24882500Y46000000D02*
G01*
X24877496Y46000000D01*
X24812257Y46000000D01*
X24782500Y45970243D01*
X24782500Y45600000D01*
X24763402Y45541221D01*
X24713402Y45504894D01*
X24710403Y45504894D01*
X24656602Y45504894D01*
X24651598Y45504894D01*
X24647550Y45507835D01*
X24605645Y45538280D01*
X24605643Y45538282D01*
X24601598Y45541221D01*
X24600052Y45545978D01*
X24583735Y45596196D01*
X24583734Y45596201D01*
X24582500Y45600000D01*
X24582500Y45970243D01*
X24552743Y46000000D01*
X24482500Y46000000D01*
X24482500Y47600000D01*
X24882500Y47600000D01*
X24882500Y46000000D01*
G37*
G36*
X25517500Y46000000D02*
G01*
X25512496Y46000000D01*
X25447257Y46000000D01*
X25417500Y45970243D01*
X25417500Y45600000D01*
X25398402Y45541221D01*
X25348402Y45504894D01*
X25345403Y45504894D01*
X25291602Y45504894D01*
X25286598Y45504894D01*
X25282550Y45507835D01*
X25240645Y45538280D01*
X25240643Y45538282D01*
X25236598Y45541221D01*
X25235052Y45545978D01*
X25218735Y45596196D01*
X25218734Y45596201D01*
X25217500Y45600000D01*
X25217500Y45970243D01*
X25187743Y46000000D01*
X25117500Y46000000D01*
X25117500Y47600000D01*
X25517500Y47600000D01*
X25517500Y46000000D01*
G37*
G36*
X26152500Y46000000D02*
G01*
X26147496Y46000000D01*
X26082257Y46000000D01*
X26052500Y45970243D01*
X26052500Y45600000D01*
X26033402Y45541221D01*
X25983402Y45504894D01*
X25980403Y45504894D01*
X25926602Y45504894D01*
X25921598Y45504894D01*
X25917550Y45507835D01*
X25875645Y45538280D01*
X25875643Y45538282D01*
X25871598Y45541221D01*
X25870052Y45545978D01*
X25853735Y45596196D01*
X25853734Y45596201D01*
X25852500Y45600000D01*
X25852500Y45970243D01*
X25822743Y46000000D01*
X25752500Y46000000D01*
X25752500Y47600000D01*
X26152500Y47600000D01*
X26152500Y46000000D01*
G37*
G36*
X26787500Y46000000D02*
G01*
X26782496Y46000000D01*
X26717257Y46000000D01*
X26687500Y45970243D01*
X26687500Y45600000D01*
X26668402Y45541221D01*
X26618402Y45504894D01*
X26615403Y45504894D01*
X26561602Y45504894D01*
X26556598Y45504894D01*
X26552550Y45507835D01*
X26510645Y45538280D01*
X26510643Y45538282D01*
X26506598Y45541221D01*
X26505052Y45545978D01*
X26488735Y45596196D01*
X26488734Y45596201D01*
X26487500Y45600000D01*
X26487500Y45970243D01*
X26457743Y46000000D01*
X26387500Y46000000D01*
X26387500Y47600000D01*
X26787500Y47600000D01*
X26787500Y46000000D01*
G37*
G36*
X27422500Y46000000D02*
G01*
X27417496Y46000000D01*
X27352257Y46000000D01*
X27322500Y45970243D01*
X27322500Y45600000D01*
X27303402Y45541221D01*
X27253402Y45504894D01*
X27250403Y45504894D01*
X27196602Y45504894D01*
X27191598Y45504894D01*
X27187550Y45507835D01*
X27145645Y45538280D01*
X27145643Y45538282D01*
X27141598Y45541221D01*
X27140052Y45545978D01*
X27123735Y45596196D01*
X27123734Y45596201D01*
X27122500Y45600000D01*
X27122500Y45970243D01*
X27092743Y46000000D01*
X27022500Y46000000D01*
X27022500Y47600000D01*
X27422500Y47600000D01*
X27422500Y46000000D01*
G37*
G36*
X28057500Y46000000D02*
G01*
X28052496Y46000000D01*
X27987257Y46000000D01*
X27957500Y45970243D01*
X27957500Y45600000D01*
X27938402Y45541221D01*
X27888402Y45504894D01*
X27885403Y45504894D01*
X27831602Y45504894D01*
X27826598Y45504894D01*
X27822550Y45507835D01*
X27780645Y45538280D01*
X27780643Y45538282D01*
X27776598Y45541221D01*
X27775052Y45545978D01*
X27758735Y45596196D01*
X27758734Y45596201D01*
X27757500Y45600000D01*
X27757500Y45970243D01*
X27727743Y46000000D01*
X27657500Y46000000D01*
X27657500Y47600000D01*
X28057500Y47600000D01*
X28057500Y46000000D01*
G37*
G36*
X28692500Y46000000D02*
G01*
X28687496Y46000000D01*
X28622257Y46000000D01*
X28592500Y45970243D01*
X28592500Y45600000D01*
X28573402Y45541221D01*
X28523402Y45504894D01*
X28520403Y45504894D01*
X28466602Y45504894D01*
X28461598Y45504894D01*
X28457550Y45507835D01*
X28415645Y45538280D01*
X28415643Y45538282D01*
X28411598Y45541221D01*
X28410052Y45545978D01*
X28393735Y45596196D01*
X28393734Y45596201D01*
X28392500Y45600000D01*
X28392500Y45970243D01*
X28362743Y46000000D01*
X28292500Y46000000D01*
X28292500Y47600000D01*
X28692500Y47600000D01*
X28692500Y46000000D01*
G37*
G36*
X29327500Y46000000D02*
G01*
X29322496Y46000000D01*
X29257257Y46000000D01*
X29227500Y45970243D01*
X29227500Y45600000D01*
X29208402Y45541221D01*
X29158402Y45504894D01*
X29155403Y45504894D01*
X29101602Y45504894D01*
X29096598Y45504894D01*
X29092550Y45507835D01*
X29050645Y45538280D01*
X29050643Y45538282D01*
X29046598Y45541221D01*
X29045052Y45545978D01*
X29028735Y45596196D01*
X29028734Y45596201D01*
X29027500Y45600000D01*
X29027500Y45970243D01*
X28997743Y46000000D01*
X28927500Y46000000D01*
X28927500Y47600000D01*
X29327500Y47600000D01*
X29327500Y46000000D01*
G37*
G36*
X29962500Y46000000D02*
G01*
X29957496Y46000000D01*
X29892257Y46000000D01*
X29862500Y45970243D01*
X29862500Y45600000D01*
X29843402Y45541221D01*
X29793402Y45504894D01*
X29790403Y45504894D01*
X29736602Y45504894D01*
X29731598Y45504894D01*
X29727550Y45507835D01*
X29685645Y45538280D01*
X29685643Y45538282D01*
X29681598Y45541221D01*
X29680052Y45545978D01*
X29663735Y45596196D01*
X29663734Y45596201D01*
X29662500Y45600000D01*
X29662500Y45970243D01*
X29632743Y46000000D01*
X29562500Y46000000D01*
X29562500Y47600000D01*
X29962500Y47600000D01*
X29962500Y46000000D01*
G37*
G36*
X30597500Y46000000D02*
G01*
X30592496Y46000000D01*
X30527257Y46000000D01*
X30497500Y45970243D01*
X30497500Y45600000D01*
X30478402Y45541221D01*
X30428402Y45504894D01*
X30425403Y45504894D01*
X30371602Y45504894D01*
X30366598Y45504894D01*
X30362550Y45507835D01*
X30320645Y45538280D01*
X30320643Y45538282D01*
X30316598Y45541221D01*
X30315052Y45545978D01*
X30298735Y45596196D01*
X30298734Y45596201D01*
X30297500Y45600000D01*
X30297500Y45970243D01*
X30267743Y46000000D01*
X30197500Y46000000D01*
X30197500Y47600000D01*
X30597500Y47600000D01*
X30597500Y46000000D01*
G37*
G36*
X31232500Y46000000D02*
G01*
X31227496Y46000000D01*
X31162257Y46000000D01*
X31132500Y45970243D01*
X31132500Y45600000D01*
X31113402Y45541221D01*
X31063402Y45504894D01*
X31060403Y45504894D01*
X31006602Y45504894D01*
X31001598Y45504894D01*
X30997550Y45507835D01*
X30955645Y45538280D01*
X30955643Y45538282D01*
X30951598Y45541221D01*
X30950052Y45545978D01*
X30933735Y45596196D01*
X30933734Y45596201D01*
X30932500Y45600000D01*
X30932500Y45970243D01*
X30902743Y46000000D01*
X30832500Y46000000D01*
X30832500Y47600000D01*
X31232500Y47600000D01*
X31232500Y46000000D01*
G37*
G36*
X18084860Y46504786D02*
G01*
X18191413Y46436309D01*
X18274358Y46340585D01*
X18326974Y46225371D01*
X18345000Y46100000D01*
X18326974Y45974629D01*
X18274358Y45859415D01*
X18191413Y45763691D01*
X18084860Y45695214D01*
X17963330Y45659529D01*
X17836670Y45659529D01*
X17715140Y45695214D01*
X17608587Y45763691D01*
X17525642Y45859415D01*
X17473026Y45974629D01*
X17455000Y46100000D01*
X17473026Y46225371D01*
X17525642Y46340585D01*
X17608587Y46436309D01*
X17715140Y46504786D01*
X17836670Y46540471D01*
X17963330Y46540471D01*
X18084860Y46504786D01*
G37*
G36*
X32284860Y46504786D02*
G01*
X32391413Y46436309D01*
X32474358Y46340585D01*
X32526974Y46225371D01*
X32545000Y46100000D01*
X32526974Y45974629D01*
X32474358Y45859415D01*
X32391413Y45763691D01*
X32284860Y45695214D01*
X32163330Y45659529D01*
X32036670Y45659529D01*
X31915140Y45695214D01*
X31808587Y45763691D01*
X31725642Y45859415D01*
X31673026Y45974629D01*
X31655000Y46100000D01*
X31673026Y46225371D01*
X31725642Y46340585D01*
X31808587Y46436309D01*
X31915140Y46504786D01*
X32036670Y46540471D01*
X32163330Y46540471D01*
X32284860Y46504786D01*
G37*
G36*
X12650000Y47500000D02*
G01*
X12644999Y47500000D01*
X10855004Y47500000D01*
X10850000Y47500000D01*
X10850000Y49500000D01*
X12650000Y49500000D01*
X12650000Y47500000D01*
G37*
M02*
