%TF.GenerationSoftware,KiCad,Pcbnew,7.0.7*%
%TF.CreationDate,2024-01-21T18:01:16-05:00*%
%TF.ProjectId,Forerunner-Cubic-Mainboard,466f7265-7275-46e6-9e65-722d43756269,rev?*%
%TF.SameCoordinates,Original*%
%TF.FileFunction,Legend,Top*%
%TF.FilePolarity,Positive*%
%FSLAX46Y46*%
G04 Gerber Fmt 4.6, Leading zero omitted, Abs format (unit mm)*
G04 Created by KiCad (PCBNEW 7.0.7) date 2024-01-21 18:01:16*
%MOMM*%
%LPD*%
G01*
G04 APERTURE LIST*
%ADD10C,0.150000*%
%ADD11C,0.120000*%
%ADD12C,0.250000*%
%ADD13C,0.010000*%
%ADD14C,0.125000*%
%ADD15C,0.310000*%
G04 APERTURE END LIST*
D10*
X9540139Y3200000D02*
G75*
G03*
X9540139Y3200000I-90139J0D01*
G01*
X7716666Y9245180D02*
X7716666Y8530895D01*
X7716666Y8530895D02*
X7669047Y8388038D01*
X7669047Y8388038D02*
X7573809Y8292800D01*
X7573809Y8292800D02*
X7430952Y8245180D01*
X7430952Y8245180D02*
X7335714Y8245180D01*
X8716666Y8245180D02*
X8145238Y8245180D01*
X8430952Y8245180D02*
X8430952Y9245180D01*
X8430952Y9245180D02*
X8335714Y9102323D01*
X8335714Y9102323D02*
X8240476Y9007085D01*
X8240476Y9007085D02*
X8145238Y8959466D01*
X10766666Y42295180D02*
X10766666Y41580895D01*
X10766666Y41580895D02*
X10719047Y41438038D01*
X10719047Y41438038D02*
X10623809Y41342800D01*
X10623809Y41342800D02*
X10480952Y41295180D01*
X10480952Y41295180D02*
X10385714Y41295180D01*
X11195238Y42199942D02*
X11242857Y42247561D01*
X11242857Y42247561D02*
X11338095Y42295180D01*
X11338095Y42295180D02*
X11576190Y42295180D01*
X11576190Y42295180D02*
X11671428Y42247561D01*
X11671428Y42247561D02*
X11719047Y42199942D01*
X11719047Y42199942D02*
X11766666Y42104704D01*
X11766666Y42104704D02*
X11766666Y42009466D01*
X11766666Y42009466D02*
X11719047Y41866609D01*
X11719047Y41866609D02*
X11147619Y41295180D01*
X11147619Y41295180D02*
X11766666Y41295180D01*
X33583333Y42787704D02*
X33583333Y42216276D01*
X33583333Y42216276D02*
X33545238Y42101990D01*
X33545238Y42101990D02*
X33469047Y42025800D01*
X33469047Y42025800D02*
X33354762Y41987704D01*
X33354762Y41987704D02*
X33278571Y41987704D01*
X34307143Y42521038D02*
X34307143Y41987704D01*
X34116667Y42825800D02*
X33926190Y42254371D01*
X33926190Y42254371D02*
X34421429Y42254371D01*
D11*
%TO.C,LP1*%
X7220000Y19960000D02*
X6820000Y19960000D01*
X7220000Y20360000D02*
X7220000Y19960000D01*
X7220000Y24640000D02*
X7220000Y25040000D01*
X7220000Y25040000D02*
X6820000Y25040000D01*
%TO.C,U8*%
X45825000Y25400000D02*
X44125000Y25400000D01*
X45825000Y22200000D02*
X44125000Y22200000D01*
D12*
X42825000Y24800000D02*
G75*
G03*
X42825000Y24800000I-100000J0D01*
G01*
D11*
%TO.C,C20*%
X8600000Y29600000D02*
X8900000Y29600000D01*
X8600000Y28600000D02*
X8900000Y28600000D01*
%TO.C,F2*%
X16100000Y49500000D02*
X16400000Y49500000D01*
X16100000Y48500000D02*
X16400000Y48500000D01*
%TO.C,SW1*%
X49250000Y8250000D02*
X49250000Y8350000D01*
X49250000Y8250000D02*
X48000000Y8250000D01*
X49250000Y11750000D02*
X49250000Y11650000D01*
X49250000Y11750000D02*
X48000000Y11750000D01*
X45500000Y8250000D02*
X44250000Y8250000D01*
X45500000Y11750000D02*
X44250000Y11750000D01*
X44250000Y8250000D02*
X44250000Y8350000D01*
X44250000Y11750000D02*
X44250000Y11650000D01*
D12*
X50100000Y8925000D02*
G75*
G03*
X50100000Y8925000I-100000J0D01*
G01*
D11*
%TO.C,R21*%
X6400000Y27000000D02*
X6100000Y27000000D01*
X6400000Y28000000D02*
X6100000Y28000000D01*
%TO.C,R27*%
X19152513Y30006066D02*
X19293934Y30147487D01*
X19647487Y29793934D02*
X19506066Y29652513D01*
%TO.C,MH3*%
X50000000Y4000000D02*
G75*
G03*
X50000000Y4000000I-4000000J0D01*
G01*
%TO.C,U5*%
X8600000Y3800000D02*
X9500000Y3800000D01*
X8600000Y3800000D02*
X8600000Y7800000D01*
X17400000Y3800000D02*
X16500000Y3800000D01*
X17400000Y3800000D02*
X17400000Y7800000D01*
X8600000Y7800000D02*
X9500000Y7800000D01*
X16500000Y7800000D02*
X17400000Y7800000D01*
D12*
X10242500Y1550000D02*
G75*
G03*
X10242500Y1550000I-100000J0D01*
G01*
D11*
%TO.C,R22*%
X6400000Y25500000D02*
X6100000Y25500000D01*
X6400000Y26500000D02*
X6100000Y26500000D01*
%TO.C,D8*%
X15200000Y38600000D02*
X15200000Y38300000D01*
X14200000Y38600000D02*
X14200000Y38300000D01*
%TO.C,R17*%
X15300000Y11200000D02*
X15300000Y10900000D01*
X14300000Y11200000D02*
X14300000Y10900000D01*
%TO.C,L2*%
X14350000Y49100000D02*
X13350000Y49100000D01*
X14350000Y49100000D02*
X14350000Y48100000D01*
X9150000Y49100000D02*
X10150000Y49100000D01*
X9150000Y49100000D02*
X9150000Y48100000D01*
X14350000Y43400000D02*
X14350000Y44400000D01*
X14350000Y43400000D02*
X13350000Y43400000D01*
X9150000Y43400000D02*
X9150000Y44400000D01*
X9150000Y43400000D02*
X10150000Y43400000D01*
%TO.C,R7*%
X44400000Y20750000D02*
X44100000Y20750000D01*
X44400000Y21750000D02*
X44100000Y21750000D01*
%TO.C,X1*%
X15183705Y21655025D02*
X15183705Y21937868D01*
X15466548Y21372183D02*
X15183705Y21655025D01*
X15183705Y21937868D02*
X15466548Y22220711D01*
X20133452Y22079289D02*
X20416295Y22362132D01*
X18012132Y24766295D02*
X17729289Y24483452D01*
X20416295Y22362132D02*
X20416295Y22644975D01*
X18294975Y24766295D02*
X18012132Y24766295D01*
X18577817Y24483452D02*
X18294975Y24766295D01*
X20416295Y22644975D02*
X20133452Y22927817D01*
X17464124Y19268540D02*
X17198959Y19533705D01*
X17729289Y19533705D01*
X17464124Y19268540D01*
G36*
X17464124Y19268540D02*
G01*
X17198959Y19533705D01*
X17729289Y19533705D01*
X17464124Y19268540D01*
G37*
%TO.C,MH4*%
X8000000Y4000000D02*
G75*
G03*
X8000000Y4000000I-4000000J0D01*
G01*
%TO.C,C22*%
X8600000Y31100000D02*
X8900000Y31100000D01*
X8600000Y30100000D02*
X8900000Y30100000D01*
%TO.C,R9*%
X25750000Y29400000D02*
X25750000Y29100000D01*
X24750000Y29400000D02*
X24750000Y29100000D01*
%TO.C,J1*%
X4650000Y17750000D02*
X3150000Y17750000D01*
X500000Y17750000D02*
X-750000Y17750000D01*
X-750000Y17750000D02*
X-750000Y8750000D01*
X4650000Y8750000D02*
X3150000Y8750000D01*
X500000Y8750000D02*
X-750000Y8750000D01*
D12*
X7600000Y16450000D02*
G75*
G03*
X7600000Y16450000I-100000J0D01*
G01*
D11*
%TO.C,C13*%
X10300000Y1850000D02*
X10700000Y1850000D01*
X10300000Y350000D02*
X10700000Y350000D01*
D13*
%TO.C,D6*%
X13600000Y1700000D02*
X13800000Y1700000D01*
X13800000Y1700000D02*
X13800000Y900000D01*
X13800000Y900000D02*
X13600000Y900000D01*
X13600000Y900000D02*
X13600000Y1700000D01*
G36*
X13600000Y1700000D02*
G01*
X13800000Y1700000D01*
X13800000Y900000D01*
X13600000Y900000D01*
X13600000Y1700000D01*
G37*
G36*
X13800000Y1425000D02*
G01*
X14050000Y1425000D01*
X14050000Y1175000D01*
X13800000Y1175000D01*
X13800000Y1425000D01*
G37*
D14*
X15260000Y1900000D02*
G75*
G03*
X15260000Y1900000I-60000J0D01*
G01*
D11*
%TO.C,R6*%
X44400000Y12500000D02*
X44100000Y12500000D01*
X44400000Y13500000D02*
X44100000Y13500000D01*
%TO.C,R28*%
X18302513Y30856066D02*
X18443934Y30997487D01*
X18797487Y30643934D02*
X18656066Y30502513D01*
%TO.C,R11*%
X44100000Y18250000D02*
X44400000Y18250000D01*
X44100000Y17250000D02*
X44400000Y17250000D01*
%TO.C,D2*%
X9150000Y10400000D02*
X8850000Y10400000D01*
X9150000Y11400000D02*
X8850000Y11400000D01*
%TO.C,R24*%
X17756066Y29547487D02*
X17897487Y29406066D01*
X17543934Y29052513D02*
X17402513Y29193934D01*
%TO.C,C25*%
X19900000Y26150000D02*
X19900000Y25850000D01*
X18900000Y26150000D02*
X18900000Y25850000D01*
D13*
%TO.C,D7*%
X2050000Y27900000D02*
X2250000Y27900000D01*
X2250000Y27900000D02*
X2250000Y27100000D01*
X2250000Y27100000D02*
X2050000Y27100000D01*
X2050000Y27100000D02*
X2050000Y27900000D01*
G36*
X2050000Y27900000D02*
G01*
X2250000Y27900000D01*
X2250000Y27100000D01*
X2050000Y27100000D01*
X2050000Y27900000D01*
G37*
G36*
X2250000Y27625000D02*
G01*
X2500000Y27625000D01*
X2500000Y27375000D01*
X2250000Y27375000D01*
X2250000Y27625000D01*
G37*
D14*
X3710000Y28100000D02*
G75*
G03*
X3710000Y28100000I-60000J0D01*
G01*
D11*
%TO.C,R31*%
X44375000Y25800000D02*
X44075000Y25800000D01*
X44375000Y26800000D02*
X44075000Y26800000D01*
%TO.C,U6*%
X13250000Y21259872D02*
X13596948Y21606820D01*
X17393180Y25403052D02*
X17740128Y25750000D01*
X17740128Y25750000D02*
X17393180Y26096948D01*
X12903052Y21606820D02*
X13250000Y21259872D01*
X13596948Y29893180D02*
X13250000Y30240128D01*
X8759872Y25750000D02*
X9106820Y25403052D01*
X9106820Y26096948D02*
X8759872Y25750000D01*
X13250000Y30240128D02*
X12903052Y29893180D01*
D12*
X14410660Y21507359D02*
G75*
G03*
X14410660Y21507359I-100000J0D01*
G01*
D11*
%TO.C,Q3*%
X47500000Y17450000D02*
X48150000Y17450000D01*
X48150000Y17450000D02*
X48150000Y17150000D01*
X48150000Y14450000D02*
X47500000Y14450000D01*
X48150000Y14450000D02*
X48150000Y14750000D01*
%TO.C,U7*%
X49000000Y37750000D02*
X48750000Y37750000D01*
X43750000Y37750000D02*
X43500000Y37750000D01*
X43500000Y37750000D02*
X43500000Y32250000D01*
X49000000Y32250000D02*
X49000000Y37750000D01*
X49000000Y32250000D02*
X48750000Y32250000D01*
X43750000Y32250000D02*
X43500000Y32250000D01*
D12*
X48255000Y40080000D02*
G75*
G03*
X48255000Y40080000I-100000J0D01*
G01*
D11*
%TO.C,C2*%
X43500000Y10200000D02*
X43500000Y9800000D01*
X42000000Y10200000D02*
X42000000Y9800000D01*
%TO.C,R8*%
X27250000Y29400000D02*
X27250000Y29100000D01*
X26250000Y29400000D02*
X26250000Y29100000D01*
%TO.C,MH1*%
X8000000Y46000000D02*
G75*
G03*
X8000000Y46000000I-4000000J0D01*
G01*
%TO.C,J2*%
X4250000Y40250000D02*
X11750000Y40250000D01*
X13000000Y39000000D02*
X13000000Y33500000D01*
X4250000Y32250000D02*
X11750000Y32250000D01*
D15*
X10405000Y33750000D02*
G75*
G03*
X10405000Y33750000I-155000J0D01*
G01*
D11*
%TO.C,C9*%
X9500000Y15250000D02*
X9100000Y15250000D01*
X9500000Y16750000D02*
X9100000Y16750000D01*
%TO.C,C19*%
X9339340Y21996446D02*
X9551472Y22208578D01*
X10046446Y21289340D02*
X10258578Y21501472D01*
%TO.C,R26*%
X20002513Y29156066D02*
X20143934Y29297487D01*
X20497487Y28943934D02*
X20356066Y28802513D01*
%TO.C,R20*%
X2100000Y26500000D02*
X2400000Y26500000D01*
X2100000Y25500000D02*
X2400000Y25500000D01*
%TO.C,L1*%
X15650000Y35750000D02*
X15350000Y35750000D01*
X15650000Y36750000D02*
X15350000Y36750000D01*
%TO.C,D9*%
X14200000Y33900000D02*
X14200000Y34200000D01*
X15200000Y33900000D02*
X15200000Y34200000D01*
%TO.C,R29*%
X17452513Y31706066D02*
X17593934Y31847487D01*
X17947487Y31493934D02*
X17806066Y31352513D01*
%TO.C,C18*%
X8339340Y22996446D02*
X8551472Y23208578D01*
X9046446Y22289340D02*
X9258578Y22501472D01*
%TO.C,D1*%
X1900000Y21500000D02*
X1900000Y23500000D01*
X4100000Y21500000D02*
X4100000Y23500000D01*
G36*
X1900000Y22600000D02*
G01*
X4100000Y22600000D01*
X4100000Y22850000D01*
X1900000Y22850000D01*
X1900000Y22600000D01*
G37*
D14*
X4330000Y23770000D02*
G75*
G03*
X4330000Y23770000I-60000J0D01*
G01*
D11*
%TO.C,U1*%
X40377000Y-37000D02*
X22123000Y-37000D01*
X40377000Y6290000D02*
X40377000Y-37000D01*
X40377000Y25040000D02*
X40377000Y25717000D01*
X40377000Y25717000D02*
X38000000Y25717000D01*
X22123000Y6290000D02*
X22123000Y-37000D01*
X22123000Y25040000D02*
X22123000Y25717000D01*
X22123000Y25717000D02*
X24500000Y25717000D01*
%TO.C,C26*%
X20702513Y31456066D02*
X20843934Y31597487D01*
X21197487Y31243934D02*
X21056066Y31102513D01*
%TO.C,C23*%
X15809619Y30852513D02*
X15597487Y30640381D01*
X15102513Y31559619D02*
X14890381Y31347487D01*
%TO.C,R32*%
X47375000Y25800000D02*
X47075000Y25800000D01*
X47375000Y26800000D02*
X47075000Y26800000D01*
%TO.C,C12*%
X12500000Y9850000D02*
X12100000Y9850000D01*
X12500000Y11350000D02*
X12100000Y11350000D01*
%TO.C,J4*%
X15775000Y47854000D02*
X34225000Y47854000D01*
X15775000Y43846000D02*
X15775000Y47854000D01*
X17475000Y42146000D02*
X15775000Y43846000D01*
X32525000Y42146000D02*
X17475000Y42146000D01*
X34225000Y47854000D02*
X34225000Y43846000D01*
X34225000Y43846000D02*
X32525000Y42146000D01*
D12*
X31132500Y41750000D02*
G75*
G03*
X31132500Y41750000I-100000J0D01*
G01*
D11*
%TO.C,R16*%
X16800000Y11200000D02*
X16800000Y10900000D01*
X15800000Y11200000D02*
X15800000Y10900000D01*
%TO.C,C30*%
X47300000Y30000000D02*
X47700000Y30000000D01*
X47300000Y28500000D02*
X47700000Y28500000D01*
%TO.C,R25*%
X17406066Y28197487D02*
X17547487Y28056066D01*
X17193934Y27702513D02*
X17052513Y27843934D01*
%TO.C,D3*%
X10525000Y14900000D02*
X8825000Y14900000D01*
X10525000Y11700000D02*
X8825000Y11700000D01*
D12*
X7525000Y14300000D02*
G75*
G03*
X7525000Y14300000I-100000J0D01*
G01*
D11*
%TO.C,R18*%
X19000000Y3650000D02*
X19000000Y3350000D01*
X18000000Y3650000D02*
X18000000Y3350000D01*
%TO.C,R23*%
X11259619Y20502513D02*
X11047487Y20290381D01*
X10552513Y21209619D02*
X10340381Y20997487D01*
%TO.C,MH2*%
X50000000Y46000000D02*
G75*
G03*
X50000000Y46000000I-4000000J0D01*
G01*
%TO.C,R12*%
X44100000Y16500000D02*
X44400000Y16500000D01*
X44100000Y15500000D02*
X44400000Y15500000D01*
%TO.C,C31*%
X48975000Y24000000D02*
X48975000Y23600000D01*
X47475000Y24000000D02*
X47475000Y23600000D01*
%TO.C,R1*%
X3150000Y19000000D02*
X2850000Y19000000D01*
X3150000Y20000000D02*
X2850000Y20000000D01*
%TO.C,C1*%
X47300000Y13750000D02*
X47700000Y13750000D01*
X47300000Y12250000D02*
X47700000Y12250000D01*
%TO.C,R19*%
X2400000Y28500000D02*
X2100000Y28500000D01*
X2400000Y29500000D02*
X2100000Y29500000D01*
%TO.C,C27*%
X19752513Y32406066D02*
X19893934Y32547487D01*
X20247487Y32193934D02*
X20106066Y32052513D01*
%TO.C,R10*%
X44100000Y20000000D02*
X44400000Y20000000D01*
X44100000Y19000000D02*
X44400000Y19000000D01*
%TO.C,Q2*%
X47500000Y21000000D02*
X48150000Y21000000D01*
X48150000Y21000000D02*
X48150000Y20700000D01*
X48150000Y18000000D02*
X47500000Y18000000D01*
X48150000Y18000000D02*
X48150000Y18300000D01*
%TO.C,C24*%
X15747487Y20709619D02*
X15959619Y20497487D01*
X15040381Y20002513D02*
X15252513Y19790381D01*
%TD*%
M02*
