%TF.GenerationSoftware,KiCad,Pcbnew,7.0.7*%
%TF.CreationDate,2024-01-21T18:01:17-05:00*%
%TF.ProjectId,Forerunner-Cubic-Mainboard,466f7265-7275-46e6-9e65-722d43756269,rev?*%
%TF.SameCoordinates,Original*%
%TF.FileFunction,Other,User*%
%FSLAX46Y46*%
G04 Gerber Fmt 4.6, Leading zero omitted, Abs format (unit mm)*
G04 Created by KiCad (PCBNEW 7.0.7) date 2024-01-21 18:01:17*
%MOMM*%
%LPD*%
G01*
G04 APERTURE LIST*
%ADD10C,0.050000*%
G04 APERTURE END LIST*
D10*
%TO.C,MH3*%
X50050000Y4000000D02*
G75*
G03*
X50050000Y4000000I-4050000J0D01*
G01*
%TO.C,MH4*%
X8050000Y4000000D02*
G75*
G03*
X8050000Y4000000I-4050000J0D01*
G01*
%TO.C,MH1*%
X8050000Y46000000D02*
G75*
G03*
X8050000Y46000000I-4050000J0D01*
G01*
%TO.C,J2*%
X2500000Y41750000D02*
X3750000Y41750000D01*
X14000000Y41100000D02*
X12000000Y41100000D01*
X12000000Y41100000D02*
X9700000Y38850000D01*
X4250000Y41100000D02*
X3750000Y41750000D01*
X2000000Y41100000D02*
X2500000Y41750000D01*
X9700000Y38850000D02*
X9100000Y38850000D01*
X9700000Y33650000D02*
X9100000Y33650000D01*
X9100000Y33650000D02*
X9100000Y38850000D01*
X14000000Y31400000D02*
X14000000Y41100000D01*
X12000000Y31400000D02*
X9700000Y33650000D01*
X12000000Y31400000D02*
X14000000Y31400000D01*
X4250000Y31400000D02*
X4250000Y41100000D01*
X4250000Y31400000D02*
X3750000Y30750000D01*
X2000000Y31400000D02*
X2000000Y41100000D01*
X2000000Y31400000D02*
X2500000Y30750000D01*
X3750000Y30750000D02*
X2500000Y30750000D01*
%TO.C,J4*%
X15525000Y46404000D02*
X15525000Y41896000D01*
X15525000Y41896000D02*
X34475000Y41896000D01*
X17225000Y48104000D02*
X15525000Y46404000D01*
X32775000Y48104000D02*
X17225000Y48104000D01*
X32775000Y48104000D02*
X34475000Y46404000D01*
X34475000Y46404000D02*
X34475000Y41896000D01*
%TO.C,MH2*%
X50050000Y46000000D02*
G75*
G03*
X50050000Y46000000I-4050000J0D01*
G01*
%TO.C,C3*%
X35100000Y15500000D02*
X35100000Y17500000D01*
X31600000Y15500000D02*
X35100000Y15500000D01*
X31600000Y15500000D02*
X31600000Y17500000D01*
X31600000Y17500000D02*
X35100000Y17500000D01*
%TO.C,TP2*%
X25625000Y8325000D02*
X21875000Y8325000D01*
X21875000Y8325000D02*
X21875000Y6175000D01*
X21875000Y6175000D02*
X25625000Y6175000D01*
X25625000Y6175000D02*
X25625000Y8325000D01*
%TO.C,LS1*%
X49250000Y40500000D02*
X38750000Y40500000D01*
X38750000Y40500000D02*
X38750000Y31000000D01*
X38750000Y31000000D02*
X49250000Y31000000D01*
X49250000Y31000000D02*
X49250000Y40500000D01*
%TO.C,R15*%
X36050000Y30400000D02*
X32450000Y30400000D01*
X36050000Y27600000D02*
X36050000Y30400000D01*
X36050000Y27600000D02*
X32450000Y27600000D01*
X32450000Y27600000D02*
X32450000Y30400000D01*
%TO.C,C16*%
X10184315Y32305635D02*
X9194365Y31315685D01*
X12305635Y30184315D02*
X10184315Y32305635D01*
X12305635Y30184315D02*
X11315685Y29194365D01*
X11315685Y29194365D02*
X9194365Y31315685D01*
%TO.C,U4*%
X10335000Y4900000D02*
X14465000Y4900000D01*
X10335000Y1500000D02*
X10335000Y4900000D01*
X10335000Y1500000D02*
X14465000Y1500000D01*
X14465000Y1500000D02*
X14465000Y4900000D01*
%TO.C,C10*%
X10150000Y4950000D02*
X8150000Y4950000D01*
X10150000Y1450000D02*
X10150000Y4950000D01*
X10150000Y1450000D02*
X8150000Y1450000D01*
X8150000Y1450000D02*
X8150000Y4950000D01*
%TO.C,U2*%
X31500000Y25500000D02*
X25000000Y25500000D01*
X25000000Y25500000D02*
X25000000Y17500000D01*
X31500000Y17500000D02*
X31500000Y25500000D01*
X25000000Y17500000D02*
X31500000Y17500000D01*
%TO.C,TP1*%
X25625000Y12825000D02*
X21875000Y12825000D01*
X21875000Y12825000D02*
X21875000Y10675000D01*
X21875000Y10675000D02*
X25625000Y10675000D01*
X25625000Y10675000D02*
X25625000Y12825000D01*
%TO.C,C11*%
X14825000Y1450000D02*
X16825000Y1450000D01*
X14825000Y4950000D02*
X14825000Y1450000D01*
X14825000Y4950000D02*
X16825000Y4950000D01*
X16825000Y4950000D02*
X16825000Y1450000D01*
%TO.C,C28*%
X9500000Y42700000D02*
X9500000Y41300000D01*
X12500000Y42700000D02*
X9500000Y42700000D01*
X12500000Y42700000D02*
X12500000Y41300000D01*
X12500000Y41300000D02*
X9500000Y41300000D01*
%TO.C,D5*%
X15250000Y9450000D02*
X15250000Y4950000D01*
X21350000Y9450000D02*
X15250000Y9450000D01*
X21350000Y9450000D02*
X21350000Y4950000D01*
X21350000Y4950000D02*
X15250000Y4950000D01*
%TO.C,L3*%
X14700000Y49750000D02*
X8800000Y49750000D01*
X14700000Y42750000D02*
X14700000Y49750000D01*
X14700000Y42750000D02*
X8800000Y42750000D01*
X8800000Y42750000D02*
X8800000Y49750000D01*
%TO.C,C21*%
X16755635Y31815685D02*
X15765685Y32805635D01*
X14634315Y29694365D02*
X16755635Y31815685D01*
X14634315Y29694365D02*
X13644365Y30684315D01*
X13644365Y30684315D02*
X15765685Y32805635D01*
%TO.C,R30*%
X550000Y38000000D02*
X1950000Y38000000D01*
X550000Y41000000D02*
X550000Y38000000D01*
X550000Y41000000D02*
X1950000Y41000000D01*
X1950000Y41000000D02*
X1950000Y38000000D01*
%TO.C,C7*%
X8125000Y9000000D02*
X8125000Y7000000D01*
X11625000Y9000000D02*
X8125000Y9000000D01*
X11625000Y9000000D02*
X11625000Y7000000D01*
X11625000Y7000000D02*
X8125000Y7000000D01*
%TO.C,TP3*%
X25625000Y4075000D02*
X21875000Y4075000D01*
X21875000Y4075000D02*
X21875000Y1925000D01*
X21875000Y1925000D02*
X25625000Y1925000D01*
X25625000Y1925000D02*
X25625000Y4075000D01*
%TO.C,C5*%
X15125000Y7000000D02*
X15125000Y9000000D01*
X11625000Y7000000D02*
X15125000Y7000000D01*
X11625000Y7000000D02*
X11625000Y9000000D01*
X11625000Y9000000D02*
X15125000Y9000000D01*
%TO.C,R4*%
X43550000Y29400000D02*
X39950000Y29400000D01*
X43550000Y26600000D02*
X43550000Y29400000D01*
X43550000Y26600000D02*
X39950000Y26600000D01*
X39950000Y26600000D02*
X39950000Y29400000D01*
%TO.C,C4*%
X28600000Y15500000D02*
X28600000Y17500000D01*
X25100000Y15500000D02*
X28600000Y15500000D01*
X25100000Y15500000D02*
X25100000Y17500000D01*
X25100000Y17500000D02*
X28600000Y17500000D01*
%TO.C,C6*%
X8125000Y7000000D02*
X8125000Y5000000D01*
X11625000Y7000000D02*
X8125000Y7000000D01*
X11625000Y7000000D02*
X11625000Y5000000D01*
X11625000Y5000000D02*
X8125000Y5000000D01*
%TO.C,C17*%
X9184315Y31305635D02*
X8194365Y30315685D01*
X11305635Y29184315D02*
X9184315Y31305635D01*
X11305635Y29184315D02*
X10315685Y28194365D01*
X10315685Y28194365D02*
X8194365Y30315685D01*
%TO.C,R13*%
X24950000Y26600000D02*
X28550000Y26600000D01*
X24950000Y29400000D02*
X24950000Y26600000D01*
X24950000Y29400000D02*
X28550000Y29400000D01*
X28550000Y29400000D02*
X28550000Y26600000D01*
%TO.C,R34*%
X26300000Y9000000D02*
X27700000Y9000000D01*
X26300000Y12000000D02*
X26300000Y9000000D01*
X26300000Y12000000D02*
X27700000Y12000000D01*
X27700000Y12000000D02*
X27700000Y9000000D01*
%TO.C,D4*%
X15250000Y13950000D02*
X15250000Y9450000D01*
X21350000Y13950000D02*
X15250000Y13950000D01*
X21350000Y13950000D02*
X21350000Y9450000D01*
X21350000Y9450000D02*
X15250000Y9450000D01*
%TO.C,R5*%
X39800000Y29400000D02*
X36200000Y29400000D01*
X39800000Y26600000D02*
X39800000Y29400000D01*
X39800000Y26600000D02*
X36200000Y26600000D01*
X36200000Y26600000D02*
X36200000Y29400000D01*
%TO.C,Q1*%
X42250000Y44000000D02*
X38750000Y44000000D01*
X42250000Y40500000D02*
X42250000Y44000000D01*
X42250000Y40500000D02*
X38750000Y40500000D01*
X38750000Y40500000D02*
X38750000Y44000000D01*
%TO.C,C14*%
X18755635Y29815685D02*
X17765685Y30805635D01*
X16634315Y27694365D02*
X18755635Y29815685D01*
X16634315Y27694365D02*
X15644365Y28684315D01*
X15644365Y28684315D02*
X17765685Y30805635D01*
%TO.C,R2*%
X38750000Y45450000D02*
X38750000Y44050000D01*
X41750000Y45450000D02*
X38750000Y45450000D01*
X41750000Y45450000D02*
X41750000Y44050000D01*
X41750000Y44050000D02*
X38750000Y44050000D01*
%TO.C,R14*%
X28700000Y26600000D02*
X32300000Y26600000D01*
X28700000Y29400000D02*
X28700000Y26600000D01*
X28700000Y29400000D02*
X32300000Y29400000D01*
X32300000Y29400000D02*
X32300000Y26600000D01*
%TO.C,C8*%
X15125000Y5000000D02*
X15125000Y7000000D01*
X11625000Y5000000D02*
X15125000Y5000000D01*
X11625000Y5000000D02*
X11625000Y7000000D01*
X11625000Y7000000D02*
X15125000Y7000000D01*
%TO.C,J3*%
X41250000Y-2200000D02*
X41250000Y14050000D01*
X27750000Y-2200000D02*
X41250000Y-2200000D01*
X27750000Y-2200000D02*
X27750000Y14050000D01*
X27750000Y14050000D02*
X41250000Y14050000D01*
%TO.C,C29*%
X25750000Y1000000D02*
X27750000Y1000000D01*
X25750000Y4500000D02*
X25750000Y1000000D01*
X25750000Y4500000D02*
X27750000Y4500000D01*
X27750000Y4500000D02*
X27750000Y1000000D01*
%TO.C,U3*%
X38000000Y25500000D02*
X31500000Y25500000D01*
X31500000Y25500000D02*
X31500000Y17500000D01*
X38000000Y17500000D02*
X38000000Y25500000D01*
X31500000Y17500000D02*
X38000000Y17500000D01*
%TO.C,C15*%
X17755635Y30815685D02*
X16765685Y31805635D01*
X15634315Y28694365D02*
X17755635Y30815685D01*
X15634315Y28694365D02*
X14644365Y29684315D01*
X14644365Y29684315D02*
X16765685Y31805635D01*
%TO.C,R3*%
X42250000Y41950000D02*
X42250000Y40550000D01*
X45250000Y41950000D02*
X42250000Y41950000D01*
X45250000Y41950000D02*
X45250000Y40550000D01*
X45250000Y40550000D02*
X42250000Y40550000D01*
%TO.C,R33*%
X27700000Y9000000D02*
X26300000Y9000000D01*
X27700000Y6000000D02*
X27700000Y9000000D01*
X27700000Y6000000D02*
X26300000Y6000000D01*
X26300000Y6000000D02*
X26300000Y9000000D01*
%TD*%
M02*
