%TF.GenerationSoftware,KiCad,Pcbnew,7.0.7*%
%TF.CreationDate,2024-01-21T18:01:16-05:00*%
%TF.ProjectId,Forerunner-Cubic-Mainboard,466f7265-7275-46e6-9e65-722d43756269,rev?*%
%TF.SameCoordinates,Original*%
%TF.FileFunction,Copper,L2,Inr*%
%TF.FilePolarity,Positive*%
%FSLAX46Y46*%
G04 Gerber Fmt 4.6, Leading zero omitted, Abs format (unit mm)*
G04 Created by KiCad (PCBNEW 7.0.7) date 2024-01-21 18:01:16*
%MOMM*%
%LPD*%
G01*
G04 APERTURE LIST*
G04 Aperture macros list*
%AMRoundRect*
0 Rectangle with rounded corners*
0 $1 Rounding radius*
0 $2 $3 $4 $5 $6 $7 $8 $9 X,Y pos of 4 corners*
0 Add a 4 corners polygon primitive as box body*
4,1,4,$2,$3,$4,$5,$6,$7,$8,$9,$2,$3,0*
0 Add four circle primitives for the rounded corners*
1,1,$1+$1,$2,$3*
1,1,$1+$1,$4,$5*
1,1,$1+$1,$6,$7*
1,1,$1+$1,$8,$9*
0 Add four rect primitives between the rounded corners*
20,1,$1+$1,$2,$3,$4,$5,0*
20,1,$1+$1,$4,$5,$6,$7,0*
20,1,$1+$1,$6,$7,$8,$9,0*
20,1,$1+$1,$8,$9,$2,$3,0*%
G04 Aperture macros list end*
%TA.AperFunction,ComponentPad*%
%ADD10C,6.000000*%
%TD*%
%TA.AperFunction,ComponentPad*%
%ADD11RoundRect,0.540000X-0.460000X0.060000X-0.460000X-0.060000X0.460000X-0.060000X0.460000X0.060000X0*%
%TD*%
%TA.AperFunction,ComponentPad*%
%ADD12C,1.300000*%
%TD*%
%TA.AperFunction,ComponentPad*%
%ADD13C,1.400000*%
%TD*%
%TA.AperFunction,ComponentPad*%
%ADD14C,0.457200*%
%TD*%
%TA.AperFunction,ViaPad*%
%ADD15C,0.508000*%
%TD*%
%TA.AperFunction,Conductor*%
%ADD16C,0.152400*%
%TD*%
G04 APERTURE END LIST*
D10*
%TO.N,unconnected-(MH3-Pad1)*%
%TO.C,MH3*%
X46000000Y4000000D03*
%TD*%
%TO.N,unconnected-(MH4-Pad1)*%
%TO.C,MH4*%
X4000000Y4000000D03*
%TD*%
D11*
%TO.N,unconnected-(J1-SHLD-PadMH1)*%
%TO.C,J1*%
X5925000Y17570000D03*
%TO.N,unconnected-(J1-SHLD-PadMH2)*%
X1745000Y17570000D03*
%TO.N,unconnected-(J1-SHLD-PadMH3)*%
X5925000Y8930000D03*
%TO.N,unconnected-(J1-SHLD-PadMH4)*%
X1745000Y8930000D03*
%TD*%
D10*
%TO.N,unconnected-(MH1-Pad1)*%
%TO.C,MH1*%
X4000000Y46000000D03*
%TD*%
D12*
%TO.N,/SPE-PoDL_Interface/BI_DA+*%
%TO.C,J2*%
X10275000Y34850000D03*
%TO.N,/SPE-PoDL_Interface/BI_DA-*%
X10275000Y37650000D03*
D13*
%TO.N,unconnected-(J2-PadSHLD1)*%
X3125000Y31800000D03*
%TO.N,unconnected-(J2-PadSHLD2)*%
X12875000Y32450000D03*
%TO.N,unconnected-(J2-PadSHLD3)*%
X12875000Y40050000D03*
%TO.N,Net-(J2-PadSHLD4)*%
X3125000Y40700000D03*
%TD*%
D14*
%TO.N,/Stacking_Connector/SHLD*%
%TO.C,J4*%
X31032500Y44400000D03*
X31032500Y45600000D03*
%TO.N,+24V*%
X30397500Y44400000D03*
X30397500Y45600000D03*
%TO.N,24V_RTN*%
X29762500Y44400000D03*
X29762500Y45600000D03*
%TO.N,/Stacking_Connector/SHLD*%
X29127500Y44400000D03*
X29127500Y45600000D03*
%TO.N,+5VB*%
X28492500Y44400000D03*
X28492500Y45600000D03*
%TO.N,GND*%
X27857500Y44400000D03*
X27857500Y45600000D03*
%TO.N,+3V3*%
X27222500Y44400000D03*
X27222500Y45600000D03*
%TO.N,GND*%
X26587500Y44400000D03*
X26587500Y45600000D03*
%TO.N,/Stacking_Connector/SHLD*%
X25952500Y44400000D03*
X25952500Y45600000D03*
%TO.N,/ESP-32_Core/NRF24-TX-~{CS}*%
X25317500Y44400000D03*
%TO.N,/ESP-32_Core/NRF24-TX-IRQ*%
X25317500Y45600000D03*
%TO.N,/ESP-32_Core/NRF24-RX-~{CS}*%
X24682500Y44400000D03*
%TO.N,/ESP-32_Core/NRF24-RX-IRQ*%
X24682500Y45600000D03*
%TO.N,/ESP-32_Core/LoRa-~{CS}*%
X24047500Y44400000D03*
%TO.N,/ESP-32_Core/LoRa-IR*%
X24047500Y45600000D03*
%TO.N,GND*%
X23412500Y44400000D03*
%TO.N,/ESP-32_Core/MAX-8Q-~{CS}*%
X23412500Y45600000D03*
%TO.N,/Data_Storage/I2C.SDA*%
X22777500Y44400000D03*
%TO.N,/ESP-32_Core/BMX160-~{CS}*%
X22777500Y45600000D03*
%TO.N,/Data_Storage/I2C.SCL*%
X22142500Y44400000D03*
%TO.N,/ESP-32_Core/H3LIS-~{CS}*%
X22142500Y45600000D03*
%TO.N,GND*%
X21507500Y44400000D03*
%TO.N,/ESP-32_Core/MAGNETOMETER-~{CS}*%
X21507500Y45600000D03*
%TO.N,/Data_Storage/SPI1.MISO*%
X20872500Y44400000D03*
%TO.N,/ESP-32_Core/ADS1148-FS-~{CS}*%
X20872500Y45600000D03*
%TO.N,/Data_Storage/SPI1.MOSI*%
X20237500Y44400000D03*
%TO.N,/ESP-32_Core/MAX31856-1-~{CS}*%
X20237500Y45600000D03*
%TO.N,/Data_Storage/SPI1.SCLK*%
X19602500Y44400000D03*
%TO.N,/ESP-32_Core/MAX31856-2-~{CS}*%
X19602500Y45600000D03*
%TO.N,GND*%
X18967500Y44400000D03*
%TO.N,/ESP-32_Core/CONFIG-EXP-~{CS}*%
X18967500Y45600000D03*
%TD*%
D10*
%TO.N,unconnected-(MH2-Pad1)*%
%TO.C,MH2*%
X46000000Y46000000D03*
%TD*%
D15*
%TO.N,GND*%
X7850000Y9850000D03*
X12450000Y10600000D03*
X6400000Y29100000D03*
X16978502Y4200000D03*
X14700000Y40300000D03*
X48450000Y14600000D03*
X9961727Y11638273D03*
X6400000Y30650000D03*
X19500000Y20550000D03*
X41750000Y7500000D03*
X48750000Y8000000D03*
X6400000Y31350000D03*
X25100000Y1700000D03*
X22500000Y29950000D03*
X35100000Y15300000D03*
X32550000Y31500000D03*
X8250000Y20200000D03*
X31250000Y19150000D03*
X46500000Y23750000D03*
X3900000Y17400000D03*
X14250000Y25750000D03*
X37220300Y23000000D03*
X7650000Y6600000D03*
X44300000Y37000000D03*
X1200000Y37500000D03*
X25250000Y31000000D03*
X7900000Y17400000D03*
X38250000Y12000000D03*
X32200000Y11800000D03*
X37950000Y3900000D03*
X16700000Y8950000D03*
X6400000Y29850000D03*
X23500000Y18750000D03*
X15800000Y1100000D03*
X27000000Y5500000D03*
X20697818Y16392507D03*
X29000000Y40450000D03*
X48075000Y27425000D03*
X11400000Y16000000D03*
X16206575Y20783297D03*
X21600000Y2950000D03*
X31250000Y11400000D03*
X31400000Y3464700D03*
X23659900Y23000000D03*
X18350000Y26850000D03*
X2500000Y24250000D03*
X14700000Y32200000D03*
X47300000Y11650000D03*
X16900000Y32400000D03*
X9623718Y13297172D03*
X26500000Y41450000D03*
X38119006Y42176500D03*
X37613100Y25600000D03*
X38124691Y41161500D03*
X18300000Y21700000D03*
X13250000Y25750000D03*
X46750000Y10000000D03*
X26903502Y16500000D03*
X12350000Y30750000D03*
X42000000Y48950000D03*
X7500000Y42450000D03*
X42600000Y12000000D03*
X36900000Y1482100D03*
X35600000Y16600000D03*
X8000000Y24450000D03*
X16300000Y32900000D03*
X12250000Y25750000D03*
X46572851Y21706700D03*
X31070000Y24370000D03*
X8250000Y27956700D03*
X29000000Y3750000D03*
X45150000Y29250000D03*
X45000000Y23750000D03*
X8400000Y1000000D03*
X41500000Y42250000D03*
X3900000Y9450000D03*
X26900000Y14750000D03*
X18300000Y19350000D03*
X44250000Y8000000D03*
X7500000Y48950000D03*
X7650000Y7850000D03*
X40250000Y4250000D03*
X18300000Y11700000D03*
%TO.N,+VUSB*%
X9550000Y9900000D03*
X10200000Y9900000D03*
X13317500Y9429235D03*
%TO.N,/USB_Input/3V3_FTDI*%
X19176498Y7000000D03*
X19200000Y5500000D03*
%TO.N,+3V3*%
X15378221Y28871779D03*
X4043300Y26000000D03*
X10850000Y30700000D03*
X28750000Y11000000D03*
X44800000Y28000000D03*
X25337000Y15050000D03*
X26700000Y4800000D03*
X5400000Y28750000D03*
X9777848Y21777848D03*
X1400000Y30150000D03*
X25950000Y7100000D03*
X44250000Y20350000D03*
X42300000Y13050000D03*
X42500000Y8050000D03*
X9450000Y19450000D03*
%TO.N,/SPE-PoDL_Interface/BI_DA+*%
X13100000Y42000000D03*
%TO.N,/USB_Input/USB_N*%
X5525202Y14005796D03*
X7516446Y12753870D03*
%TO.N,+5VB*%
X20450000Y13350000D03*
X3550000Y20500000D03*
X43828502Y41200000D03*
X26044000Y12300000D03*
%TO.N,/SPE-PoDL_Interface/SPE-LED*%
X15100000Y22100000D03*
X13500000Y18800000D03*
%TO.N,/Data_Storage/SPI1.MOSI*%
X24540600Y31915525D03*
X20694100Y17100000D03*
X24000000Y8850000D03*
X33600000Y3150000D03*
X24009997Y17100000D03*
%TO.N,/Data_Storage/SPI1.SCLK*%
X12670300Y20900000D03*
X24070427Y32444200D03*
X14082100Y20273739D03*
X23500000Y17750000D03*
X35750000Y1482100D03*
%TO.N,/Data_Storage/SPI1.MISO*%
X25070300Y34300000D03*
X24550000Y16450000D03*
X37950000Y3150000D03*
%TO.N,/ESP-32_Core/NRF24-TX-~{CS}*%
X42025445Y30625445D03*
X42050000Y31729700D03*
%TO.N,/ESP-32_Core/NRF24-TX-IRQ*%
X36800000Y29850000D03*
X36184994Y41161500D03*
X36200000Y42176500D03*
%TO.N,/ESP-32_Core/NRF24-RX-IRQ*%
X36850000Y42176500D03*
X37600000Y29850000D03*
X36855685Y41161500D03*
%TO.N,/ESP-32_Core/LoRa-IR*%
X37490188Y41161500D03*
X37484503Y42176500D03*
X39200000Y29850000D03*
%TO.N,/ESP-32_Core/MAX-8Q-~{CS}*%
X23997068Y36593518D03*
%TO.N,/ESP-32_Core/BMX160-~{CS}*%
X24450000Y36050000D03*
X22800000Y48429700D03*
%TO.N,/Data_Storage/CARD-~{CS}*%
X33082100Y27100000D03*
X32850000Y8200000D03*
X33462285Y22462300D03*
%TO.N,/ESP-32_Core/MAGNETOMETER-~{CS}*%
X18450000Y39800000D03*
X23163919Y38800730D03*
%TO.N,/ESP-32_Core/ADS1148-FS-~{CS}*%
X19118346Y39329289D03*
X22449555Y38799555D03*
%TO.N,/ESP-32_Core/MAX31856-1-~{CS}*%
X21300000Y40320300D03*
%TO.N,/ESP-32_Core/MAX31856-2-~{CS}*%
X21850128Y40820731D03*
%TO.N,/ESP-32_Core/CONFIG-EXP-~{CS}*%
X21387972Y41379700D03*
%TO.N,/ESP-32_Core/H3LIS-~{CS}*%
X21700000Y38800000D03*
X18450000Y38800000D03*
%TO.N,/ESP-32_Core/~{RTS}*%
X44250000Y16900000D03*
X7692497Y1000000D03*
%TO.N,/ESP-32_Core/~{DTR}*%
X7725537Y1824463D03*
X45200000Y14950000D03*
X42550000Y19500000D03*
%TO.N,/ESP-32_Core/GPIO0*%
X36850000Y17200000D03*
X38725000Y15925000D03*
X47653282Y15654172D03*
%TO.N,/USB_Input/~{FTDI-LED}*%
X18400000Y5517900D03*
X18400000Y6929700D03*
%TO.N,/ESP-32_Core/LED*%
X19975445Y17370300D03*
X20265368Y19134500D03*
%TO.N,/ESP-32_Core/PIEZO*%
X42550000Y21250000D03*
%TO.N,/ESP-32_Core/RST-ADIN1110*%
X23650000Y24150000D03*
X29400000Y23050000D03*
X16200000Y23250000D03*
X33850000Y27100000D03*
%TO.N,/Data_Storage/FLASH-~{CS}*%
X26724300Y32165500D03*
X26724300Y33929700D03*
%TO.N,/ESP-32_Core/ADIN1110-~{CS}*%
X25750000Y23050000D03*
X8500000Y26617900D03*
%TO.N,Net-(U6-CEXT3)*%
X13300000Y30050000D03*
%TO.N,/ESP-32_Core/SPE-LINK-STATUS*%
X15691527Y22678247D03*
X41350000Y29700000D03*
X26500000Y23050000D03*
X28725000Y23050000D03*
%TO.N,Net-(U1-IO33)*%
X41450000Y17700000D03*
%TO.N,Net-(U1-IO32)*%
X41400000Y16500000D03*
%TO.N,Net-(U1-IO35)*%
X41450000Y15200000D03*
%TO.N,Net-(U1-IO34)*%
X39046611Y14424300D03*
%TO.N,Net-(U1-IO25)*%
X39000000Y19250000D03*
%TO.N,Net-(U1-IO26)*%
X39000000Y20500000D03*
%TO.N,Net-(U1-IO27)*%
X39000000Y21750000D03*
%TO.N,Net-(U1-IO14)*%
X39000000Y23000000D03*
%TO.N,/ESP-32_Core/SR-~{EN}*%
X27900000Y21200000D03*
X35050000Y21050500D03*
%TO.N,/ESP-32_Core/SRCLK*%
X35700000Y20550000D03*
X29200000Y20529700D03*
%TO.N,/ESP-32_Core/SRDATA*%
X27204815Y20113095D03*
%TO.N,/ESP-32_Core/~{SRCLR}*%
X36350000Y20100000D03*
X29900000Y19970300D03*
%TO.N,Net-(U2-QH')*%
X30700000Y19800000D03*
X33775289Y19800000D03*
%TO.N,/Data_Storage/I2C.SDA*%
X33850000Y30950000D03*
%TO.N,/Data_Storage/I2C.SCL*%
X42136900Y24766152D03*
X33320300Y31498654D03*
X44700000Y24800000D03*
%TD*%
D16*
%TO.N,/Data_Storage/CARD-~{CS}*%
X33082100Y22842485D02*
X33082100Y27100000D01*
X33462285Y22462300D02*
X33082100Y22842485D01*
%TO.N,/ESP-32_Core/GPIO0*%
X47307454Y16000000D02*
X47653282Y15654172D01*
X38725000Y15925000D02*
X41574817Y15925000D01*
X41574817Y15925000D02*
X41649817Y16000000D01*
X41649817Y16000000D02*
X47307454Y16000000D01*
%TO.N,/ESP-32_Core/RST-ADIN1110*%
X28300000Y24150000D02*
X29400000Y23050000D01*
X23650000Y24150000D02*
X28300000Y24150000D01*
%TD*%
%TA.AperFunction,Conductor*%
%TO.N,/Stacking_Connector/SHLD*%
G36*
X29256694Y45581694D02*
G01*
X29275000Y45537500D01*
X29275000Y44462500D01*
X29256694Y44418306D01*
X29212500Y44400000D01*
X29037500Y44400000D01*
X28993306Y44418306D01*
X28975000Y44462500D01*
X28975000Y45537500D01*
X28993306Y45581694D01*
X29037500Y45600000D01*
X29212500Y45600000D01*
X29256694Y45581694D01*
G37*
%TD.AperFunction*%
%TD*%
%TA.AperFunction,Conductor*%
%TO.N,/Stacking_Connector/SHLD*%
G36*
X31156694Y45581694D02*
G01*
X31175000Y45537500D01*
X31175000Y44462500D01*
X31156694Y44418306D01*
X31112500Y44400000D01*
X30937500Y44400000D01*
X30893306Y44418306D01*
X30875000Y44462500D01*
X30875000Y45537500D01*
X30893306Y45581694D01*
X30937500Y45600000D01*
X31112500Y45600000D01*
X31156694Y45581694D01*
G37*
%TD.AperFunction*%
%TD*%
%TA.AperFunction,Conductor*%
%TO.N,/Stacking_Connector/SHLD*%
G36*
X26081694Y45581694D02*
G01*
X26100000Y45537500D01*
X26100000Y44462500D01*
X26081694Y44418306D01*
X26037500Y44400000D01*
X25862500Y44400000D01*
X25818306Y44418306D01*
X25800000Y44462500D01*
X25800000Y45537500D01*
X25818306Y45581694D01*
X25862500Y45600000D01*
X26037500Y45600000D01*
X26081694Y45581694D01*
G37*
%TD.AperFunction*%
%TD*%
%TA.AperFunction,Conductor*%
%TO.N,GND*%
G36*
X27730082Y45563799D02*
G01*
X27742740Y45545569D01*
X27757467Y45513320D01*
X27809689Y45479760D01*
X27836971Y45440467D01*
X27828477Y45393392D01*
X27820093Y45382988D01*
X27656684Y45219579D01*
X27656684Y45219578D01*
X27677617Y45206125D01*
X27677626Y45206121D01*
X27795874Y45171400D01*
X27919125Y45171400D01*
X28037375Y45206121D01*
X28058314Y45219579D01*
X27895465Y45382429D01*
X27877159Y45426623D01*
X27895465Y45470817D01*
X27922050Y45486591D01*
X27929059Y45488649D01*
X27929060Y45488649D01*
X27983786Y45551806D01*
X27985634Y45550204D01*
X28011308Y45574114D01*
X28059113Y45572413D01*
X28077351Y45559752D01*
X28143737Y45493366D01*
X28155231Y45477547D01*
X28200818Y45388079D01*
X28280580Y45308317D01*
X28381082Y45257108D01*
X28381086Y45257107D01*
X28492500Y45239461D01*
X28603913Y45257107D01*
X28603917Y45257108D01*
X28704419Y45308317D01*
X28735806Y45339704D01*
X28780000Y45358010D01*
X28824194Y45339704D01*
X28842500Y45295510D01*
X28842500Y44704490D01*
X28824194Y44660296D01*
X28780000Y44641990D01*
X28735806Y44660296D01*
X28730806Y44665296D01*
X28704420Y44691682D01*
X28603913Y44742893D01*
X28492500Y44760539D01*
X28381087Y44742893D01*
X28381084Y44742891D01*
X28381082Y44742891D01*
X28280580Y44691682D01*
X28200818Y44611920D01*
X28155231Y44522451D01*
X28143737Y44506632D01*
X28073305Y44436201D01*
X28029111Y44417895D01*
X27984917Y44436201D01*
X27972260Y44454429D01*
X27957533Y44486679D01*
X27905308Y44520240D01*
X27878028Y44559532D01*
X27886521Y44606608D01*
X27894906Y44617012D01*
X28058315Y44780419D01*
X28058315Y44780420D01*
X28037377Y44793877D01*
X27919125Y44828600D01*
X27795875Y44828600D01*
X27677626Y44793879D01*
X27677622Y44793877D01*
X27656684Y44780419D01*
X27819533Y44617570D01*
X27837839Y44573376D01*
X27819533Y44529182D01*
X27792947Y44513408D01*
X27785940Y44511350D01*
X27785939Y44511350D01*
X27731214Y44448194D01*
X27729367Y44449793D01*
X27703674Y44425879D01*
X27655870Y44427593D01*
X27637647Y44440247D01*
X27571261Y44506633D01*
X27559769Y44522449D01*
X27514182Y44611920D01*
X27434420Y44691682D01*
X27333913Y44742893D01*
X27222500Y44760539D01*
X27111087Y44742893D01*
X27111084Y44742891D01*
X27111082Y44742891D01*
X27010580Y44691682D01*
X26930818Y44611920D01*
X26885231Y44522451D01*
X26873737Y44506632D01*
X26803305Y44436200D01*
X26759111Y44417894D01*
X26714917Y44436200D01*
X26702262Y44454425D01*
X26687533Y44486679D01*
X26635309Y44520240D01*
X26608029Y44559531D01*
X26616521Y44606606D01*
X26624906Y44617011D01*
X26788315Y44780419D01*
X26788315Y44780420D01*
X26767377Y44793877D01*
X26649125Y44828600D01*
X26525875Y44828600D01*
X26407626Y44793878D01*
X26407617Y44793874D01*
X26328790Y44743215D01*
X26281715Y44734721D01*
X26242422Y44762003D01*
X26232500Y44795793D01*
X26232500Y45204206D01*
X26250806Y45248400D01*
X26295000Y45266706D01*
X26328790Y45256785D01*
X26407622Y45206123D01*
X26407626Y45206121D01*
X26525874Y45171400D01*
X26649125Y45171400D01*
X26767375Y45206121D01*
X26788314Y45219579D01*
X26625465Y45382429D01*
X26607159Y45426623D01*
X26625465Y45470817D01*
X26652050Y45486591D01*
X26659059Y45488649D01*
X26659060Y45488649D01*
X26713786Y45551806D01*
X26715634Y45550204D01*
X26741308Y45574114D01*
X26789113Y45572413D01*
X26807351Y45559752D01*
X26873737Y45493366D01*
X26885231Y45477547D01*
X26930818Y45388079D01*
X27010580Y45308317D01*
X27111082Y45257108D01*
X27111086Y45257107D01*
X27222500Y45239461D01*
X27333913Y45257107D01*
X27333917Y45257108D01*
X27434419Y45308317D01*
X27514182Y45388080D01*
X27540000Y45438750D01*
X27559768Y45477547D01*
X27571261Y45493366D01*
X27641694Y45563799D01*
X27685888Y45582105D01*
X27730082Y45563799D01*
G37*
%TD.AperFunction*%
%TA.AperFunction,Conductor*%
G36*
X48001110Y49618420D02*
G01*
X48225878Y49602344D01*
X48234704Y49601075D01*
X48451618Y49553888D01*
X48460174Y49551375D01*
X48668159Y49473801D01*
X48676271Y49470097D01*
X48871102Y49363711D01*
X48878604Y49358890D01*
X49056316Y49225857D01*
X49063055Y49220017D01*
X49220017Y49063055D01*
X49225857Y49056316D01*
X49358890Y48878604D01*
X49363711Y48871102D01*
X49470097Y48676271D01*
X49473801Y48668159D01*
X49551375Y48460174D01*
X49553888Y48451618D01*
X49601075Y48234704D01*
X49602344Y48225878D01*
X49618420Y48001110D01*
X49618500Y47998880D01*
X49618500Y2001119D01*
X49618420Y1998889D01*
X49602344Y1774121D01*
X49601075Y1765295D01*
X49553888Y1548381D01*
X49551375Y1539825D01*
X49473801Y1331840D01*
X49470097Y1323728D01*
X49363711Y1128897D01*
X49358890Y1121395D01*
X49225857Y943683D01*
X49220017Y936944D01*
X49063055Y779982D01*
X49056316Y774142D01*
X48878604Y641109D01*
X48871102Y636288D01*
X48676264Y529899D01*
X48668161Y526199D01*
X48564166Y487410D01*
X48460174Y448624D01*
X48451620Y446111D01*
X48241810Y400469D01*
X48234704Y398924D01*
X48225879Y397655D01*
X48198002Y395661D01*
X48001110Y381580D01*
X47998880Y381500D01*
X2001120Y381500D01*
X1998890Y381580D01*
X1820298Y394352D01*
X1774118Y397655D01*
X1765297Y398923D01*
X1548375Y446112D01*
X1539825Y448624D01*
X1331833Y526201D01*
X1323740Y529896D01*
X1128893Y636290D01*
X1121399Y641106D01*
X943676Y774147D01*
X936951Y779975D01*
X779975Y936951D01*
X774147Y943676D01*
X641106Y1121399D01*
X636288Y1128897D01*
X614056Y1169612D01*
X529896Y1323740D01*
X526201Y1331833D01*
X448623Y1539827D01*
X446111Y1548381D01*
X445548Y1550967D01*
X398923Y1765297D01*
X397655Y1774121D01*
X381580Y1998889D01*
X381500Y2001119D01*
X381500Y4000000D01*
X867572Y4000000D01*
X887268Y3649279D01*
X887268Y3649274D01*
X887269Y3649271D01*
X946110Y3302962D01*
X1043352Y2965426D01*
X1043356Y2965414D01*
X1177778Y2640893D01*
X1177785Y2640878D01*
X1347693Y2333455D01*
X1347698Y2333446D01*
X1550966Y2046966D01*
X1550967Y2046965D01*
X1785039Y1785039D01*
X2046965Y1550967D01*
X2046966Y1550966D01*
X2333446Y1347698D01*
X2333455Y1347693D01*
X2640878Y1177785D01*
X2640893Y1177778D01*
X2965414Y1043356D01*
X2965426Y1043352D01*
X3302962Y946110D01*
X3649271Y887269D01*
X3649274Y887268D01*
X3649279Y887268D01*
X4000000Y867572D01*
X4350721Y887268D01*
X4350726Y887268D01*
X4350728Y887269D01*
X4697037Y946110D01*
X4884080Y999996D01*
X7306242Y999996D01*
X7325145Y880644D01*
X7325147Y880639D01*
X7380009Y772965D01*
X7465462Y687512D01*
X7573136Y632650D01*
X7573141Y632648D01*
X7692493Y613745D01*
X7692497Y613745D01*
X7692501Y613745D01*
X7811852Y632648D01*
X7811857Y632650D01*
X7919531Y687512D01*
X8004984Y772965D01*
X8059846Y880639D01*
X8059848Y880644D01*
X8078752Y999996D01*
X8078752Y1000003D01*
X8059848Y1119355D01*
X8059847Y1119356D01*
X8059847Y1119359D01*
X8004984Y1227035D01*
X7919532Y1312487D01*
X7849584Y1348126D01*
X7818518Y1384500D01*
X7822271Y1432188D01*
X7849585Y1459502D01*
X7893929Y1482096D01*
X35363745Y1482096D01*
X35382648Y1362744D01*
X35382650Y1362739D01*
X35437512Y1255065D01*
X35522965Y1169612D01*
X35630639Y1114750D01*
X35630644Y1114748D01*
X35749996Y1095845D01*
X35750000Y1095845D01*
X35750004Y1095845D01*
X35869355Y1114748D01*
X35869360Y1114750D01*
X35977034Y1169612D01*
X36062487Y1255065D01*
X36117349Y1362739D01*
X36117351Y1362744D01*
X36136255Y1482096D01*
X36136255Y1482103D01*
X36117351Y1601455D01*
X36117350Y1601456D01*
X36117350Y1601459D01*
X36062487Y1709135D01*
X35977035Y1794587D01*
X35869359Y1849450D01*
X35869356Y1849450D01*
X35869355Y1849451D01*
X35750004Y1868355D01*
X35749996Y1868355D01*
X35630644Y1849451D01*
X35630639Y1849449D01*
X35522965Y1794587D01*
X35437512Y1709134D01*
X35382650Y1601460D01*
X35382648Y1601455D01*
X35363745Y1482103D01*
X35363745Y1482096D01*
X7893929Y1482096D01*
X7952571Y1511975D01*
X8038024Y1597428D01*
X8092886Y1705102D01*
X8092888Y1705107D01*
X8111792Y1824459D01*
X8111792Y1824466D01*
X8092888Y1943818D01*
X8092887Y1943819D01*
X8092887Y1943822D01*
X8038024Y2051498D01*
X7952572Y2136950D01*
X7844896Y2191813D01*
X7844893Y2191813D01*
X7844892Y2191814D01*
X7725541Y2210718D01*
X7725533Y2210718D01*
X7606181Y2191814D01*
X7606176Y2191812D01*
X7498502Y2136950D01*
X7413049Y2051497D01*
X7358187Y1943823D01*
X7358185Y1943818D01*
X7339282Y1824466D01*
X7339282Y1824459D01*
X7358185Y1705107D01*
X7358187Y1705102D01*
X7413049Y1597428D01*
X7498501Y1511976D01*
X7568449Y1476336D01*
X7599515Y1439961D01*
X7595762Y1392273D01*
X7568448Y1364960D01*
X7487524Y1323728D01*
X7465462Y1312487D01*
X7380009Y1227034D01*
X7325147Y1119360D01*
X7325145Y1119355D01*
X7306242Y1000003D01*
X7306242Y999996D01*
X4884080Y999996D01*
X5034573Y1043352D01*
X5034585Y1043356D01*
X5359106Y1177778D01*
X5359121Y1177785D01*
X5630281Y1327651D01*
X5666552Y1347697D01*
X5953037Y1550969D01*
X6214961Y1785039D01*
X6449031Y2046963D01*
X6652303Y2333448D01*
X6750651Y2511397D01*
X6822214Y2640878D01*
X6822221Y2640893D01*
X6956643Y2965414D01*
X6956647Y2965426D01*
X6975435Y3030639D01*
X7009821Y3149996D01*
X33213745Y3149996D01*
X33232648Y3030644D01*
X33232650Y3030639D01*
X33287512Y2922965D01*
X33372965Y2837512D01*
X33480639Y2782650D01*
X33480644Y2782648D01*
X33599996Y2763745D01*
X33600000Y2763745D01*
X33600004Y2763745D01*
X33719355Y2782648D01*
X33719360Y2782650D01*
X33827034Y2837512D01*
X33912487Y2922965D01*
X33967349Y3030639D01*
X33967351Y3030644D01*
X33986255Y3149996D01*
X37563745Y3149996D01*
X37582648Y3030644D01*
X37582650Y3030639D01*
X37637512Y2922965D01*
X37722965Y2837512D01*
X37830639Y2782650D01*
X37830644Y2782648D01*
X37949996Y2763745D01*
X37950000Y2763745D01*
X37950004Y2763745D01*
X38069355Y2782648D01*
X38069360Y2782650D01*
X38177034Y2837512D01*
X38262487Y2922965D01*
X38317349Y3030639D01*
X38317351Y3030644D01*
X38336255Y3149996D01*
X38336255Y3150003D01*
X38317351Y3269355D01*
X38317350Y3269356D01*
X38317350Y3269359D01*
X38262487Y3377035D01*
X38177035Y3462487D01*
X38069359Y3517350D01*
X38069356Y3517350D01*
X38069355Y3517351D01*
X37950004Y3536255D01*
X37949996Y3536255D01*
X37830644Y3517351D01*
X37830639Y3517349D01*
X37722965Y3462487D01*
X37637512Y3377034D01*
X37582650Y3269360D01*
X37582648Y3269355D01*
X37563745Y3150003D01*
X37563745Y3149996D01*
X33986255Y3149996D01*
X33986255Y3150003D01*
X33967351Y3269355D01*
X33967350Y3269356D01*
X33967350Y3269359D01*
X33912487Y3377035D01*
X33827035Y3462487D01*
X33719359Y3517350D01*
X33719356Y3517350D01*
X33719355Y3517351D01*
X33600004Y3536255D01*
X33599996Y3536255D01*
X33480644Y3517351D01*
X33480639Y3517349D01*
X33372965Y3462487D01*
X33287512Y3377034D01*
X33232650Y3269360D01*
X33232648Y3269355D01*
X33213745Y3150003D01*
X33213745Y3149996D01*
X7009821Y3149996D01*
X7053891Y3302969D01*
X7112732Y3649279D01*
X7132428Y4000000D01*
X42867572Y4000000D01*
X42887268Y3649279D01*
X42887268Y3649274D01*
X42887269Y3649271D01*
X42946110Y3302962D01*
X43043352Y2965426D01*
X43043356Y2965414D01*
X43177778Y2640893D01*
X43177785Y2640878D01*
X43347693Y2333455D01*
X43347698Y2333446D01*
X43550966Y2046966D01*
X43550967Y2046965D01*
X43785039Y1785039D01*
X44046965Y1550967D01*
X44046966Y1550966D01*
X44333446Y1347698D01*
X44333455Y1347693D01*
X44640878Y1177785D01*
X44640893Y1177778D01*
X44965414Y1043356D01*
X44965426Y1043352D01*
X45302962Y946110D01*
X45649271Y887269D01*
X45649274Y887268D01*
X45649279Y887268D01*
X46000000Y867572D01*
X46350721Y887268D01*
X46350726Y887268D01*
X46350728Y887269D01*
X46697037Y946110D01*
X47034573Y1043352D01*
X47034585Y1043356D01*
X47359106Y1177778D01*
X47359121Y1177785D01*
X47630281Y1327651D01*
X47666552Y1347697D01*
X47953037Y1550969D01*
X48214961Y1785039D01*
X48449031Y2046963D01*
X48652303Y2333448D01*
X48750651Y2511397D01*
X48822214Y2640878D01*
X48822221Y2640893D01*
X48956643Y2965414D01*
X48956647Y2965426D01*
X48975435Y3030639D01*
X49053891Y3302969D01*
X49112732Y3649279D01*
X49132428Y4000000D01*
X49112732Y4350721D01*
X49053891Y4697031D01*
X48956647Y5034575D01*
X48822220Y5359110D01*
X48652303Y5666552D01*
X48449031Y5953037D01*
X48214961Y6214961D01*
X47953037Y6449031D01*
X47666552Y6652303D01*
X47359110Y6822220D01*
X47034575Y6956647D01*
X47034570Y6956649D01*
X46807293Y7022125D01*
X46697031Y7053891D01*
X46350721Y7112732D01*
X46000000Y7132428D01*
X45649279Y7112732D01*
X45302969Y7053891D01*
X45302962Y7053889D01*
X44965430Y6956649D01*
X44965414Y6956643D01*
X44763399Y6872965D01*
X44640890Y6822220D01*
X44640885Y6822217D01*
X44640878Y6822214D01*
X44511397Y6750651D01*
X44333448Y6652303D01*
X44046963Y6449031D01*
X43785039Y6214961D01*
X43550969Y5953037D01*
X43550967Y5953034D01*
X43550966Y5953033D01*
X43490171Y5867350D01*
X43347697Y5666552D01*
X43321612Y5619355D01*
X43177785Y5359121D01*
X43177778Y5359106D01*
X43043356Y5034585D01*
X43043352Y5034573D01*
X42946110Y4697037D01*
X42946109Y4697031D01*
X42887268Y4350721D01*
X42867572Y4000000D01*
X7132428Y4000000D01*
X7112732Y4350721D01*
X7053891Y4697031D01*
X7024228Y4799996D01*
X26313745Y4799996D01*
X26332648Y4680644D01*
X26332650Y4680639D01*
X26387512Y4572965D01*
X26472965Y4487512D01*
X26580639Y4432650D01*
X26580644Y4432648D01*
X26699996Y4413745D01*
X26700000Y4413745D01*
X26700004Y4413745D01*
X26819355Y4432648D01*
X26819360Y4432650D01*
X26927034Y4487512D01*
X27012487Y4572965D01*
X27067349Y4680639D01*
X27067351Y4680644D01*
X27086255Y4799996D01*
X27086255Y4800003D01*
X27067351Y4919355D01*
X27067350Y4919356D01*
X27067350Y4919359D01*
X27012487Y5027035D01*
X26927035Y5112487D01*
X26819359Y5167350D01*
X26819356Y5167350D01*
X26819355Y5167351D01*
X26700004Y5186255D01*
X26699996Y5186255D01*
X26580644Y5167351D01*
X26580639Y5167349D01*
X26472965Y5112487D01*
X26387512Y5027034D01*
X26332650Y4919360D01*
X26332648Y4919355D01*
X26313745Y4800003D01*
X26313745Y4799996D01*
X7024228Y4799996D01*
X6956647Y5034575D01*
X6822220Y5359110D01*
X6734462Y5517896D01*
X18013745Y5517896D01*
X18032648Y5398544D01*
X18032650Y5398539D01*
X18087512Y5290865D01*
X18172965Y5205412D01*
X18280639Y5150550D01*
X18280644Y5150548D01*
X18399996Y5131645D01*
X18400000Y5131645D01*
X18400004Y5131645D01*
X18519355Y5150548D01*
X18519360Y5150550D01*
X18627034Y5205412D01*
X18712487Y5290865D01*
X18739751Y5344375D01*
X18776125Y5375442D01*
X18823813Y5371689D01*
X18851127Y5344376D01*
X18887513Y5272964D01*
X18972965Y5187512D01*
X19080639Y5132650D01*
X19080644Y5132648D01*
X19199996Y5113745D01*
X19200000Y5113745D01*
X19200004Y5113745D01*
X19319355Y5132648D01*
X19319360Y5132650D01*
X19427034Y5187512D01*
X19512487Y5272965D01*
X19567349Y5380639D01*
X19567351Y5380644D01*
X19586255Y5499996D01*
X19586255Y5500003D01*
X19567351Y5619355D01*
X19567350Y5619356D01*
X19567350Y5619359D01*
X19512487Y5727035D01*
X19427035Y5812487D01*
X19319359Y5867350D01*
X19319356Y5867350D01*
X19319355Y5867351D01*
X19200004Y5886255D01*
X19199996Y5886255D01*
X19080644Y5867351D01*
X19080639Y5867349D01*
X18972965Y5812487D01*
X18887512Y5727034D01*
X18860248Y5673524D01*
X18823874Y5642457D01*
X18776186Y5646210D01*
X18748872Y5673524D01*
X18712487Y5744935D01*
X18627035Y5830387D01*
X18519359Y5885250D01*
X18519356Y5885250D01*
X18519355Y5885251D01*
X18400004Y5904155D01*
X18399996Y5904155D01*
X18280644Y5885251D01*
X18280639Y5885249D01*
X18172965Y5830387D01*
X18087512Y5744934D01*
X18032650Y5637260D01*
X18032648Y5637255D01*
X18013745Y5517903D01*
X18013745Y5517896D01*
X6734462Y5517896D01*
X6652303Y5666552D01*
X6449031Y5953037D01*
X6214961Y6214961D01*
X5953037Y6449031D01*
X5666552Y6652303D01*
X5359110Y6822220D01*
X5099640Y6929696D01*
X18013745Y6929696D01*
X18032648Y6810344D01*
X18032650Y6810339D01*
X18087512Y6702665D01*
X18172965Y6617212D01*
X18280639Y6562350D01*
X18280644Y6562348D01*
X18399996Y6543445D01*
X18400000Y6543445D01*
X18400004Y6543445D01*
X18519355Y6562348D01*
X18519360Y6562350D01*
X18627034Y6617212D01*
X18712487Y6702665D01*
X18750470Y6777212D01*
X18786844Y6808279D01*
X18834532Y6804526D01*
X18861844Y6777216D01*
X18864009Y6772966D01*
X18949463Y6687512D01*
X19057137Y6632650D01*
X19057142Y6632648D01*
X19176494Y6613745D01*
X19176498Y6613745D01*
X19176502Y6613745D01*
X19295853Y6632648D01*
X19295858Y6632650D01*
X19403532Y6687512D01*
X19488985Y6772965D01*
X19543847Y6880639D01*
X19543849Y6880644D01*
X19562753Y6999996D01*
X19562753Y7000003D01*
X19546915Y7099996D01*
X25563745Y7099996D01*
X25582648Y6980644D01*
X25582650Y6980639D01*
X25637512Y6872965D01*
X25722965Y6787512D01*
X25830639Y6732650D01*
X25830644Y6732648D01*
X25949996Y6713745D01*
X25950000Y6713745D01*
X25950004Y6713745D01*
X26069355Y6732648D01*
X26069360Y6732650D01*
X26177034Y6787512D01*
X26262487Y6872965D01*
X26317349Y6980639D01*
X26317351Y6980644D01*
X26336255Y7099996D01*
X26336255Y7100003D01*
X26317351Y7219355D01*
X26317350Y7219356D01*
X26317350Y7219359D01*
X26262487Y7327035D01*
X26177035Y7412487D01*
X26069359Y7467350D01*
X26069356Y7467350D01*
X26069355Y7467351D01*
X25950004Y7486255D01*
X25949996Y7486255D01*
X25830644Y7467351D01*
X25830639Y7467349D01*
X25722965Y7412487D01*
X25637512Y7327034D01*
X25582650Y7219360D01*
X25582648Y7219355D01*
X25563745Y7100003D01*
X25563745Y7099996D01*
X19546915Y7099996D01*
X19543849Y7119355D01*
X19543848Y7119356D01*
X19543848Y7119359D01*
X19488985Y7227035D01*
X19403533Y7312487D01*
X19295857Y7367350D01*
X19295854Y7367350D01*
X19295853Y7367351D01*
X19176502Y7386255D01*
X19176494Y7386255D01*
X19057142Y7367351D01*
X19057137Y7367349D01*
X18949463Y7312487D01*
X18864010Y7227034D01*
X18826027Y7152487D01*
X18789653Y7121420D01*
X18741965Y7125173D01*
X18714650Y7152488D01*
X18712487Y7156735D01*
X18627035Y7242187D01*
X18519359Y7297050D01*
X18519356Y7297050D01*
X18519355Y7297051D01*
X18400004Y7315955D01*
X18399996Y7315955D01*
X18280644Y7297051D01*
X18280639Y7297049D01*
X18172965Y7242187D01*
X18087512Y7156734D01*
X18032650Y7049060D01*
X18032648Y7049055D01*
X18013745Y6929703D01*
X18013745Y6929696D01*
X5099640Y6929696D01*
X5034575Y6956647D01*
X5034570Y6956649D01*
X4807293Y7022125D01*
X4697031Y7053891D01*
X4350721Y7112732D01*
X4000000Y7132428D01*
X3649279Y7112732D01*
X3302969Y7053891D01*
X3302962Y7053889D01*
X2965430Y6956649D01*
X2965414Y6956643D01*
X2763399Y6872965D01*
X2640890Y6822220D01*
X2640885Y6822217D01*
X2640878Y6822214D01*
X2511397Y6750651D01*
X2333448Y6652303D01*
X2046963Y6449031D01*
X1785039Y6214961D01*
X1550969Y5953037D01*
X1550967Y5953034D01*
X1550966Y5953033D01*
X1490171Y5867350D01*
X1347697Y5666552D01*
X1321612Y5619355D01*
X1177785Y5359121D01*
X1177778Y5359106D01*
X1043356Y5034585D01*
X1043352Y5034573D01*
X946110Y4697037D01*
X946109Y4697031D01*
X887268Y4350721D01*
X867572Y4000000D01*
X381500Y4000000D01*
X381500Y8199996D01*
X32463745Y8199996D01*
X32482648Y8080644D01*
X32482650Y8080639D01*
X32537512Y7972965D01*
X32622965Y7887512D01*
X32730639Y7832650D01*
X32730644Y7832648D01*
X32849996Y7813745D01*
X32850000Y7813745D01*
X32850004Y7813745D01*
X32969355Y7832648D01*
X32969360Y7832650D01*
X33077034Y7887512D01*
X33162487Y7972965D01*
X33201736Y8049996D01*
X42113745Y8049996D01*
X42132648Y7930644D01*
X42132650Y7930639D01*
X42187512Y7822965D01*
X42272965Y7737512D01*
X42380639Y7682650D01*
X42380644Y7682648D01*
X42499996Y7663745D01*
X42500000Y7663745D01*
X42500004Y7663745D01*
X42619355Y7682648D01*
X42619360Y7682650D01*
X42727034Y7737512D01*
X42812487Y7822965D01*
X42867349Y7930639D01*
X42867351Y7930644D01*
X42886255Y8049996D01*
X42886255Y8050003D01*
X42867351Y8169355D01*
X42867350Y8169356D01*
X42867350Y8169359D01*
X42812487Y8277035D01*
X42727035Y8362487D01*
X42619359Y8417350D01*
X42619356Y8417350D01*
X42619355Y8417351D01*
X42500004Y8436255D01*
X42499996Y8436255D01*
X42380644Y8417351D01*
X42380639Y8417349D01*
X42272965Y8362487D01*
X42187512Y8277034D01*
X42132650Y8169360D01*
X42132648Y8169355D01*
X42113745Y8050003D01*
X42113745Y8049996D01*
X33201736Y8049996D01*
X33217349Y8080639D01*
X33217351Y8080644D01*
X33236255Y8199996D01*
X33236255Y8200003D01*
X33217351Y8319355D01*
X33217350Y8319356D01*
X33217350Y8319359D01*
X33162487Y8427035D01*
X33077035Y8512487D01*
X32969359Y8567350D01*
X32969356Y8567350D01*
X32969355Y8567351D01*
X32850004Y8586255D01*
X32849996Y8586255D01*
X32730644Y8567351D01*
X32730639Y8567349D01*
X32622965Y8512487D01*
X32537512Y8427034D01*
X32482650Y8319360D01*
X32482648Y8319355D01*
X32463745Y8200003D01*
X32463745Y8199996D01*
X381500Y8199996D01*
X381500Y8816048D01*
X617500Y8816048D01*
X620735Y8780443D01*
X623611Y8748796D01*
X623612Y8748793D01*
X623612Y8748792D01*
X671836Y8594037D01*
X755694Y8455316D01*
X870316Y8340694D01*
X1009037Y8256836D01*
X1163791Y8208612D01*
X1163801Y8208610D01*
X1231036Y8202500D01*
X1231045Y8202500D01*
X2258951Y8202500D01*
X2290601Y8205376D01*
X2326204Y8208611D01*
X2480963Y8256836D01*
X2584390Y8319359D01*
X2619683Y8340694D01*
X2734305Y8455316D01*
X2739400Y8463745D01*
X2818164Y8594037D01*
X2866389Y8748796D01*
X2872500Y8816045D01*
X2872500Y8816048D01*
X4797500Y8816048D01*
X4800735Y8780443D01*
X4803611Y8748796D01*
X4803612Y8748793D01*
X4803612Y8748792D01*
X4851836Y8594037D01*
X4935694Y8455316D01*
X5050316Y8340694D01*
X5189037Y8256836D01*
X5343791Y8208612D01*
X5343801Y8208610D01*
X5411036Y8202500D01*
X5411045Y8202500D01*
X6438951Y8202500D01*
X6470601Y8205376D01*
X6506204Y8208611D01*
X6660963Y8256836D01*
X6764390Y8319359D01*
X6799683Y8340694D01*
X6914305Y8455316D01*
X6919400Y8463745D01*
X6998164Y8594037D01*
X7046389Y8748796D01*
X7052500Y8816045D01*
X7052500Y8849996D01*
X23613745Y8849996D01*
X23632648Y8730644D01*
X23632650Y8730639D01*
X23687512Y8622965D01*
X23772965Y8537512D01*
X23880639Y8482650D01*
X23880644Y8482648D01*
X23999996Y8463745D01*
X24000000Y8463745D01*
X24000004Y8463745D01*
X24119355Y8482648D01*
X24119360Y8482650D01*
X24227034Y8537512D01*
X24312487Y8622965D01*
X24367349Y8730639D01*
X24367351Y8730644D01*
X24386255Y8849996D01*
X24386255Y8850003D01*
X24367351Y8969355D01*
X24367350Y8969356D01*
X24367350Y8969359D01*
X24312487Y9077035D01*
X24227035Y9162487D01*
X24119359Y9217350D01*
X24119356Y9217350D01*
X24119355Y9217351D01*
X24000004Y9236255D01*
X23999996Y9236255D01*
X23880644Y9217351D01*
X23880639Y9217349D01*
X23772965Y9162487D01*
X23687512Y9077034D01*
X23632650Y8969360D01*
X23632648Y8969355D01*
X23613745Y8850003D01*
X23613745Y8849996D01*
X7052500Y8849996D01*
X7052499Y9043954D01*
X7046389Y9111204D01*
X6998164Y9265963D01*
X6914305Y9404684D01*
X6889758Y9429231D01*
X12931245Y9429231D01*
X12950148Y9309879D01*
X12950150Y9309874D01*
X13005012Y9202200D01*
X13090465Y9116747D01*
X13198139Y9061885D01*
X13198144Y9061883D01*
X13317496Y9042980D01*
X13317500Y9042980D01*
X13317504Y9042980D01*
X13436855Y9061883D01*
X13436860Y9061885D01*
X13544534Y9116747D01*
X13629987Y9202200D01*
X13684849Y9309874D01*
X13684851Y9309879D01*
X13703755Y9429231D01*
X13703755Y9429238D01*
X13684851Y9548590D01*
X13684850Y9548591D01*
X13684850Y9548594D01*
X13629987Y9656270D01*
X13544535Y9741722D01*
X13436859Y9796585D01*
X13436856Y9796585D01*
X13436855Y9796586D01*
X13317504Y9815490D01*
X13317496Y9815490D01*
X13198144Y9796586D01*
X13198139Y9796584D01*
X13090465Y9741722D01*
X13005012Y9656269D01*
X12950150Y9548595D01*
X12950148Y9548590D01*
X12931245Y9429238D01*
X12931245Y9429231D01*
X6889758Y9429231D01*
X6799684Y9519305D01*
X6660963Y9603164D01*
X6506204Y9651389D01*
X6438955Y9657500D01*
X5411046Y9657499D01*
X5343796Y9651389D01*
X5189037Y9603164D01*
X5050316Y9519305D01*
X4935695Y9404684D01*
X4851836Y9265963D01*
X4851836Y9265962D01*
X4803612Y9111208D01*
X4803610Y9111198D01*
X4797500Y9043964D01*
X4797500Y8816048D01*
X2872500Y8816048D01*
X2872499Y9043954D01*
X2866389Y9111204D01*
X2818164Y9265963D01*
X2734305Y9404684D01*
X2619684Y9519305D01*
X2480963Y9603164D01*
X2326204Y9651389D01*
X2258955Y9657500D01*
X1231046Y9657499D01*
X1163796Y9651389D01*
X1009037Y9603164D01*
X870316Y9519305D01*
X755695Y9404684D01*
X671836Y9265963D01*
X671836Y9265962D01*
X623612Y9111208D01*
X623610Y9111198D01*
X617500Y9043964D01*
X617500Y8816048D01*
X381500Y8816048D01*
X381500Y9899996D01*
X9163745Y9899996D01*
X9182648Y9780644D01*
X9182650Y9780639D01*
X9237512Y9672965D01*
X9322965Y9587512D01*
X9430639Y9532650D01*
X9430644Y9532648D01*
X9549996Y9513745D01*
X9550000Y9513745D01*
X9550004Y9513745D01*
X9669355Y9532648D01*
X9669360Y9532650D01*
X9777034Y9587512D01*
X9830806Y9641284D01*
X9875000Y9659590D01*
X9919194Y9641284D01*
X9972965Y9587512D01*
X10080639Y9532650D01*
X10080644Y9532648D01*
X10199996Y9513745D01*
X10200000Y9513745D01*
X10200004Y9513745D01*
X10319355Y9532648D01*
X10319360Y9532650D01*
X10427034Y9587512D01*
X10512487Y9672965D01*
X10567349Y9780639D01*
X10567351Y9780644D01*
X10586255Y9899996D01*
X10586255Y9900003D01*
X10567351Y10019355D01*
X10567350Y10019356D01*
X10567350Y10019359D01*
X10512487Y10127035D01*
X10427035Y10212487D01*
X10319359Y10267350D01*
X10319356Y10267350D01*
X10319355Y10267351D01*
X10200004Y10286255D01*
X10199996Y10286255D01*
X10080644Y10267351D01*
X10080639Y10267349D01*
X9972965Y10212487D01*
X9919194Y10158716D01*
X9875000Y10140410D01*
X9830806Y10158716D01*
X9830805Y10158716D01*
X9777035Y10212487D01*
X9669359Y10267350D01*
X9669356Y10267350D01*
X9669355Y10267351D01*
X9550004Y10286255D01*
X9549996Y10286255D01*
X9430644Y10267351D01*
X9430639Y10267349D01*
X9322965Y10212487D01*
X9237512Y10127034D01*
X9182650Y10019360D01*
X9182648Y10019355D01*
X9163745Y9900003D01*
X9163745Y9899996D01*
X381500Y9899996D01*
X381500Y10394197D01*
X5043669Y10394197D01*
X5053861Y10258173D01*
X5053863Y10258165D01*
X5103695Y10131197D01*
X5103697Y10131194D01*
X5188746Y10024546D01*
X5188748Y10024544D01*
X5301451Y9947706D01*
X5301454Y9947704D01*
X5431794Y9907500D01*
X5431797Y9907500D01*
X5533909Y9907500D01*
X5533910Y9907500D01*
X5634883Y9922719D01*
X5634886Y9922719D01*
X5757779Y9981903D01*
X5757781Y9981904D01*
X5857775Y10074684D01*
X5925978Y10192816D01*
X5956331Y10325803D01*
X5946138Y10461828D01*
X5896303Y10588805D01*
X5811255Y10695453D01*
X5698550Y10772293D01*
X5698546Y10772294D01*
X5698545Y10772295D01*
X5627591Y10794180D01*
X5568204Y10812499D01*
X5568204Y10812500D01*
X5568203Y10812500D01*
X5466090Y10812500D01*
X5365117Y10797281D01*
X5365115Y10797280D01*
X5365113Y10797280D01*
X5313233Y10772295D01*
X5242219Y10738096D01*
X5187703Y10687513D01*
X5142224Y10645315D01*
X5074021Y10527183D01*
X5043669Y10394197D01*
X381500Y10394197D01*
X381500Y10999996D01*
X28363745Y10999996D01*
X28382648Y10880644D01*
X28382650Y10880639D01*
X28437512Y10772965D01*
X28522965Y10687512D01*
X28630639Y10632650D01*
X28630644Y10632648D01*
X28749996Y10613745D01*
X28750000Y10613745D01*
X28750004Y10613745D01*
X28869355Y10632648D01*
X28869360Y10632650D01*
X28977034Y10687512D01*
X29062487Y10772965D01*
X29117349Y10880639D01*
X29117351Y10880644D01*
X29136255Y10999996D01*
X29136255Y11000003D01*
X29117351Y11119355D01*
X29117350Y11119356D01*
X29117350Y11119359D01*
X29062487Y11227035D01*
X28977035Y11312487D01*
X28869359Y11367350D01*
X28869356Y11367350D01*
X28869355Y11367351D01*
X28750004Y11386255D01*
X28749996Y11386255D01*
X28630644Y11367351D01*
X28630639Y11367349D01*
X28522965Y11312487D01*
X28437512Y11227034D01*
X28382650Y11119360D01*
X28382648Y11119355D01*
X28363745Y11000003D01*
X28363745Y10999996D01*
X381500Y10999996D01*
X381500Y12299996D01*
X25657745Y12299996D01*
X25676648Y12180644D01*
X25676650Y12180639D01*
X25731512Y12072965D01*
X25816965Y11987512D01*
X25924639Y11932650D01*
X25924644Y11932648D01*
X26043996Y11913745D01*
X26044000Y11913745D01*
X26044004Y11913745D01*
X26163355Y11932648D01*
X26163360Y11932650D01*
X26271034Y11987512D01*
X26356487Y12072965D01*
X26411349Y12180639D01*
X26411351Y12180644D01*
X26430255Y12299996D01*
X26430255Y12300003D01*
X26411351Y12419355D01*
X26411350Y12419356D01*
X26411350Y12419359D01*
X26356487Y12527035D01*
X26271035Y12612487D01*
X26163359Y12667350D01*
X26163356Y12667350D01*
X26163355Y12667351D01*
X26044004Y12686255D01*
X26043996Y12686255D01*
X25924644Y12667351D01*
X25924639Y12667349D01*
X25816965Y12612487D01*
X25731512Y12527034D01*
X25676650Y12419360D01*
X25676648Y12419355D01*
X25657745Y12300003D01*
X25657745Y12299996D01*
X381500Y12299996D01*
X381500Y12753866D01*
X7130191Y12753866D01*
X7149094Y12634514D01*
X7149096Y12634509D01*
X7203958Y12526835D01*
X7289411Y12441382D01*
X7397085Y12386520D01*
X7397090Y12386518D01*
X7516442Y12367615D01*
X7516446Y12367615D01*
X7516450Y12367615D01*
X7635801Y12386518D01*
X7635806Y12386520D01*
X7743480Y12441382D01*
X7828933Y12526835D01*
X7883795Y12634509D01*
X7883797Y12634514D01*
X7902701Y12753866D01*
X7902701Y12753873D01*
X7883797Y12873225D01*
X7883796Y12873226D01*
X7883796Y12873229D01*
X7828933Y12980905D01*
X7743481Y13066357D01*
X7635805Y13121220D01*
X7635802Y13121220D01*
X7635801Y13121221D01*
X7516450Y13140125D01*
X7516442Y13140125D01*
X7397090Y13121221D01*
X7397085Y13121219D01*
X7289411Y13066357D01*
X7203958Y12980904D01*
X7149096Y12873230D01*
X7149094Y12873225D01*
X7130191Y12753873D01*
X7130191Y12753866D01*
X381500Y12753866D01*
X381500Y13349996D01*
X20063745Y13349996D01*
X20082648Y13230644D01*
X20082650Y13230639D01*
X20137512Y13122965D01*
X20222965Y13037512D01*
X20330639Y12982650D01*
X20330644Y12982648D01*
X20449996Y12963745D01*
X20450000Y12963745D01*
X20450004Y12963745D01*
X20569355Y12982648D01*
X20569360Y12982650D01*
X20677034Y13037512D01*
X20689518Y13049996D01*
X41913745Y13049996D01*
X41932648Y12930644D01*
X41932650Y12930639D01*
X41987512Y12822965D01*
X42072965Y12737512D01*
X42180639Y12682650D01*
X42180644Y12682648D01*
X42299996Y12663745D01*
X42300000Y12663745D01*
X42300004Y12663745D01*
X42419355Y12682648D01*
X42419360Y12682650D01*
X42527034Y12737512D01*
X42612487Y12822965D01*
X42667349Y12930639D01*
X42667351Y12930644D01*
X42686255Y13049996D01*
X42686255Y13050003D01*
X42667351Y13169355D01*
X42667350Y13169356D01*
X42667350Y13169359D01*
X42612487Y13277035D01*
X42527035Y13362487D01*
X42419359Y13417350D01*
X42419356Y13417350D01*
X42419355Y13417351D01*
X42300004Y13436255D01*
X42299996Y13436255D01*
X42180644Y13417351D01*
X42180639Y13417349D01*
X42072965Y13362487D01*
X41987512Y13277034D01*
X41932650Y13169360D01*
X41932648Y13169355D01*
X41913745Y13050003D01*
X41913745Y13049996D01*
X20689518Y13049996D01*
X20762487Y13122965D01*
X20817349Y13230639D01*
X20817351Y13230644D01*
X20836255Y13349996D01*
X20836255Y13350003D01*
X20817351Y13469355D01*
X20817350Y13469356D01*
X20817350Y13469359D01*
X20762487Y13577035D01*
X20677035Y13662487D01*
X20569359Y13717350D01*
X20569356Y13717350D01*
X20569355Y13717351D01*
X20450004Y13736255D01*
X20449996Y13736255D01*
X20330644Y13717351D01*
X20330639Y13717349D01*
X20222965Y13662487D01*
X20137512Y13577034D01*
X20082650Y13469360D01*
X20082648Y13469355D01*
X20063745Y13350003D01*
X20063745Y13349996D01*
X381500Y13349996D01*
X381500Y14005792D01*
X5138947Y14005792D01*
X5157850Y13886440D01*
X5157852Y13886435D01*
X5212714Y13778761D01*
X5298167Y13693308D01*
X5405841Y13638446D01*
X5405846Y13638444D01*
X5525198Y13619541D01*
X5525202Y13619541D01*
X5525206Y13619541D01*
X5644557Y13638444D01*
X5644562Y13638446D01*
X5752236Y13693308D01*
X5837689Y13778761D01*
X5892551Y13886435D01*
X5892553Y13886440D01*
X5911457Y14005792D01*
X5911457Y14005799D01*
X5892553Y14125151D01*
X5892552Y14125152D01*
X5892552Y14125155D01*
X5837689Y14232831D01*
X5752237Y14318283D01*
X5644561Y14373146D01*
X5644558Y14373146D01*
X5644557Y14373147D01*
X5525206Y14392051D01*
X5525198Y14392051D01*
X5405846Y14373147D01*
X5405841Y14373145D01*
X5298167Y14318283D01*
X5212714Y14232830D01*
X5157852Y14125156D01*
X5157850Y14125151D01*
X5138947Y14005799D01*
X5138947Y14005792D01*
X381500Y14005792D01*
X381500Y14424296D01*
X38660356Y14424296D01*
X38679259Y14304944D01*
X38679261Y14304939D01*
X38734123Y14197265D01*
X38819576Y14111812D01*
X38927250Y14056950D01*
X38927255Y14056948D01*
X39046607Y14038045D01*
X39046611Y14038045D01*
X39046615Y14038045D01*
X39165966Y14056948D01*
X39165971Y14056950D01*
X39273645Y14111812D01*
X39359098Y14197265D01*
X39413960Y14304939D01*
X39413962Y14304944D01*
X39432866Y14424296D01*
X39432866Y14424303D01*
X39413962Y14543655D01*
X39413961Y14543656D01*
X39413961Y14543659D01*
X39359098Y14651335D01*
X39273646Y14736787D01*
X39165970Y14791650D01*
X39165967Y14791650D01*
X39165966Y14791651D01*
X39046615Y14810555D01*
X39046607Y14810555D01*
X38927255Y14791651D01*
X38927250Y14791649D01*
X38819576Y14736787D01*
X38734123Y14651334D01*
X38679261Y14543660D01*
X38679259Y14543655D01*
X38660356Y14424303D01*
X38660356Y14424296D01*
X381500Y14424296D01*
X381500Y15049996D01*
X24950745Y15049996D01*
X24969648Y14930644D01*
X24969650Y14930639D01*
X25024512Y14822965D01*
X25109965Y14737512D01*
X25217639Y14682650D01*
X25217644Y14682648D01*
X25336996Y14663745D01*
X25337000Y14663745D01*
X25337004Y14663745D01*
X25456355Y14682648D01*
X25456360Y14682650D01*
X25564034Y14737512D01*
X25649487Y14822965D01*
X25704349Y14930639D01*
X25704351Y14930644D01*
X25723255Y15049996D01*
X25723255Y15050003D01*
X25704351Y15169355D01*
X25704350Y15169356D01*
X25704350Y15169359D01*
X25688740Y15199996D01*
X41063745Y15199996D01*
X41082648Y15080644D01*
X41082650Y15080639D01*
X41137512Y14972965D01*
X41222965Y14887512D01*
X41330639Y14832650D01*
X41330644Y14832648D01*
X41449996Y14813745D01*
X41450000Y14813745D01*
X41450004Y14813745D01*
X41569355Y14832648D01*
X41569360Y14832650D01*
X41677034Y14887512D01*
X41739518Y14949996D01*
X44813745Y14949996D01*
X44832648Y14830644D01*
X44832650Y14830639D01*
X44887512Y14722965D01*
X44972965Y14637512D01*
X45080639Y14582650D01*
X45080644Y14582648D01*
X45199996Y14563745D01*
X45200000Y14563745D01*
X45200004Y14563745D01*
X45319355Y14582648D01*
X45319360Y14582650D01*
X45427034Y14637512D01*
X45512487Y14722965D01*
X45567349Y14830639D01*
X45567351Y14830644D01*
X45586255Y14949996D01*
X45586255Y14950003D01*
X45567351Y15069355D01*
X45567350Y15069356D01*
X45567350Y15069359D01*
X45512487Y15177035D01*
X45427035Y15262487D01*
X45319359Y15317350D01*
X45319356Y15317350D01*
X45319355Y15317351D01*
X45200004Y15336255D01*
X45199996Y15336255D01*
X45080644Y15317351D01*
X45080639Y15317349D01*
X44972965Y15262487D01*
X44887512Y15177034D01*
X44832650Y15069360D01*
X44832648Y15069355D01*
X44813745Y14950003D01*
X44813745Y14949996D01*
X41739518Y14949996D01*
X41762487Y14972965D01*
X41817349Y15080639D01*
X41817351Y15080644D01*
X41836255Y15199996D01*
X41836255Y15200003D01*
X41817351Y15319355D01*
X41817350Y15319356D01*
X41817350Y15319359D01*
X41762487Y15427035D01*
X41677035Y15512487D01*
X41569359Y15567350D01*
X41569356Y15567350D01*
X41569355Y15567351D01*
X41450004Y15586255D01*
X41449996Y15586255D01*
X41330644Y15567351D01*
X41330639Y15567349D01*
X41222965Y15512487D01*
X41137512Y15427034D01*
X41082650Y15319360D01*
X41082648Y15319355D01*
X41063745Y15200003D01*
X41063745Y15199996D01*
X25688740Y15199996D01*
X25649487Y15277035D01*
X25564035Y15362487D01*
X25456359Y15417350D01*
X25456356Y15417350D01*
X25456355Y15417351D01*
X25337004Y15436255D01*
X25336996Y15436255D01*
X25217644Y15417351D01*
X25217639Y15417349D01*
X25109965Y15362487D01*
X25024512Y15277034D01*
X24969650Y15169360D01*
X24969648Y15169355D01*
X24950745Y15050003D01*
X24950745Y15049996D01*
X381500Y15049996D01*
X381500Y16174197D01*
X5043669Y16174197D01*
X5053861Y16038173D01*
X5053863Y16038165D01*
X5103695Y15911197D01*
X5103697Y15911194D01*
X5188746Y15804546D01*
X5188748Y15804544D01*
X5301451Y15727706D01*
X5301454Y15727704D01*
X5431794Y15687500D01*
X5431797Y15687500D01*
X5533909Y15687500D01*
X5533910Y15687500D01*
X5634883Y15702719D01*
X5634886Y15702719D01*
X5757779Y15761903D01*
X5757781Y15761904D01*
X5857775Y15854684D01*
X5898369Y15924996D01*
X38338745Y15924996D01*
X38357648Y15805644D01*
X38357650Y15805639D01*
X38412512Y15697965D01*
X38497965Y15612512D01*
X38605639Y15557650D01*
X38605644Y15557648D01*
X38724996Y15538745D01*
X38725000Y15538745D01*
X38725004Y15538745D01*
X38844355Y15557648D01*
X38844360Y15557650D01*
X38952034Y15612512D01*
X39040965Y15701443D01*
X39042634Y15699773D01*
X39076512Y15720531D01*
X39086286Y15721300D01*
X41529586Y15721300D01*
X41550231Y15717792D01*
X41551422Y15717375D01*
X41551423Y15717375D01*
X41558847Y15718211D01*
X41584514Y15721103D01*
X41588016Y15721300D01*
X41597769Y15721300D01*
X41597771Y15721300D01*
X41607281Y15723470D01*
X41610734Y15724057D01*
X41643825Y15727785D01*
X41644899Y15728460D01*
X41664232Y15736468D01*
X41665468Y15736750D01*
X41665471Y15736751D01*
X41691500Y15757509D01*
X41694361Y15759539D01*
X41702618Y15764727D01*
X41702625Y15764732D01*
X41709529Y15771636D01*
X41712135Y15773964D01*
X41723042Y15782663D01*
X41762012Y15796300D01*
X47197190Y15796300D01*
X47241384Y15777994D01*
X47254646Y15764732D01*
X47257934Y15761444D01*
X47276238Y15717249D01*
X47275469Y15707475D01*
X47273963Y15697965D01*
X47267028Y15654175D01*
X47267027Y15654170D01*
X47267027Y15654168D01*
X47285930Y15534816D01*
X47285932Y15534811D01*
X47340794Y15427137D01*
X47426247Y15341684D01*
X47533921Y15286822D01*
X47533926Y15286820D01*
X47653278Y15267917D01*
X47653282Y15267917D01*
X47653286Y15267917D01*
X47772637Y15286820D01*
X47772642Y15286822D01*
X47880316Y15341684D01*
X47965769Y15427137D01*
X48020631Y15534811D01*
X48020633Y15534816D01*
X48039537Y15654168D01*
X48039537Y15654175D01*
X48020633Y15773527D01*
X48020632Y15773528D01*
X48020632Y15773531D01*
X47965769Y15881207D01*
X47880317Y15966659D01*
X47772641Y16021522D01*
X47772638Y16021522D01*
X47772637Y16021523D01*
X47653286Y16040427D01*
X47653280Y16040427D01*
X47599979Y16031984D01*
X47553465Y16043150D01*
X47546021Y16049506D01*
X47483469Y16112059D01*
X47471356Y16129133D01*
X47470809Y16130271D01*
X47444767Y16151037D01*
X47442174Y16153354D01*
X47435261Y16160269D01*
X47426994Y16165462D01*
X47424133Y16167493D01*
X47415727Y16174197D01*
X47398109Y16188248D01*
X47396877Y16188529D01*
X47377528Y16196544D01*
X47376463Y16197214D01*
X47343356Y16200943D01*
X47339930Y16201526D01*
X47330408Y16203700D01*
X47330407Y16203700D01*
X47320653Y16203700D01*
X47317151Y16203897D01*
X47308571Y16204863D01*
X47284060Y16207625D01*
X47283025Y16207263D01*
X47282868Y16207208D01*
X47262223Y16203700D01*
X41779185Y16203700D01*
X41734991Y16222006D01*
X41716685Y16266200D01*
X41723497Y16294574D01*
X41741876Y16330644D01*
X41767350Y16380641D01*
X41767351Y16380644D01*
X41786255Y16499996D01*
X41786255Y16500003D01*
X41767351Y16619355D01*
X41767350Y16619356D01*
X41767350Y16619359D01*
X41712487Y16727035D01*
X41627035Y16812487D01*
X41519359Y16867350D01*
X41519356Y16867350D01*
X41519355Y16867351D01*
X41400004Y16886255D01*
X41399996Y16886255D01*
X41280644Y16867351D01*
X41280639Y16867349D01*
X41172965Y16812487D01*
X41087512Y16727034D01*
X41032650Y16619360D01*
X41032648Y16619355D01*
X41013745Y16500003D01*
X41013745Y16499996D01*
X41032648Y16380644D01*
X41032650Y16380639D01*
X41087512Y16272965D01*
X41125084Y16235394D01*
X41143390Y16191200D01*
X41125084Y16147006D01*
X41080890Y16128700D01*
X39086286Y16128700D01*
X39042092Y16147006D01*
X39039608Y16149913D01*
X39037488Y16152032D01*
X39037487Y16152035D01*
X38952035Y16237487D01*
X38844359Y16292350D01*
X38844356Y16292350D01*
X38844355Y16292351D01*
X38725004Y16311255D01*
X38724996Y16311255D01*
X38605644Y16292351D01*
X38605639Y16292349D01*
X38497965Y16237487D01*
X38412512Y16152034D01*
X38357650Y16044360D01*
X38357648Y16044355D01*
X38338745Y15925003D01*
X38338745Y15924996D01*
X5898369Y15924996D01*
X5925978Y15972816D01*
X5956331Y16105803D01*
X5946138Y16241828D01*
X5926309Y16292350D01*
X5896304Y16368802D01*
X5896303Y16368805D01*
X5811255Y16475453D01*
X5698550Y16552293D01*
X5698546Y16552294D01*
X5698545Y16552295D01*
X5627591Y16574180D01*
X5568204Y16592499D01*
X5568204Y16592500D01*
X5568203Y16592500D01*
X5466090Y16592500D01*
X5365117Y16577281D01*
X5365115Y16577280D01*
X5365113Y16577280D01*
X5313233Y16552295D01*
X5242219Y16518096D01*
X5168824Y16449996D01*
X5142224Y16425315D01*
X5074021Y16307183D01*
X5043669Y16174197D01*
X381500Y16174197D01*
X381500Y17456048D01*
X617500Y17456048D01*
X619185Y17437512D01*
X623611Y17388796D01*
X623612Y17388793D01*
X623612Y17388792D01*
X671836Y17234037D01*
X755694Y17095316D01*
X870316Y16980694D01*
X1009037Y16896836D01*
X1163791Y16848612D01*
X1163801Y16848610D01*
X1231036Y16842500D01*
X1231045Y16842500D01*
X2258951Y16842500D01*
X2290601Y16845376D01*
X2326204Y16848611D01*
X2480963Y16896836D01*
X2606897Y16972965D01*
X2619683Y16980694D01*
X2734305Y17095316D01*
X2753479Y17127034D01*
X2818164Y17234037D01*
X2866389Y17388796D01*
X2872500Y17456045D01*
X2872500Y17456048D01*
X4797500Y17456048D01*
X4799185Y17437512D01*
X4803611Y17388796D01*
X4803612Y17388793D01*
X4803612Y17388792D01*
X4851836Y17234037D01*
X4935694Y17095316D01*
X5050316Y16980694D01*
X5189037Y16896836D01*
X5343791Y16848612D01*
X5343801Y16848610D01*
X5411036Y16842500D01*
X5411045Y16842500D01*
X6438951Y16842500D01*
X6470601Y16845376D01*
X6506204Y16848611D01*
X6660963Y16896836D01*
X6786897Y16972965D01*
X6799683Y16980694D01*
X6914305Y17095316D01*
X6933479Y17127034D01*
X6998164Y17234037D01*
X7040624Y17370296D01*
X19589190Y17370296D01*
X19608093Y17250944D01*
X19608095Y17250939D01*
X19662957Y17143265D01*
X19748410Y17057812D01*
X19856084Y17002950D01*
X19856089Y17002948D01*
X19975441Y16984045D01*
X19975445Y16984045D01*
X19975449Y16984045D01*
X20094800Y17002948D01*
X20094805Y17002950D01*
X20202479Y17057812D01*
X20212471Y17067804D01*
X20256665Y17086110D01*
X20300859Y17067804D01*
X20318395Y17033387D01*
X20326748Y16980644D01*
X20326750Y16980639D01*
X20381612Y16872965D01*
X20467065Y16787512D01*
X20574739Y16732650D01*
X20574744Y16732648D01*
X20694096Y16713745D01*
X20694100Y16713745D01*
X20694104Y16713745D01*
X20813455Y16732648D01*
X20813460Y16732650D01*
X20921134Y16787512D01*
X21006587Y16872965D01*
X21061449Y16980639D01*
X21061451Y16980644D01*
X21080355Y17099996D01*
X21080355Y17100003D01*
X21061451Y17219355D01*
X21061450Y17219356D01*
X21061450Y17219359D01*
X21006587Y17327035D01*
X20921135Y17412487D01*
X20813459Y17467350D01*
X20813456Y17467350D01*
X20813455Y17467351D01*
X20694104Y17486255D01*
X20694096Y17486255D01*
X20574744Y17467351D01*
X20574739Y17467349D01*
X20467065Y17412487D01*
X20457073Y17402495D01*
X20412879Y17384189D01*
X20368685Y17402495D01*
X20351149Y17436909D01*
X20342795Y17489659D01*
X20287932Y17597335D01*
X20202480Y17682787D01*
X20094804Y17737650D01*
X20094801Y17737650D01*
X20094800Y17737651D01*
X20016859Y17749996D01*
X23113745Y17749996D01*
X23132648Y17630644D01*
X23132650Y17630639D01*
X23187512Y17522965D01*
X23272965Y17437512D01*
X23380639Y17382650D01*
X23380644Y17382648D01*
X23499996Y17363745D01*
X23499997Y17363745D01*
X23499998Y17363745D01*
X23500000Y17363745D01*
X23614042Y17381807D01*
X23660556Y17370641D01*
X23685550Y17329854D01*
X23679507Y17291703D01*
X23642647Y17219360D01*
X23642645Y17219355D01*
X23623742Y17100003D01*
X23623742Y17099996D01*
X23642645Y16980644D01*
X23642647Y16980639D01*
X23697509Y16872965D01*
X23782962Y16787512D01*
X23890636Y16732650D01*
X23890641Y16732648D01*
X24009993Y16713745D01*
X24009997Y16713745D01*
X24010001Y16713745D01*
X24129352Y16732648D01*
X24129357Y16732650D01*
X24142322Y16739256D01*
X24190010Y16743009D01*
X24226384Y16711942D01*
X24230137Y16664254D01*
X24226384Y16655194D01*
X24182650Y16569360D01*
X24182648Y16569355D01*
X24163745Y16450003D01*
X24163745Y16449996D01*
X24182648Y16330644D01*
X24182650Y16330639D01*
X24237512Y16222965D01*
X24322965Y16137512D01*
X24430639Y16082650D01*
X24430644Y16082648D01*
X24549996Y16063745D01*
X24550000Y16063745D01*
X24550004Y16063745D01*
X24669355Y16082648D01*
X24669360Y16082650D01*
X24777034Y16137512D01*
X24862487Y16222965D01*
X24917349Y16330639D01*
X24917351Y16330644D01*
X24936255Y16449996D01*
X24936255Y16450003D01*
X24917351Y16569355D01*
X24917350Y16569356D01*
X24917350Y16569359D01*
X24862487Y16677035D01*
X24777035Y16762487D01*
X24669359Y16817350D01*
X24669356Y16817350D01*
X24669355Y16817351D01*
X24550004Y16836255D01*
X24549996Y16836255D01*
X24430644Y16817351D01*
X24430642Y16817350D01*
X24430641Y16817350D01*
X24417673Y16810742D01*
X24369987Y16806990D01*
X24333612Y16838056D01*
X24329859Y16885744D01*
X24333612Y16894805D01*
X24377346Y16980639D01*
X24377348Y16980644D01*
X24396252Y17099996D01*
X24396252Y17100003D01*
X24380414Y17199996D01*
X36463745Y17199996D01*
X36482648Y17080644D01*
X36482650Y17080639D01*
X36537512Y16972965D01*
X36622965Y16887512D01*
X36730639Y16832650D01*
X36730644Y16832648D01*
X36849996Y16813745D01*
X36850000Y16813745D01*
X36850004Y16813745D01*
X36969355Y16832648D01*
X36969360Y16832650D01*
X37077034Y16887512D01*
X37089518Y16899996D01*
X43863745Y16899996D01*
X43882648Y16780644D01*
X43882650Y16780639D01*
X43937512Y16672965D01*
X44022965Y16587512D01*
X44130639Y16532650D01*
X44130644Y16532648D01*
X44249996Y16513745D01*
X44250000Y16513745D01*
X44250004Y16513745D01*
X44369355Y16532648D01*
X44369360Y16532650D01*
X44477034Y16587512D01*
X44562487Y16672965D01*
X44617349Y16780639D01*
X44617351Y16780644D01*
X44636255Y16899996D01*
X44636255Y16900003D01*
X44617351Y17019355D01*
X44617350Y17019356D01*
X44617350Y17019359D01*
X44562487Y17127035D01*
X44477035Y17212487D01*
X44369359Y17267350D01*
X44369356Y17267350D01*
X44369355Y17267351D01*
X44250004Y17286255D01*
X44249996Y17286255D01*
X44130644Y17267351D01*
X44130639Y17267349D01*
X44022965Y17212487D01*
X43937512Y17127034D01*
X43882650Y17019360D01*
X43882648Y17019355D01*
X43863745Y16900003D01*
X43863745Y16899996D01*
X37089518Y16899996D01*
X37162487Y16972965D01*
X37217349Y17080639D01*
X37217351Y17080644D01*
X37236255Y17199996D01*
X37236255Y17200003D01*
X37217351Y17319355D01*
X37217350Y17319356D01*
X37217350Y17319359D01*
X37162487Y17427035D01*
X37077035Y17512487D01*
X36969359Y17567350D01*
X36969356Y17567350D01*
X36969355Y17567351D01*
X36850004Y17586255D01*
X36849996Y17586255D01*
X36730644Y17567351D01*
X36730639Y17567349D01*
X36622965Y17512487D01*
X36537512Y17427034D01*
X36482650Y17319360D01*
X36482648Y17319355D01*
X36463745Y17200003D01*
X36463745Y17199996D01*
X24380414Y17199996D01*
X24377348Y17219355D01*
X24377347Y17219356D01*
X24377347Y17219359D01*
X24322484Y17327035D01*
X24237032Y17412487D01*
X24129356Y17467350D01*
X24129353Y17467350D01*
X24129352Y17467351D01*
X24010001Y17486255D01*
X24009995Y17486255D01*
X23932187Y17473930D01*
X23895954Y17468192D01*
X23849441Y17479358D01*
X23824447Y17520144D01*
X23830489Y17558296D01*
X23867349Y17630639D01*
X23867351Y17630644D01*
X23878336Y17699996D01*
X41063745Y17699996D01*
X41082648Y17580644D01*
X41082650Y17580639D01*
X41137512Y17472965D01*
X41222965Y17387512D01*
X41330639Y17332650D01*
X41330644Y17332648D01*
X41449996Y17313745D01*
X41450000Y17313745D01*
X41450004Y17313745D01*
X41569355Y17332648D01*
X41569360Y17332650D01*
X41677034Y17387512D01*
X41762487Y17472965D01*
X41817349Y17580639D01*
X41817351Y17580644D01*
X41836255Y17699996D01*
X41836255Y17700003D01*
X41817351Y17819355D01*
X41817350Y17819356D01*
X41817350Y17819359D01*
X41762487Y17927035D01*
X41677035Y18012487D01*
X41569359Y18067350D01*
X41569356Y18067350D01*
X41569355Y18067351D01*
X41450004Y18086255D01*
X41449996Y18086255D01*
X41330644Y18067351D01*
X41330639Y18067349D01*
X41222965Y18012487D01*
X41137512Y17927034D01*
X41082650Y17819360D01*
X41082648Y17819355D01*
X41063745Y17700003D01*
X41063745Y17699996D01*
X23878336Y17699996D01*
X23886255Y17749996D01*
X23886255Y17750003D01*
X23867351Y17869355D01*
X23867350Y17869356D01*
X23867350Y17869359D01*
X23812487Y17977035D01*
X23727035Y18062487D01*
X23619359Y18117350D01*
X23619356Y18117350D01*
X23619355Y18117351D01*
X23500004Y18136255D01*
X23499996Y18136255D01*
X23380644Y18117351D01*
X23380639Y18117349D01*
X23272965Y18062487D01*
X23187512Y17977034D01*
X23132650Y17869360D01*
X23132648Y17869355D01*
X23113745Y17750003D01*
X23113745Y17749996D01*
X20016859Y17749996D01*
X19975449Y17756555D01*
X19975441Y17756555D01*
X19856089Y17737651D01*
X19856084Y17737649D01*
X19748410Y17682787D01*
X19662957Y17597334D01*
X19608095Y17489660D01*
X19608093Y17489655D01*
X19589190Y17370303D01*
X19589190Y17370296D01*
X7040624Y17370296D01*
X7046389Y17388796D01*
X7052500Y17456045D01*
X7052499Y17683954D01*
X7046389Y17751204D01*
X6998164Y17905963D01*
X6914305Y18044684D01*
X6799684Y18159305D01*
X6660963Y18243164D01*
X6506204Y18291389D01*
X6438955Y18297500D01*
X5411046Y18297499D01*
X5343796Y18291389D01*
X5189037Y18243164D01*
X5050316Y18159305D01*
X4935695Y18044684D01*
X4851836Y17905963D01*
X4824908Y17819550D01*
X4803612Y17751208D01*
X4803610Y17751198D01*
X4797500Y17683964D01*
X4797500Y17456048D01*
X2872500Y17456048D01*
X2872499Y17683954D01*
X2866389Y17751204D01*
X2818164Y17905963D01*
X2734305Y18044684D01*
X2619684Y18159305D01*
X2480963Y18243164D01*
X2326204Y18291389D01*
X2258955Y18297500D01*
X1231046Y18297499D01*
X1163796Y18291389D01*
X1009037Y18243164D01*
X870316Y18159305D01*
X755695Y18044684D01*
X671836Y17905963D01*
X644908Y17819550D01*
X623612Y17751208D01*
X623610Y17751198D01*
X617500Y17683964D01*
X617500Y17456048D01*
X381500Y17456048D01*
X381500Y18799996D01*
X13113745Y18799996D01*
X13132648Y18680644D01*
X13132650Y18680639D01*
X13187512Y18572965D01*
X13272965Y18487512D01*
X13380639Y18432650D01*
X13380644Y18432648D01*
X13499996Y18413745D01*
X13500000Y18413745D01*
X13500004Y18413745D01*
X13619355Y18432648D01*
X13619360Y18432650D01*
X13727034Y18487512D01*
X13812487Y18572965D01*
X13867349Y18680639D01*
X13867351Y18680644D01*
X13886255Y18799996D01*
X13886255Y18800003D01*
X13867351Y18919355D01*
X13867350Y18919356D01*
X13867350Y18919359D01*
X13812487Y19027035D01*
X13727035Y19112487D01*
X13683839Y19134496D01*
X19879113Y19134496D01*
X19898016Y19015144D01*
X19898018Y19015139D01*
X19952880Y18907465D01*
X20038333Y18822012D01*
X20146007Y18767150D01*
X20146012Y18767148D01*
X20265364Y18748245D01*
X20265368Y18748245D01*
X20265372Y18748245D01*
X20384723Y18767148D01*
X20384728Y18767150D01*
X20492402Y18822012D01*
X20577855Y18907465D01*
X20632717Y19015139D01*
X20632719Y19015144D01*
X20651623Y19134496D01*
X20651623Y19134503D01*
X20633330Y19249996D01*
X38613745Y19249996D01*
X38632648Y19130644D01*
X38632650Y19130639D01*
X38687512Y19022965D01*
X38772965Y18937512D01*
X38880639Y18882650D01*
X38880644Y18882648D01*
X38999996Y18863745D01*
X39000000Y18863745D01*
X39000004Y18863745D01*
X39119355Y18882648D01*
X39119360Y18882650D01*
X39227034Y18937512D01*
X39312487Y19022965D01*
X39367349Y19130639D01*
X39367351Y19130644D01*
X39386255Y19249996D01*
X39386255Y19250003D01*
X39367351Y19369355D01*
X39367350Y19369356D01*
X39367350Y19369359D01*
X39312487Y19477035D01*
X39289526Y19499996D01*
X42163745Y19499996D01*
X42182648Y19380644D01*
X42182650Y19380639D01*
X42237512Y19272965D01*
X42322965Y19187512D01*
X42430639Y19132650D01*
X42430644Y19132648D01*
X42549996Y19113745D01*
X42550000Y19113745D01*
X42550004Y19113745D01*
X42669355Y19132648D01*
X42669360Y19132650D01*
X42777034Y19187512D01*
X42862487Y19272965D01*
X42917349Y19380639D01*
X42917351Y19380644D01*
X42936255Y19499996D01*
X42936255Y19500003D01*
X42917351Y19619355D01*
X42917350Y19619356D01*
X42917350Y19619359D01*
X42862487Y19727035D01*
X42777035Y19812487D01*
X42669359Y19867350D01*
X42669356Y19867350D01*
X42669355Y19867351D01*
X42550004Y19886255D01*
X42549996Y19886255D01*
X42430644Y19867351D01*
X42430639Y19867349D01*
X42322965Y19812487D01*
X42237512Y19727034D01*
X42182650Y19619360D01*
X42182648Y19619355D01*
X42163745Y19500003D01*
X42163745Y19499996D01*
X39289526Y19499996D01*
X39227035Y19562487D01*
X39119359Y19617350D01*
X39119356Y19617350D01*
X39119355Y19617351D01*
X39000004Y19636255D01*
X38999996Y19636255D01*
X38880644Y19617351D01*
X38880639Y19617349D01*
X38772965Y19562487D01*
X38687512Y19477034D01*
X38632650Y19369360D01*
X38632648Y19369355D01*
X38613745Y19250003D01*
X38613745Y19249996D01*
X20633330Y19249996D01*
X20632719Y19253855D01*
X20632718Y19253856D01*
X20632718Y19253859D01*
X20577855Y19361535D01*
X20492403Y19446987D01*
X20384727Y19501850D01*
X20384724Y19501850D01*
X20384723Y19501851D01*
X20265372Y19520755D01*
X20265364Y19520755D01*
X20146012Y19501851D01*
X20146007Y19501849D01*
X20038333Y19446987D01*
X19952880Y19361534D01*
X19898018Y19253860D01*
X19898016Y19253855D01*
X19879113Y19134503D01*
X19879113Y19134496D01*
X13683839Y19134496D01*
X13619359Y19167350D01*
X13619356Y19167350D01*
X13619355Y19167351D01*
X13500004Y19186255D01*
X13499996Y19186255D01*
X13380644Y19167351D01*
X13380639Y19167349D01*
X13272965Y19112487D01*
X13187512Y19027034D01*
X13132650Y18919360D01*
X13132648Y18919355D01*
X13113745Y18800003D01*
X13113745Y18799996D01*
X381500Y18799996D01*
X381500Y19449996D01*
X9063745Y19449996D01*
X9082648Y19330644D01*
X9082650Y19330639D01*
X9137512Y19222965D01*
X9222965Y19137512D01*
X9330639Y19082650D01*
X9330644Y19082648D01*
X9449996Y19063745D01*
X9450000Y19063745D01*
X9450004Y19063745D01*
X9569355Y19082648D01*
X9569360Y19082650D01*
X9677034Y19137512D01*
X9762487Y19222965D01*
X9817349Y19330639D01*
X9817351Y19330644D01*
X9836255Y19449996D01*
X9836255Y19450003D01*
X9817351Y19569355D01*
X9817350Y19569356D01*
X9817350Y19569359D01*
X9762487Y19677035D01*
X9677035Y19762487D01*
X9569359Y19817350D01*
X9569356Y19817350D01*
X9569355Y19817351D01*
X9450004Y19836255D01*
X9449996Y19836255D01*
X9330644Y19817351D01*
X9330639Y19817349D01*
X9222965Y19762487D01*
X9137512Y19677034D01*
X9082650Y19569360D01*
X9082648Y19569355D01*
X9063745Y19450003D01*
X9063745Y19449996D01*
X381500Y19449996D01*
X381500Y20499996D01*
X3163745Y20499996D01*
X3182648Y20380644D01*
X3182650Y20380639D01*
X3237512Y20272965D01*
X3322965Y20187512D01*
X3430639Y20132650D01*
X3430644Y20132648D01*
X3549996Y20113745D01*
X3550000Y20113745D01*
X3550004Y20113745D01*
X3669355Y20132648D01*
X3669360Y20132650D01*
X3777034Y20187512D01*
X3862487Y20272965D01*
X3862879Y20273735D01*
X13695845Y20273735D01*
X13714748Y20154383D01*
X13714750Y20154378D01*
X13769612Y20046704D01*
X13855065Y19961251D01*
X13962739Y19906389D01*
X13962744Y19906387D01*
X14082096Y19887484D01*
X14082100Y19887484D01*
X14082104Y19887484D01*
X14201455Y19906387D01*
X14201460Y19906389D01*
X14309134Y19961251D01*
X14394587Y20046704D01*
X14428412Y20113091D01*
X26818560Y20113091D01*
X26837463Y19993739D01*
X26837465Y19993734D01*
X26892327Y19886060D01*
X26977780Y19800607D01*
X27085454Y19745745D01*
X27085459Y19745743D01*
X27204811Y19726840D01*
X27204815Y19726840D01*
X27204819Y19726840D01*
X27324170Y19745743D01*
X27324175Y19745745D01*
X27431849Y19800607D01*
X27517302Y19886060D01*
X27560222Y19970296D01*
X29513745Y19970296D01*
X29532648Y19850944D01*
X29532650Y19850939D01*
X29587512Y19743265D01*
X29672965Y19657812D01*
X29780639Y19602950D01*
X29780644Y19602948D01*
X29899996Y19584045D01*
X29900000Y19584045D01*
X29900004Y19584045D01*
X30019355Y19602948D01*
X30019360Y19602950D01*
X30127034Y19657812D01*
X30212484Y19743262D01*
X30212487Y19743265D01*
X30212488Y19743268D01*
X30214310Y19745775D01*
X30255097Y19770768D01*
X30301611Y19759600D01*
X30326603Y19718815D01*
X30332649Y19680643D01*
X30332650Y19680639D01*
X30387512Y19572965D01*
X30472965Y19487512D01*
X30580639Y19432650D01*
X30580644Y19432648D01*
X30699996Y19413745D01*
X30700000Y19413745D01*
X30700004Y19413745D01*
X30819355Y19432648D01*
X30819360Y19432650D01*
X30927034Y19487512D01*
X31012487Y19572965D01*
X31067349Y19680639D01*
X31067351Y19680644D01*
X31086255Y19799996D01*
X33389034Y19799996D01*
X33407937Y19680644D01*
X33407939Y19680639D01*
X33462801Y19572965D01*
X33548254Y19487512D01*
X33655928Y19432650D01*
X33655933Y19432648D01*
X33775285Y19413745D01*
X33775289Y19413745D01*
X33775293Y19413745D01*
X33894644Y19432648D01*
X33894649Y19432650D01*
X34002323Y19487512D01*
X34087776Y19572965D01*
X34142638Y19680639D01*
X34142640Y19680644D01*
X34161544Y19799996D01*
X34161544Y19800003D01*
X34142640Y19919355D01*
X34142639Y19919356D01*
X34142639Y19919359D01*
X34087776Y20027035D01*
X34002324Y20112487D01*
X33894648Y20167350D01*
X33894645Y20167350D01*
X33894644Y20167351D01*
X33775293Y20186255D01*
X33775285Y20186255D01*
X33655933Y20167351D01*
X33655928Y20167349D01*
X33548254Y20112487D01*
X33462801Y20027034D01*
X33407939Y19919360D01*
X33407937Y19919355D01*
X33389034Y19800003D01*
X33389034Y19799996D01*
X31086255Y19799996D01*
X31086255Y19800003D01*
X31067351Y19919355D01*
X31067350Y19919356D01*
X31067350Y19919359D01*
X31012487Y20027035D01*
X30927035Y20112487D01*
X30819359Y20167350D01*
X30819356Y20167350D01*
X30819355Y20167351D01*
X30700004Y20186255D01*
X30699996Y20186255D01*
X30580644Y20167351D01*
X30580639Y20167349D01*
X30472965Y20112487D01*
X30387513Y20027035D01*
X30385688Y20024523D01*
X30344900Y19999531D01*
X30298387Y20010700D01*
X30273396Y20051483D01*
X30267350Y20089659D01*
X30212487Y20197335D01*
X30127035Y20282787D01*
X30019359Y20337650D01*
X30019356Y20337650D01*
X30019355Y20337651D01*
X29900004Y20356555D01*
X29899996Y20356555D01*
X29780644Y20337651D01*
X29780639Y20337649D01*
X29672965Y20282787D01*
X29587512Y20197334D01*
X29532650Y20089660D01*
X29532648Y20089655D01*
X29513745Y19970303D01*
X29513745Y19970296D01*
X27560222Y19970296D01*
X27572164Y19993734D01*
X27572166Y19993739D01*
X27591070Y20113091D01*
X27591070Y20113098D01*
X27572166Y20232450D01*
X27572165Y20232451D01*
X27572165Y20232454D01*
X27517302Y20340130D01*
X27431850Y20425582D01*
X27324174Y20480445D01*
X27324171Y20480445D01*
X27324170Y20480446D01*
X27204819Y20499350D01*
X27204811Y20499350D01*
X27085459Y20480446D01*
X27085454Y20480444D01*
X26977780Y20425582D01*
X26892327Y20340129D01*
X26837465Y20232455D01*
X26837463Y20232450D01*
X26818560Y20113098D01*
X26818560Y20113091D01*
X14428412Y20113091D01*
X14449449Y20154378D01*
X14449451Y20154383D01*
X14468355Y20273735D01*
X14468355Y20273742D01*
X14449451Y20393094D01*
X14449450Y20393095D01*
X14449450Y20393098D01*
X14394587Y20500774D01*
X14365665Y20529696D01*
X28813745Y20529696D01*
X28832648Y20410344D01*
X28832650Y20410339D01*
X28887512Y20302665D01*
X28972965Y20217212D01*
X29080639Y20162350D01*
X29080644Y20162348D01*
X29199996Y20143445D01*
X29200000Y20143445D01*
X29200004Y20143445D01*
X29319355Y20162348D01*
X29319360Y20162350D01*
X29427034Y20217212D01*
X29512487Y20302665D01*
X29567349Y20410339D01*
X29567351Y20410344D01*
X29586255Y20529696D01*
X29586255Y20529703D01*
X29567351Y20649055D01*
X29567350Y20649056D01*
X29567350Y20649059D01*
X29512487Y20756735D01*
X29427035Y20842187D01*
X29319359Y20897050D01*
X29319356Y20897050D01*
X29319355Y20897051D01*
X29200004Y20915955D01*
X29199996Y20915955D01*
X29080644Y20897051D01*
X29080639Y20897049D01*
X28972965Y20842187D01*
X28887512Y20756734D01*
X28832650Y20649060D01*
X28832648Y20649055D01*
X28813745Y20529703D01*
X28813745Y20529696D01*
X14365665Y20529696D01*
X14309135Y20586226D01*
X14201459Y20641089D01*
X14201456Y20641089D01*
X14201455Y20641090D01*
X14082104Y20659994D01*
X14082096Y20659994D01*
X13962744Y20641090D01*
X13962739Y20641088D01*
X13855065Y20586226D01*
X13769612Y20500773D01*
X13714750Y20393099D01*
X13714748Y20393094D01*
X13695845Y20273742D01*
X13695845Y20273735D01*
X3862879Y20273735D01*
X3917349Y20380639D01*
X3917351Y20380644D01*
X3936255Y20499996D01*
X3936255Y20500003D01*
X3917351Y20619355D01*
X3917350Y20619356D01*
X3917350Y20619359D01*
X3862487Y20727035D01*
X3777035Y20812487D01*
X3669359Y20867350D01*
X3669356Y20867350D01*
X3669355Y20867351D01*
X3550004Y20886255D01*
X3549996Y20886255D01*
X3430644Y20867351D01*
X3430639Y20867349D01*
X3322965Y20812487D01*
X3237512Y20727034D01*
X3182650Y20619360D01*
X3182648Y20619355D01*
X3163745Y20500003D01*
X3163745Y20499996D01*
X381500Y20499996D01*
X381500Y21250000D01*
X4863644Y21250000D01*
X4883013Y21065714D01*
X4940272Y20889491D01*
X4940273Y20889488D01*
X4940274Y20889487D01*
X4973089Y20832650D01*
X5032922Y20729014D01*
X5156908Y20591311D01*
X5306823Y20482392D01*
X5476089Y20407029D01*
X5476105Y20407023D01*
X5657351Y20368500D01*
X5842649Y20368500D01*
X6023894Y20407023D01*
X6023910Y20407029D01*
X6193176Y20482392D01*
X6193178Y20482393D01*
X6343088Y20591309D01*
X6343091Y20591311D01*
X6433626Y20691862D01*
X6467077Y20729013D01*
X6559726Y20889487D01*
X6563141Y20899996D01*
X12284045Y20899996D01*
X12302948Y20780644D01*
X12302950Y20780639D01*
X12357812Y20672965D01*
X12443265Y20587512D01*
X12550939Y20532650D01*
X12550944Y20532648D01*
X12670296Y20513745D01*
X12670300Y20513745D01*
X12670304Y20513745D01*
X12789655Y20532648D01*
X12789660Y20532650D01*
X12897334Y20587512D01*
X12982787Y20672965D01*
X13037649Y20780639D01*
X13037651Y20780644D01*
X13056555Y20899996D01*
X13056555Y20900003D01*
X13037651Y21019355D01*
X13037650Y21019356D01*
X13037650Y21019359D01*
X12982787Y21127035D01*
X12909826Y21199996D01*
X27513745Y21199996D01*
X27532648Y21080644D01*
X27532650Y21080639D01*
X27587512Y20972965D01*
X27672965Y20887512D01*
X27780639Y20832650D01*
X27780644Y20832648D01*
X27899996Y20813745D01*
X27900000Y20813745D01*
X27900004Y20813745D01*
X28019355Y20832648D01*
X28019360Y20832650D01*
X28127034Y20887512D01*
X28212487Y20972965D01*
X28251991Y21050496D01*
X34663745Y21050496D01*
X34682648Y20931144D01*
X34682650Y20931139D01*
X34737512Y20823465D01*
X34822965Y20738012D01*
X34930639Y20683150D01*
X34930644Y20683148D01*
X35049996Y20664245D01*
X35050000Y20664245D01*
X35050004Y20664245D01*
X35169355Y20683148D01*
X35169360Y20683150D01*
X35240067Y20719176D01*
X35287755Y20722929D01*
X35324129Y20691862D01*
X35330171Y20653711D01*
X35313745Y20550003D01*
X35313745Y20549996D01*
X35332648Y20430644D01*
X35332650Y20430639D01*
X35387512Y20322965D01*
X35472965Y20237512D01*
X35580639Y20182650D01*
X35580644Y20182648D01*
X35699996Y20163745D01*
X35700000Y20163745D01*
X35700004Y20163745D01*
X35819355Y20182648D01*
X35819360Y20182650D01*
X35881366Y20214243D01*
X35929054Y20217996D01*
X35965428Y20186929D01*
X35971470Y20148778D01*
X35963746Y20100003D01*
X35963745Y20099997D01*
X35963745Y20099996D01*
X35982648Y19980644D01*
X35982650Y19980639D01*
X36037512Y19872965D01*
X36122965Y19787512D01*
X36230639Y19732650D01*
X36230644Y19732648D01*
X36349996Y19713745D01*
X36350000Y19713745D01*
X36350004Y19713745D01*
X36469355Y19732648D01*
X36469360Y19732650D01*
X36577034Y19787512D01*
X36662487Y19872965D01*
X36717349Y19980639D01*
X36717351Y19980644D01*
X36736255Y20099996D01*
X36736255Y20100003D01*
X36717351Y20219355D01*
X36717350Y20219356D01*
X36717350Y20219359D01*
X36662487Y20327035D01*
X36577035Y20412487D01*
X36469359Y20467350D01*
X36469356Y20467350D01*
X36469355Y20467351D01*
X36350004Y20486255D01*
X36349996Y20486255D01*
X36230644Y20467351D01*
X36230639Y20467349D01*
X36168633Y20435756D01*
X36120945Y20432003D01*
X36084571Y20463070D01*
X36078723Y20499996D01*
X38613745Y20499996D01*
X38632648Y20380644D01*
X38632650Y20380639D01*
X38687512Y20272965D01*
X38772965Y20187512D01*
X38880639Y20132650D01*
X38880644Y20132648D01*
X38999996Y20113745D01*
X39000000Y20113745D01*
X39000004Y20113745D01*
X39119355Y20132648D01*
X39119360Y20132650D01*
X39227034Y20187512D01*
X39312487Y20272965D01*
X39351736Y20349996D01*
X43863745Y20349996D01*
X43882648Y20230644D01*
X43882650Y20230639D01*
X43937512Y20122965D01*
X44022965Y20037512D01*
X44130639Y19982650D01*
X44130644Y19982648D01*
X44249996Y19963745D01*
X44250000Y19963745D01*
X44250004Y19963745D01*
X44369355Y19982648D01*
X44369360Y19982650D01*
X44477034Y20037512D01*
X44562487Y20122965D01*
X44617349Y20230639D01*
X44617351Y20230644D01*
X44636255Y20349996D01*
X44636255Y20350003D01*
X44617351Y20469355D01*
X44617350Y20469356D01*
X44617350Y20469359D01*
X44562487Y20577035D01*
X44477035Y20662487D01*
X44369359Y20717350D01*
X44369356Y20717350D01*
X44369355Y20717351D01*
X44250004Y20736255D01*
X44249996Y20736255D01*
X44130644Y20717351D01*
X44130639Y20717349D01*
X44022965Y20662487D01*
X43937512Y20577034D01*
X43882650Y20469360D01*
X43882648Y20469355D01*
X43863745Y20350003D01*
X43863745Y20349996D01*
X39351736Y20349996D01*
X39367349Y20380639D01*
X39367351Y20380644D01*
X39386255Y20499996D01*
X39386255Y20500003D01*
X39367351Y20619355D01*
X39367350Y20619356D01*
X39367350Y20619359D01*
X39312487Y20727035D01*
X39227035Y20812487D01*
X39119359Y20867350D01*
X39119356Y20867350D01*
X39119355Y20867351D01*
X39000004Y20886255D01*
X38999996Y20886255D01*
X38880644Y20867351D01*
X38880639Y20867349D01*
X38772965Y20812487D01*
X38687512Y20727034D01*
X38632650Y20619360D01*
X38632648Y20619355D01*
X38613745Y20500003D01*
X38613745Y20499996D01*
X36078723Y20499996D01*
X36078529Y20501222D01*
X36086255Y20549997D01*
X36086255Y20550003D01*
X36067351Y20669355D01*
X36067350Y20669356D01*
X36067350Y20669359D01*
X36012487Y20777035D01*
X35927035Y20862487D01*
X35819359Y20917350D01*
X35819356Y20917350D01*
X35819355Y20917351D01*
X35700004Y20936255D01*
X35699996Y20936255D01*
X35580644Y20917351D01*
X35580639Y20917349D01*
X35509932Y20881323D01*
X35462244Y20877570D01*
X35425870Y20908637D01*
X35419828Y20946789D01*
X35436255Y21050497D01*
X35436255Y21050503D01*
X35417351Y21169855D01*
X35417350Y21169856D01*
X35417350Y21169859D01*
X35376519Y21249996D01*
X42163745Y21249996D01*
X42182648Y21130644D01*
X42182650Y21130639D01*
X42237512Y21022965D01*
X42322965Y20937512D01*
X42430639Y20882650D01*
X42430644Y20882648D01*
X42549996Y20863745D01*
X42550000Y20863745D01*
X42550004Y20863745D01*
X42669355Y20882648D01*
X42669360Y20882650D01*
X42777034Y20937512D01*
X42862487Y21022965D01*
X42917349Y21130639D01*
X42917351Y21130644D01*
X42936255Y21249996D01*
X42936255Y21250003D01*
X42917351Y21369355D01*
X42917350Y21369356D01*
X42917350Y21369359D01*
X42862487Y21477035D01*
X42777035Y21562487D01*
X42669359Y21617350D01*
X42669356Y21617350D01*
X42669355Y21617351D01*
X42550004Y21636255D01*
X42549996Y21636255D01*
X42430644Y21617351D01*
X42430639Y21617349D01*
X42322965Y21562487D01*
X42237512Y21477034D01*
X42182650Y21369360D01*
X42182648Y21369355D01*
X42163745Y21250003D01*
X42163745Y21249996D01*
X35376519Y21249996D01*
X35362487Y21277535D01*
X35277035Y21362987D01*
X35169359Y21417850D01*
X35169356Y21417850D01*
X35169355Y21417851D01*
X35050004Y21436755D01*
X35049996Y21436755D01*
X34930644Y21417851D01*
X34930639Y21417849D01*
X34822965Y21362987D01*
X34737512Y21277534D01*
X34682650Y21169860D01*
X34682648Y21169855D01*
X34663745Y21050503D01*
X34663745Y21050496D01*
X28251991Y21050496D01*
X28267349Y21080639D01*
X28267351Y21080644D01*
X28286255Y21199996D01*
X28286255Y21200003D01*
X28267351Y21319355D01*
X28267350Y21319356D01*
X28267350Y21319359D01*
X28212487Y21427035D01*
X28127035Y21512487D01*
X28019359Y21567350D01*
X28019356Y21567350D01*
X28019355Y21567351D01*
X27900004Y21586255D01*
X27899996Y21586255D01*
X27780644Y21567351D01*
X27780639Y21567349D01*
X27672965Y21512487D01*
X27587512Y21427034D01*
X27532650Y21319360D01*
X27532648Y21319355D01*
X27513745Y21200003D01*
X27513745Y21199996D01*
X12909826Y21199996D01*
X12897335Y21212487D01*
X12789659Y21267350D01*
X12789656Y21267350D01*
X12789655Y21267351D01*
X12670304Y21286255D01*
X12670296Y21286255D01*
X12550944Y21267351D01*
X12550939Y21267349D01*
X12443265Y21212487D01*
X12357812Y21127034D01*
X12302950Y21019360D01*
X12302948Y21019355D01*
X12284045Y20900003D01*
X12284045Y20899996D01*
X6563141Y20899996D01*
X6616987Y21065716D01*
X6636356Y21250000D01*
X6616987Y21434284D01*
X6559726Y21610513D01*
X6467077Y21770987D01*
X6460903Y21777844D01*
X9391593Y21777844D01*
X9410496Y21658492D01*
X9410498Y21658487D01*
X9465360Y21550813D01*
X9550813Y21465360D01*
X9658487Y21410498D01*
X9658492Y21410496D01*
X9777844Y21391593D01*
X9777848Y21391593D01*
X9777852Y21391593D01*
X9897203Y21410496D01*
X9897208Y21410498D01*
X10004882Y21465360D01*
X10090335Y21550813D01*
X10145197Y21658487D01*
X10145199Y21658492D01*
X10164103Y21777844D01*
X10164103Y21777851D01*
X10145199Y21897203D01*
X10145198Y21897204D01*
X10145198Y21897207D01*
X10090335Y22004883D01*
X10004883Y22090335D01*
X9985922Y22099996D01*
X14713745Y22099996D01*
X14732648Y21980644D01*
X14732650Y21980639D01*
X14787512Y21872965D01*
X14872965Y21787512D01*
X14980639Y21732650D01*
X14980644Y21732648D01*
X15099996Y21713745D01*
X15100000Y21713745D01*
X15100004Y21713745D01*
X15219355Y21732648D01*
X15219360Y21732650D01*
X15253404Y21749996D01*
X38613745Y21749996D01*
X38632648Y21630644D01*
X38632650Y21630639D01*
X38687512Y21522965D01*
X38772965Y21437512D01*
X38880639Y21382650D01*
X38880644Y21382648D01*
X38999996Y21363745D01*
X39000000Y21363745D01*
X39000004Y21363745D01*
X39119355Y21382648D01*
X39119360Y21382650D01*
X39227034Y21437512D01*
X39312487Y21522965D01*
X39367349Y21630639D01*
X39367351Y21630644D01*
X39386255Y21749996D01*
X39386255Y21750003D01*
X39367351Y21869355D01*
X39367350Y21869356D01*
X39367350Y21869359D01*
X39312487Y21977035D01*
X39227035Y22062487D01*
X39119359Y22117350D01*
X39119356Y22117350D01*
X39119355Y22117351D01*
X39000004Y22136255D01*
X38999996Y22136255D01*
X38880644Y22117351D01*
X38880639Y22117349D01*
X38772965Y22062487D01*
X38687512Y21977034D01*
X38632650Y21869360D01*
X38632648Y21869355D01*
X38613745Y21750003D01*
X38613745Y21749996D01*
X15253404Y21749996D01*
X15327034Y21787512D01*
X15412487Y21872965D01*
X15467349Y21980639D01*
X15467351Y21980644D01*
X15486255Y22099996D01*
X15486255Y22100003D01*
X15467351Y22219355D01*
X15467350Y22219356D01*
X15467350Y22219359D01*
X15454927Y22243739D01*
X15451173Y22291425D01*
X15482239Y22327800D01*
X15529927Y22331555D01*
X15538988Y22327802D01*
X15572168Y22310896D01*
X15572171Y22310895D01*
X15691523Y22291992D01*
X15691527Y22291992D01*
X15691531Y22291992D01*
X15810882Y22310895D01*
X15810887Y22310897D01*
X15918561Y22365759D01*
X16004014Y22451212D01*
X16058876Y22558886D01*
X16058878Y22558891D01*
X16077782Y22678243D01*
X16077782Y22678250D01*
X16058108Y22802465D01*
X16060800Y22802891D01*
X16063812Y22841543D01*
X16100163Y22872638D01*
X16129299Y22874943D01*
X16143853Y22872638D01*
X16200000Y22863745D01*
X16200001Y22863745D01*
X16200003Y22863745D01*
X16200004Y22863745D01*
X16319355Y22882648D01*
X16319360Y22882650D01*
X16427034Y22937512D01*
X16512487Y23022965D01*
X16526260Y23049996D01*
X25363745Y23049996D01*
X25382648Y22930644D01*
X25382650Y22930639D01*
X25437512Y22822965D01*
X25522965Y22737512D01*
X25630639Y22682650D01*
X25630644Y22682648D01*
X25749996Y22663745D01*
X25750000Y22663745D01*
X25750004Y22663745D01*
X25869355Y22682648D01*
X25869360Y22682650D01*
X25977034Y22737512D01*
X26062486Y22822964D01*
X26065708Y22829286D01*
X26069312Y22836360D01*
X26105687Y22867426D01*
X26153375Y22863673D01*
X26180688Y22836360D01*
X26187513Y22822964D01*
X26272965Y22737512D01*
X26380639Y22682650D01*
X26380644Y22682648D01*
X26499996Y22663745D01*
X26500000Y22663745D01*
X26500004Y22663745D01*
X26619355Y22682648D01*
X26619360Y22682650D01*
X26727034Y22737512D01*
X26812487Y22822965D01*
X26867349Y22930639D01*
X26867351Y22930644D01*
X26886255Y23049996D01*
X26886255Y23050003D01*
X26867351Y23169355D01*
X26867350Y23169356D01*
X26867350Y23169359D01*
X26812487Y23277035D01*
X26727035Y23362487D01*
X26619359Y23417350D01*
X26619356Y23417350D01*
X26619355Y23417351D01*
X26500004Y23436255D01*
X26499996Y23436255D01*
X26380644Y23417351D01*
X26380639Y23417349D01*
X26272965Y23362487D01*
X26187512Y23277034D01*
X26180686Y23263638D01*
X26144311Y23232572D01*
X26096623Y23236327D01*
X26069312Y23263639D01*
X26062487Y23277035D01*
X25977035Y23362487D01*
X25869359Y23417350D01*
X25869356Y23417350D01*
X25869355Y23417351D01*
X25750004Y23436255D01*
X25749996Y23436255D01*
X25630644Y23417351D01*
X25630639Y23417349D01*
X25522965Y23362487D01*
X25437512Y23277034D01*
X25382650Y23169360D01*
X25382648Y23169355D01*
X25363745Y23050003D01*
X25363745Y23049996D01*
X16526260Y23049996D01*
X16567349Y23130639D01*
X16567351Y23130644D01*
X16586255Y23249996D01*
X16586255Y23250003D01*
X16567351Y23369355D01*
X16567350Y23369356D01*
X16567350Y23369359D01*
X16512487Y23477035D01*
X16427035Y23562487D01*
X16319359Y23617350D01*
X16319356Y23617350D01*
X16319355Y23617351D01*
X16200004Y23636255D01*
X16199996Y23636255D01*
X16080644Y23617351D01*
X16080639Y23617349D01*
X15972965Y23562487D01*
X15887512Y23477034D01*
X15832650Y23369360D01*
X15832648Y23369355D01*
X15813745Y23250003D01*
X15813745Y23249996D01*
X15833419Y23125782D01*
X15830744Y23125358D01*
X15827679Y23086634D01*
X15791290Y23055584D01*
X15762226Y23053304D01*
X15739868Y23056845D01*
X15691529Y23064502D01*
X15691523Y23064502D01*
X15572171Y23045598D01*
X15572166Y23045596D01*
X15464492Y22990734D01*
X15379039Y22905281D01*
X15324177Y22797607D01*
X15324175Y22797602D01*
X15305272Y22678250D01*
X15305272Y22678243D01*
X15324175Y22558891D01*
X15324177Y22558886D01*
X15336599Y22534507D01*
X15340352Y22486819D01*
X15309285Y22450445D01*
X15261597Y22446692D01*
X15252543Y22450442D01*
X15219359Y22467350D01*
X15219356Y22467350D01*
X15219355Y22467351D01*
X15100004Y22486255D01*
X15099996Y22486255D01*
X14980644Y22467351D01*
X14980639Y22467349D01*
X14872965Y22412487D01*
X14787512Y22327034D01*
X14732650Y22219360D01*
X14732648Y22219355D01*
X14713745Y22100003D01*
X14713745Y22099996D01*
X9985922Y22099996D01*
X9897207Y22145198D01*
X9897204Y22145198D01*
X9897203Y22145199D01*
X9777852Y22164103D01*
X9777844Y22164103D01*
X9658492Y22145199D01*
X9658487Y22145197D01*
X9550813Y22090335D01*
X9465360Y22004882D01*
X9410498Y21897208D01*
X9410496Y21897203D01*
X9391593Y21777851D01*
X9391593Y21777844D01*
X6460903Y21777844D01*
X6343088Y21908691D01*
X6193178Y22017607D01*
X6023899Y22092975D01*
X5842649Y22131500D01*
X5657351Y22131500D01*
X5476105Y22092976D01*
X5476104Y22092975D01*
X5476101Y22092975D01*
X5476093Y22092971D01*
X5476089Y22092970D01*
X5407624Y22062487D01*
X5306822Y22017607D01*
X5156912Y21908691D01*
X5156908Y21908688D01*
X5080211Y21823506D01*
X5032923Y21770987D01*
X4940274Y21610513D01*
X4940272Y21610509D01*
X4940272Y21610508D01*
X4883013Y21434285D01*
X4863644Y21250000D01*
X381500Y21250000D01*
X381500Y23750000D01*
X4863644Y23750000D01*
X4883013Y23565714D01*
X4940272Y23389491D01*
X4940273Y23389488D01*
X4940274Y23389487D01*
X4979428Y23321668D01*
X5032922Y23229014D01*
X5156908Y23091311D01*
X5306823Y22982392D01*
X5476089Y22907029D01*
X5476105Y22907023D01*
X5657351Y22868500D01*
X5842649Y22868500D01*
X6023894Y22907023D01*
X6023910Y22907029D01*
X6193176Y22982392D01*
X6193178Y22982393D01*
X6306191Y23064502D01*
X6343091Y23091311D01*
X6413906Y23169960D01*
X6467077Y23229013D01*
X6559726Y23389487D01*
X6616987Y23565716D01*
X6636356Y23750000D01*
X6616987Y23934284D01*
X6559726Y24110513D01*
X6536931Y24149996D01*
X23263745Y24149996D01*
X23282648Y24030644D01*
X23282650Y24030639D01*
X23337512Y23922965D01*
X23422965Y23837512D01*
X23530639Y23782650D01*
X23530644Y23782648D01*
X23649996Y23763745D01*
X23650000Y23763745D01*
X23650004Y23763745D01*
X23769355Y23782648D01*
X23769360Y23782650D01*
X23877034Y23837512D01*
X23965965Y23926443D01*
X23967634Y23924773D01*
X24001512Y23945531D01*
X24011286Y23946300D01*
X28189736Y23946300D01*
X28233930Y23927994D01*
X28638841Y23523081D01*
X28657147Y23478887D01*
X28638841Y23434693D01*
X28609958Y23419980D01*
X28610319Y23418870D01*
X28605643Y23417350D01*
X28605641Y23417350D01*
X28605639Y23417349D01*
X28497965Y23362487D01*
X28412512Y23277034D01*
X28357650Y23169360D01*
X28357648Y23169355D01*
X28338745Y23050003D01*
X28338745Y23049996D01*
X28357648Y22930644D01*
X28357650Y22930639D01*
X28412512Y22822965D01*
X28497965Y22737512D01*
X28605639Y22682650D01*
X28605644Y22682648D01*
X28724996Y22663745D01*
X28725000Y22663745D01*
X28725004Y22663745D01*
X28844355Y22682648D01*
X28844360Y22682650D01*
X28952034Y22737512D01*
X29018306Y22803783D01*
X29062500Y22822089D01*
X29106694Y22803783D01*
X29172965Y22737512D01*
X29280639Y22682650D01*
X29280644Y22682648D01*
X29399996Y22663745D01*
X29400000Y22663745D01*
X29400004Y22663745D01*
X29519355Y22682648D01*
X29519360Y22682650D01*
X29627034Y22737512D01*
X29712487Y22822965D01*
X29767349Y22930639D01*
X29767351Y22930644D01*
X29786255Y23049996D01*
X29786255Y23050003D01*
X29767351Y23169355D01*
X29767350Y23169356D01*
X29767350Y23169359D01*
X29712487Y23277035D01*
X29627035Y23362487D01*
X29519359Y23417350D01*
X29519356Y23417350D01*
X29519355Y23417351D01*
X29400004Y23436255D01*
X29399998Y23436255D01*
X29357863Y23429580D01*
X29346697Y23427812D01*
X29300184Y23438978D01*
X29292732Y23445342D01*
X28476018Y24262056D01*
X28463902Y24279133D01*
X28463355Y24280271D01*
X28437313Y24301037D01*
X28434720Y24303354D01*
X28427807Y24310269D01*
X28419540Y24315462D01*
X28416679Y24317493D01*
X28390655Y24338248D01*
X28389423Y24338529D01*
X28370074Y24346544D01*
X28369009Y24347214D01*
X28335902Y24350943D01*
X28332476Y24351526D01*
X28322954Y24353700D01*
X28322953Y24353700D01*
X28313199Y24353700D01*
X28309697Y24353897D01*
X28301117Y24354863D01*
X28276606Y24357625D01*
X28275571Y24357263D01*
X28275414Y24357208D01*
X28254769Y24353700D01*
X24011286Y24353700D01*
X23967092Y24372006D01*
X23964608Y24374913D01*
X23962488Y24377032D01*
X23962487Y24377035D01*
X23877035Y24462487D01*
X23769359Y24517350D01*
X23769356Y24517350D01*
X23769355Y24517351D01*
X23650004Y24536255D01*
X23649996Y24536255D01*
X23530644Y24517351D01*
X23530639Y24517349D01*
X23422965Y24462487D01*
X23337512Y24377034D01*
X23282650Y24269360D01*
X23282648Y24269355D01*
X23263745Y24150003D01*
X23263745Y24149996D01*
X6536931Y24149996D01*
X6467077Y24270987D01*
X6343088Y24408691D01*
X6193178Y24517607D01*
X6023899Y24592975D01*
X5842649Y24631500D01*
X5657351Y24631500D01*
X5476105Y24592976D01*
X5476104Y24592975D01*
X5476101Y24592975D01*
X5476093Y24592971D01*
X5476089Y24592970D01*
X5431158Y24572965D01*
X5306822Y24517607D01*
X5189889Y24432650D01*
X5156908Y24408688D01*
X5093735Y24338526D01*
X5032923Y24270987D01*
X4940274Y24110513D01*
X4940272Y24110509D01*
X4940272Y24110508D01*
X4883013Y23934285D01*
X4863644Y23750000D01*
X381500Y23750000D01*
X381500Y25999996D01*
X3657045Y25999996D01*
X3675948Y25880644D01*
X3675950Y25880639D01*
X3730812Y25772965D01*
X3816265Y25687512D01*
X3923939Y25632650D01*
X3923944Y25632648D01*
X4043296Y25613745D01*
X4043300Y25613745D01*
X4043304Y25613745D01*
X4162655Y25632648D01*
X4162660Y25632650D01*
X4270334Y25687512D01*
X4355787Y25772965D01*
X4410649Y25880639D01*
X4410651Y25880644D01*
X4429555Y25999996D01*
X4429555Y26000003D01*
X4410651Y26119355D01*
X4410650Y26119356D01*
X4410650Y26119359D01*
X4355787Y26227035D01*
X4270335Y26312487D01*
X4162659Y26367350D01*
X4162656Y26367350D01*
X4162655Y26367351D01*
X4043304Y26386255D01*
X4043296Y26386255D01*
X3923944Y26367351D01*
X3923939Y26367349D01*
X3816265Y26312487D01*
X3730812Y26227034D01*
X3675950Y26119360D01*
X3675948Y26119355D01*
X3657045Y26000003D01*
X3657045Y25999996D01*
X381500Y25999996D01*
X381500Y26617896D01*
X8113745Y26617896D01*
X8132648Y26498544D01*
X8132650Y26498539D01*
X8187512Y26390865D01*
X8272965Y26305412D01*
X8380639Y26250550D01*
X8380644Y26250548D01*
X8499996Y26231645D01*
X8500000Y26231645D01*
X8500004Y26231645D01*
X8619355Y26250548D01*
X8619360Y26250550D01*
X8727034Y26305412D01*
X8812487Y26390865D01*
X8867349Y26498539D01*
X8867351Y26498544D01*
X8886255Y26617896D01*
X8886255Y26617903D01*
X8867351Y26737255D01*
X8867350Y26737256D01*
X8867350Y26737259D01*
X8812487Y26844935D01*
X8727035Y26930387D01*
X8619359Y26985250D01*
X8619356Y26985250D01*
X8619355Y26985251D01*
X8500004Y27004155D01*
X8499996Y27004155D01*
X8380644Y26985251D01*
X8380639Y26985249D01*
X8272965Y26930387D01*
X8187512Y26844934D01*
X8132650Y26737260D01*
X8132648Y26737255D01*
X8113745Y26617903D01*
X8113745Y26617896D01*
X381500Y26617896D01*
X381500Y27099996D01*
X32695845Y27099996D01*
X32714748Y26980644D01*
X32714750Y26980639D01*
X32769612Y26872965D01*
X32858543Y26784035D01*
X32856873Y26782365D01*
X32877631Y26748488D01*
X32878400Y26738714D01*
X32878400Y22887714D01*
X32874892Y22867072D01*
X32874475Y22865879D01*
X32874475Y22865878D01*
X32874474Y22865875D01*
X32878203Y22832787D01*
X32878400Y22829286D01*
X32878400Y22819529D01*
X32880571Y22810012D01*
X32881157Y22806561D01*
X32884885Y22773475D01*
X32885563Y22772397D01*
X32893568Y22753069D01*
X32893849Y22751835D01*
X32893852Y22751829D01*
X32914610Y22725799D01*
X32916638Y22722941D01*
X32921830Y22714679D01*
X32928736Y22707771D01*
X32931069Y22705160D01*
X32951829Y22679129D01*
X32951830Y22679128D01*
X32952974Y22678578D01*
X32970042Y22666465D01*
X33066936Y22569571D01*
X33085242Y22525377D01*
X33084472Y22515599D01*
X33076030Y22462302D01*
X33076030Y22462296D01*
X33094933Y22342944D01*
X33094935Y22342939D01*
X33149797Y22235265D01*
X33235250Y22149812D01*
X33342924Y22094950D01*
X33342929Y22094948D01*
X33462281Y22076045D01*
X33462285Y22076045D01*
X33462289Y22076045D01*
X33581640Y22094948D01*
X33581645Y22094950D01*
X33689319Y22149812D01*
X33774772Y22235265D01*
X33829634Y22342939D01*
X33829636Y22342944D01*
X33848540Y22462296D01*
X33848540Y22462303D01*
X33829636Y22581655D01*
X33829635Y22581656D01*
X33829635Y22581659D01*
X33774772Y22689335D01*
X33689320Y22774787D01*
X33581644Y22829650D01*
X33581641Y22829650D01*
X33581640Y22829651D01*
X33462289Y22848555D01*
X33462283Y22848555D01*
X33420148Y22841880D01*
X33408982Y22840112D01*
X33362469Y22851278D01*
X33355025Y22857634D01*
X33304103Y22908557D01*
X33285800Y22952748D01*
X33285800Y22999996D01*
X38613745Y22999996D01*
X38632648Y22880644D01*
X38632650Y22880639D01*
X38687512Y22772965D01*
X38772965Y22687512D01*
X38880639Y22632650D01*
X38880644Y22632648D01*
X38999996Y22613745D01*
X39000000Y22613745D01*
X39000004Y22613745D01*
X39119355Y22632648D01*
X39119360Y22632650D01*
X39227034Y22687512D01*
X39312487Y22772965D01*
X39367349Y22880639D01*
X39367351Y22880644D01*
X39386255Y22999996D01*
X39386255Y23000003D01*
X39367351Y23119355D01*
X39367350Y23119356D01*
X39367350Y23119359D01*
X39312487Y23227035D01*
X39227035Y23312487D01*
X39119359Y23367350D01*
X39119356Y23367350D01*
X39119355Y23367351D01*
X39000004Y23386255D01*
X38999996Y23386255D01*
X38880644Y23367351D01*
X38880639Y23367349D01*
X38772965Y23312487D01*
X38687512Y23227034D01*
X38632650Y23119360D01*
X38632648Y23119355D01*
X38613745Y23000003D01*
X38613745Y22999996D01*
X33285800Y22999996D01*
X33285800Y24766148D01*
X41750645Y24766148D01*
X41769548Y24646796D01*
X41769550Y24646791D01*
X41824412Y24539117D01*
X41909865Y24453664D01*
X42017539Y24398802D01*
X42017544Y24398800D01*
X42136896Y24379897D01*
X42136900Y24379897D01*
X42136904Y24379897D01*
X42256255Y24398800D01*
X42256260Y24398802D01*
X42363934Y24453664D01*
X42449387Y24539117D01*
X42504249Y24646791D01*
X42504251Y24646796D01*
X42523155Y24766148D01*
X42523155Y24766155D01*
X42517795Y24799996D01*
X44313745Y24799996D01*
X44332648Y24680644D01*
X44332650Y24680639D01*
X44387512Y24572965D01*
X44472965Y24487512D01*
X44580639Y24432650D01*
X44580644Y24432648D01*
X44699996Y24413745D01*
X44700000Y24413745D01*
X44700004Y24413745D01*
X44819355Y24432648D01*
X44819360Y24432650D01*
X44927034Y24487512D01*
X45012487Y24572965D01*
X45067349Y24680639D01*
X45067351Y24680644D01*
X45086255Y24799996D01*
X45086255Y24800003D01*
X45067351Y24919355D01*
X45067350Y24919356D01*
X45067350Y24919359D01*
X45012487Y25027035D01*
X44927035Y25112487D01*
X44819359Y25167350D01*
X44819356Y25167350D01*
X44819355Y25167351D01*
X44700004Y25186255D01*
X44699996Y25186255D01*
X44580644Y25167351D01*
X44580639Y25167349D01*
X44472965Y25112487D01*
X44387512Y25027034D01*
X44332650Y24919360D01*
X44332648Y24919355D01*
X44313745Y24800003D01*
X44313745Y24799996D01*
X42517795Y24799996D01*
X42504251Y24885507D01*
X42504250Y24885508D01*
X42504250Y24885511D01*
X42449387Y24993187D01*
X42363935Y25078639D01*
X42256259Y25133502D01*
X42256256Y25133502D01*
X42256255Y25133503D01*
X42136904Y25152407D01*
X42136896Y25152407D01*
X42017544Y25133503D01*
X42017539Y25133501D01*
X41909865Y25078639D01*
X41824412Y24993186D01*
X41769550Y24885512D01*
X41769548Y24885507D01*
X41750645Y24766155D01*
X41750645Y24766148D01*
X33285800Y24766148D01*
X33285800Y26738714D01*
X33304106Y26782908D01*
X33307013Y26785391D01*
X33394586Y26872964D01*
X33394587Y26872965D01*
X33410362Y26903926D01*
X33446734Y26934992D01*
X33494422Y26931240D01*
X33521736Y26903926D01*
X33537511Y26872967D01*
X33537511Y26872966D01*
X33622965Y26787512D01*
X33730639Y26732650D01*
X33730644Y26732648D01*
X33849996Y26713745D01*
X33850000Y26713745D01*
X33850004Y26713745D01*
X33969355Y26732648D01*
X33969360Y26732650D01*
X34077034Y26787512D01*
X34162487Y26872965D01*
X34217349Y26980639D01*
X34217351Y26980644D01*
X34236255Y27099996D01*
X34236255Y27100003D01*
X34217351Y27219355D01*
X34217350Y27219356D01*
X34217350Y27219359D01*
X34162487Y27327035D01*
X34077035Y27412487D01*
X33969359Y27467350D01*
X33969356Y27467350D01*
X33969355Y27467351D01*
X33850004Y27486255D01*
X33849996Y27486255D01*
X33730644Y27467351D01*
X33730639Y27467349D01*
X33622965Y27412487D01*
X33537512Y27327034D01*
X33521738Y27296074D01*
X33485364Y27265007D01*
X33437676Y27268760D01*
X33410362Y27296074D01*
X33394587Y27327035D01*
X33309135Y27412487D01*
X33201459Y27467350D01*
X33201456Y27467350D01*
X33201455Y27467351D01*
X33082104Y27486255D01*
X33082096Y27486255D01*
X32962744Y27467351D01*
X32962739Y27467349D01*
X32855065Y27412487D01*
X32769612Y27327034D01*
X32714750Y27219360D01*
X32714748Y27219355D01*
X32695845Y27100003D01*
X32695845Y27099996D01*
X381500Y27099996D01*
X381500Y27999996D01*
X44413745Y27999996D01*
X44432648Y27880644D01*
X44432650Y27880639D01*
X44487512Y27772965D01*
X44572965Y27687512D01*
X44680639Y27632650D01*
X44680644Y27632648D01*
X44799996Y27613745D01*
X44800000Y27613745D01*
X44800004Y27613745D01*
X44919355Y27632648D01*
X44919360Y27632650D01*
X45027034Y27687512D01*
X45112487Y27772965D01*
X45167349Y27880639D01*
X45167351Y27880644D01*
X45186255Y27999996D01*
X45186255Y28000003D01*
X45167351Y28119355D01*
X45167350Y28119356D01*
X45167350Y28119359D01*
X45112487Y28227035D01*
X45027035Y28312487D01*
X44919359Y28367350D01*
X44919356Y28367350D01*
X44919355Y28367351D01*
X44800004Y28386255D01*
X44799996Y28386255D01*
X44680644Y28367351D01*
X44680639Y28367349D01*
X44572965Y28312487D01*
X44487512Y28227034D01*
X44432650Y28119360D01*
X44432648Y28119355D01*
X44413745Y28000003D01*
X44413745Y27999996D01*
X381500Y27999996D01*
X381500Y28749996D01*
X5013745Y28749996D01*
X5032648Y28630644D01*
X5032650Y28630639D01*
X5087512Y28522965D01*
X5172965Y28437512D01*
X5280639Y28382650D01*
X5280644Y28382648D01*
X5399996Y28363745D01*
X5400000Y28363745D01*
X5400004Y28363745D01*
X5519355Y28382648D01*
X5519360Y28382650D01*
X5627034Y28437512D01*
X5712487Y28522965D01*
X5767349Y28630639D01*
X5767351Y28630644D01*
X5786255Y28749996D01*
X5786255Y28750003D01*
X5767351Y28869355D01*
X5767350Y28869356D01*
X5767350Y28869359D01*
X5766119Y28871775D01*
X14991966Y28871775D01*
X15010869Y28752423D01*
X15010871Y28752418D01*
X15065733Y28644744D01*
X15151186Y28559291D01*
X15258860Y28504429D01*
X15258865Y28504427D01*
X15378217Y28485524D01*
X15378221Y28485524D01*
X15378225Y28485524D01*
X15497576Y28504427D01*
X15497581Y28504429D01*
X15605255Y28559291D01*
X15690708Y28644744D01*
X15745570Y28752418D01*
X15745572Y28752423D01*
X15764476Y28871775D01*
X15764476Y28871782D01*
X15745572Y28991134D01*
X15745571Y28991135D01*
X15745571Y28991138D01*
X15690708Y29098814D01*
X15605256Y29184266D01*
X15497580Y29239129D01*
X15497577Y29239129D01*
X15497576Y29239130D01*
X15378225Y29258034D01*
X15378217Y29258034D01*
X15258865Y29239130D01*
X15258860Y29239128D01*
X15151186Y29184266D01*
X15065733Y29098813D01*
X15010871Y28991139D01*
X15010869Y28991134D01*
X14991966Y28871782D01*
X14991966Y28871775D01*
X5766119Y28871775D01*
X5712487Y28977035D01*
X5627035Y29062487D01*
X5519359Y29117350D01*
X5519356Y29117350D01*
X5519355Y29117351D01*
X5400004Y29136255D01*
X5399996Y29136255D01*
X5280644Y29117351D01*
X5280639Y29117349D01*
X5172965Y29062487D01*
X5087512Y28977034D01*
X5032650Y28869360D01*
X5032648Y28869355D01*
X5013745Y28750003D01*
X5013745Y28749996D01*
X381500Y28749996D01*
X381500Y30149996D01*
X1013745Y30149996D01*
X1032648Y30030644D01*
X1032650Y30030639D01*
X1087512Y29922965D01*
X1172965Y29837512D01*
X1280639Y29782650D01*
X1280644Y29782648D01*
X1399996Y29763745D01*
X1400000Y29763745D01*
X1400004Y29763745D01*
X1519355Y29782648D01*
X1519360Y29782650D01*
X1627034Y29837512D01*
X1712487Y29922965D01*
X1767349Y30030639D01*
X1767351Y30030644D01*
X1770416Y30049996D01*
X12913745Y30049996D01*
X12932648Y29930644D01*
X12932650Y29930639D01*
X12987512Y29822965D01*
X13072965Y29737512D01*
X13180639Y29682650D01*
X13180644Y29682648D01*
X13299996Y29663745D01*
X13300000Y29663745D01*
X13300004Y29663745D01*
X13419355Y29682648D01*
X13419360Y29682650D01*
X13527034Y29737512D01*
X13612487Y29822965D01*
X13626260Y29849996D01*
X36413745Y29849996D01*
X36432648Y29730644D01*
X36432650Y29730639D01*
X36487512Y29622965D01*
X36572965Y29537512D01*
X36680639Y29482650D01*
X36680644Y29482648D01*
X36799996Y29463745D01*
X36800000Y29463745D01*
X36800004Y29463745D01*
X36919355Y29482648D01*
X36919360Y29482650D01*
X37027034Y29537512D01*
X37112487Y29622965D01*
X37144312Y29685425D01*
X37180686Y29716492D01*
X37228374Y29712739D01*
X37255688Y29685425D01*
X37287512Y29622965D01*
X37372965Y29537512D01*
X37480639Y29482650D01*
X37480644Y29482648D01*
X37599996Y29463745D01*
X37600000Y29463745D01*
X37600004Y29463745D01*
X37719355Y29482648D01*
X37719360Y29482650D01*
X37827034Y29537512D01*
X37912487Y29622965D01*
X37967349Y29730639D01*
X37967351Y29730644D01*
X37986255Y29849996D01*
X38813745Y29849996D01*
X38832648Y29730644D01*
X38832650Y29730639D01*
X38887512Y29622965D01*
X38972965Y29537512D01*
X39080639Y29482650D01*
X39080644Y29482648D01*
X39199996Y29463745D01*
X39200000Y29463745D01*
X39200004Y29463745D01*
X39319355Y29482648D01*
X39319360Y29482650D01*
X39427034Y29537512D01*
X39512487Y29622965D01*
X39551736Y29699996D01*
X40963745Y29699996D01*
X40982648Y29580644D01*
X40982650Y29580639D01*
X41037512Y29472965D01*
X41122965Y29387512D01*
X41230639Y29332650D01*
X41230644Y29332648D01*
X41349996Y29313745D01*
X41350000Y29313745D01*
X41350004Y29313745D01*
X41469355Y29332648D01*
X41469360Y29332650D01*
X41577034Y29387512D01*
X41662487Y29472965D01*
X41717349Y29580639D01*
X41717351Y29580644D01*
X41736255Y29699996D01*
X41736255Y29700003D01*
X41717351Y29819355D01*
X41717350Y29819356D01*
X41717350Y29819359D01*
X41662487Y29927035D01*
X41577035Y30012487D01*
X41469359Y30067350D01*
X41469356Y30067350D01*
X41469355Y30067351D01*
X41350004Y30086255D01*
X41349996Y30086255D01*
X41230644Y30067351D01*
X41230639Y30067349D01*
X41122965Y30012487D01*
X41037512Y29927034D01*
X40982650Y29819360D01*
X40982648Y29819355D01*
X40963745Y29700003D01*
X40963745Y29699996D01*
X39551736Y29699996D01*
X39567349Y29730639D01*
X39567351Y29730644D01*
X39586255Y29849996D01*
X39586255Y29850003D01*
X39567351Y29969355D01*
X39567350Y29969356D01*
X39567350Y29969359D01*
X39512487Y30077035D01*
X39427035Y30162487D01*
X39319359Y30217350D01*
X39319356Y30217350D01*
X39319355Y30217351D01*
X39200004Y30236255D01*
X39199996Y30236255D01*
X39080644Y30217351D01*
X39080639Y30217349D01*
X38972965Y30162487D01*
X38887512Y30077034D01*
X38832650Y29969360D01*
X38832648Y29969355D01*
X38813745Y29850003D01*
X38813745Y29849996D01*
X37986255Y29849996D01*
X37986255Y29850003D01*
X37967351Y29969355D01*
X37967350Y29969356D01*
X37967350Y29969359D01*
X37912487Y30077035D01*
X37827035Y30162487D01*
X37719359Y30217350D01*
X37719356Y30217350D01*
X37719355Y30217351D01*
X37600004Y30236255D01*
X37599996Y30236255D01*
X37480644Y30217351D01*
X37480639Y30217349D01*
X37372965Y30162487D01*
X37287512Y30077034D01*
X37255688Y30014574D01*
X37219314Y29983507D01*
X37171626Y29987260D01*
X37144312Y30014574D01*
X37112487Y30077035D01*
X37027035Y30162487D01*
X36919359Y30217350D01*
X36919356Y30217350D01*
X36919355Y30217351D01*
X36800004Y30236255D01*
X36799996Y30236255D01*
X36680644Y30217351D01*
X36680639Y30217349D01*
X36572965Y30162487D01*
X36487512Y30077034D01*
X36432650Y29969360D01*
X36432648Y29969355D01*
X36413745Y29850003D01*
X36413745Y29849996D01*
X13626260Y29849996D01*
X13667349Y29930639D01*
X13667351Y29930644D01*
X13686255Y30049996D01*
X13686255Y30050003D01*
X13667351Y30169355D01*
X13667350Y30169356D01*
X13667350Y30169359D01*
X13612487Y30277035D01*
X13527035Y30362487D01*
X13419359Y30417350D01*
X13419356Y30417350D01*
X13419355Y30417351D01*
X13300004Y30436255D01*
X13299996Y30436255D01*
X13180644Y30417351D01*
X13180639Y30417349D01*
X13072965Y30362487D01*
X12987512Y30277034D01*
X12932650Y30169360D01*
X12932648Y30169355D01*
X12913745Y30050003D01*
X12913745Y30049996D01*
X1770416Y30049996D01*
X1786255Y30149996D01*
X1786255Y30150003D01*
X1767351Y30269355D01*
X1767350Y30269356D01*
X1767350Y30269359D01*
X1712487Y30377035D01*
X1627035Y30462487D01*
X1519359Y30517350D01*
X1519356Y30517350D01*
X1519355Y30517351D01*
X1400004Y30536255D01*
X1399996Y30536255D01*
X1280644Y30517351D01*
X1280639Y30517349D01*
X1172965Y30462487D01*
X1087512Y30377034D01*
X1032650Y30269360D01*
X1032648Y30269355D01*
X1013745Y30150003D01*
X1013745Y30149996D01*
X381500Y30149996D01*
X381500Y30699996D01*
X10463745Y30699996D01*
X10482648Y30580644D01*
X10482650Y30580639D01*
X10537512Y30472965D01*
X10622965Y30387512D01*
X10730639Y30332650D01*
X10730644Y30332648D01*
X10849996Y30313745D01*
X10850000Y30313745D01*
X10850004Y30313745D01*
X10969355Y30332648D01*
X10969360Y30332650D01*
X11077034Y30387512D01*
X11162487Y30472965D01*
X11217349Y30580639D01*
X11217351Y30580644D01*
X11236255Y30699996D01*
X11236255Y30700003D01*
X11217351Y30819355D01*
X11217350Y30819356D01*
X11217350Y30819359D01*
X11162487Y30927035D01*
X11077035Y31012487D01*
X10969359Y31067350D01*
X10969356Y31067350D01*
X10969355Y31067351D01*
X10850004Y31086255D01*
X10849996Y31086255D01*
X10730644Y31067351D01*
X10730639Y31067349D01*
X10622965Y31012487D01*
X10537512Y30927034D01*
X10482650Y30819360D01*
X10482648Y30819355D01*
X10463745Y30700003D01*
X10463745Y30699996D01*
X381500Y30699996D01*
X381500Y31800000D01*
X2292942Y31800000D01*
X2311124Y31627003D01*
X2364875Y31461576D01*
X2451850Y31310930D01*
X2451849Y31310930D01*
X2568239Y31181665D01*
X2568245Y31181659D01*
X2708966Y31079419D01*
X2708972Y31079416D01*
X2867868Y31008670D01*
X2867883Y31008665D01*
X3038026Y30972500D01*
X3211974Y30972500D01*
X3382116Y31008665D01*
X3382117Y31008665D01*
X3382120Y31008666D01*
X3382122Y31008667D01*
X3382131Y31008670D01*
X3541027Y31079416D01*
X3541033Y31079419D01*
X3681754Y31181659D01*
X3681760Y31181665D01*
X3723208Y31227698D01*
X3798149Y31310929D01*
X3885123Y31461572D01*
X3897170Y31498650D01*
X32934045Y31498650D01*
X32952948Y31379298D01*
X32952950Y31379293D01*
X33007812Y31271619D01*
X33093265Y31186166D01*
X33200939Y31131304D01*
X33200944Y31131302D01*
X33320296Y31112399D01*
X33320297Y31112399D01*
X33320298Y31112399D01*
X33320300Y31112399D01*
X33408855Y31126425D01*
X33455369Y31115257D01*
X33480363Y31074471D01*
X33480362Y31054917D01*
X33463745Y30950003D01*
X33463745Y30949996D01*
X33482648Y30830644D01*
X33482650Y30830639D01*
X33537512Y30722965D01*
X33622965Y30637512D01*
X33730639Y30582650D01*
X33730644Y30582648D01*
X33849996Y30563745D01*
X33850000Y30563745D01*
X33850004Y30563745D01*
X33969355Y30582648D01*
X33969360Y30582650D01*
X34053343Y30625441D01*
X41639190Y30625441D01*
X41658093Y30506089D01*
X41658095Y30506084D01*
X41712957Y30398410D01*
X41798410Y30312957D01*
X41906084Y30258095D01*
X41906089Y30258093D01*
X42025441Y30239190D01*
X42025445Y30239190D01*
X42025449Y30239190D01*
X42144800Y30258093D01*
X42144805Y30258095D01*
X42252479Y30312957D01*
X42337932Y30398410D01*
X42392794Y30506084D01*
X42392796Y30506089D01*
X42411700Y30625441D01*
X42411700Y30625448D01*
X42392796Y30744800D01*
X42392795Y30744801D01*
X42392795Y30744804D01*
X42337932Y30852480D01*
X42252480Y30937932D01*
X42144804Y30992795D01*
X42144801Y30992795D01*
X42144800Y30992796D01*
X42025449Y31011700D01*
X42025441Y31011700D01*
X41906089Y30992796D01*
X41906084Y30992794D01*
X41798410Y30937932D01*
X41712957Y30852479D01*
X41658095Y30744805D01*
X41658093Y30744800D01*
X41639190Y30625448D01*
X41639190Y30625441D01*
X34053343Y30625441D01*
X34077034Y30637512D01*
X34162487Y30722965D01*
X34217349Y30830639D01*
X34217351Y30830644D01*
X34236255Y30949996D01*
X34236255Y30950003D01*
X34217351Y31069355D01*
X34217350Y31069356D01*
X34217350Y31069359D01*
X34162487Y31177035D01*
X34077035Y31262487D01*
X33969359Y31317350D01*
X33969356Y31317350D01*
X33969355Y31317351D01*
X33850004Y31336255D01*
X33849998Y31336255D01*
X33761445Y31322229D01*
X33714931Y31333395D01*
X33689937Y31374181D01*
X33689937Y31393737D01*
X33693656Y31417212D01*
X33700682Y31461576D01*
X33706555Y31498651D01*
X33706555Y31498657D01*
X33687651Y31618009D01*
X33687650Y31618010D01*
X33687650Y31618013D01*
X33632787Y31725689D01*
X33628780Y31729696D01*
X41663745Y31729696D01*
X41682648Y31610344D01*
X41682650Y31610339D01*
X41737512Y31502665D01*
X41822965Y31417212D01*
X41930639Y31362350D01*
X41930644Y31362348D01*
X42049996Y31343445D01*
X42050000Y31343445D01*
X42050004Y31343445D01*
X42169355Y31362348D01*
X42169360Y31362350D01*
X42277034Y31417212D01*
X42362487Y31502665D01*
X42417349Y31610339D01*
X42417351Y31610344D01*
X42436255Y31729696D01*
X42436255Y31729703D01*
X42417351Y31849055D01*
X42417350Y31849056D01*
X42417350Y31849059D01*
X42362487Y31956735D01*
X42277035Y32042187D01*
X42169359Y32097050D01*
X42169356Y32097050D01*
X42169355Y32097051D01*
X42050004Y32115955D01*
X42049996Y32115955D01*
X41930644Y32097051D01*
X41930639Y32097049D01*
X41822965Y32042187D01*
X41737512Y31956734D01*
X41682650Y31849060D01*
X41682648Y31849055D01*
X41663745Y31729703D01*
X41663745Y31729696D01*
X33628780Y31729696D01*
X33547335Y31811141D01*
X33439659Y31866004D01*
X33439656Y31866004D01*
X33439655Y31866005D01*
X33320304Y31884909D01*
X33320296Y31884909D01*
X33200944Y31866005D01*
X33200939Y31866003D01*
X33093265Y31811141D01*
X33007812Y31725688D01*
X32952950Y31618014D01*
X32952948Y31618009D01*
X32934045Y31498657D01*
X32934045Y31498650D01*
X3897170Y31498650D01*
X3938876Y31627005D01*
X3957058Y31800000D01*
X3938876Y31972995D01*
X3885123Y32138428D01*
X3798149Y32289071D01*
X3681755Y32418340D01*
X3638179Y32450000D01*
X12042942Y32450000D01*
X12061124Y32277003D01*
X12114875Y32111576D01*
X12114876Y32111573D01*
X12114877Y32111572D01*
X12123262Y32097049D01*
X12201850Y31960930D01*
X12201849Y31960930D01*
X12318239Y31831665D01*
X12318245Y31831659D01*
X12458966Y31729419D01*
X12458972Y31729416D01*
X12617868Y31658670D01*
X12617883Y31658665D01*
X12788026Y31622500D01*
X12961974Y31622500D01*
X13132116Y31658665D01*
X13132117Y31658665D01*
X13132120Y31658666D01*
X13132122Y31658667D01*
X13132131Y31658670D01*
X13291027Y31729416D01*
X13291033Y31729419D01*
X13431754Y31831659D01*
X13431760Y31831665D01*
X13479700Y31884909D01*
X13548149Y31960929D01*
X13635123Y32111572D01*
X13688876Y32277005D01*
X13706448Y32444196D01*
X23684172Y32444196D01*
X23703075Y32324844D01*
X23703077Y32324839D01*
X23757939Y32217165D01*
X23843392Y32131712D01*
X23951066Y32076850D01*
X23951071Y32076848D01*
X24070423Y32057945D01*
X24070425Y32057945D01*
X24070426Y32057945D01*
X24070427Y32057945D01*
X24094677Y32061785D01*
X24141191Y32050618D01*
X24166185Y32009832D01*
X24166185Y31990278D01*
X24154346Y31915528D01*
X24154345Y31915522D01*
X24154345Y31915521D01*
X24173248Y31796169D01*
X24173250Y31796164D01*
X24228112Y31688490D01*
X24313565Y31603037D01*
X24421239Y31548175D01*
X24421244Y31548173D01*
X24540596Y31529270D01*
X24540600Y31529270D01*
X24540604Y31529270D01*
X24659955Y31548173D01*
X24659960Y31548175D01*
X24767634Y31603037D01*
X24853087Y31688490D01*
X24907949Y31796164D01*
X24907951Y31796169D01*
X24926855Y31915521D01*
X24926855Y31915528D01*
X24907951Y32034880D01*
X24907950Y32034881D01*
X24907950Y32034884D01*
X24853087Y32142560D01*
X24830151Y32165496D01*
X26338045Y32165496D01*
X26356948Y32046144D01*
X26356950Y32046139D01*
X26411812Y31938465D01*
X26497265Y31853012D01*
X26604939Y31798150D01*
X26604944Y31798148D01*
X26724296Y31779245D01*
X26724300Y31779245D01*
X26724304Y31779245D01*
X26843655Y31798148D01*
X26843660Y31798150D01*
X26951334Y31853012D01*
X27036787Y31938465D01*
X27091649Y32046139D01*
X27091651Y32046144D01*
X27110555Y32165496D01*
X27110555Y32165503D01*
X27091651Y32284855D01*
X27091650Y32284856D01*
X27091650Y32284859D01*
X27036787Y32392535D01*
X26951335Y32477987D01*
X26843659Y32532850D01*
X26843656Y32532850D01*
X26843655Y32532851D01*
X26724304Y32551755D01*
X26724296Y32551755D01*
X26604944Y32532851D01*
X26604939Y32532849D01*
X26497265Y32477987D01*
X26411812Y32392534D01*
X26356950Y32284860D01*
X26356948Y32284855D01*
X26338045Y32165503D01*
X26338045Y32165496D01*
X24830151Y32165496D01*
X24767635Y32228012D01*
X24659959Y32282875D01*
X24659956Y32282875D01*
X24659955Y32282876D01*
X24540604Y32301780D01*
X24540598Y32301780D01*
X24522068Y32298844D01*
X24516349Y32297939D01*
X24469836Y32309105D01*
X24444842Y32349891D01*
X24444842Y32369447D01*
X24456682Y32444197D01*
X24456682Y32444203D01*
X24437778Y32563555D01*
X24437777Y32563556D01*
X24437777Y32563559D01*
X24382914Y32671235D01*
X24297462Y32756687D01*
X24189786Y32811550D01*
X24189783Y32811550D01*
X24189782Y32811551D01*
X24070431Y32830455D01*
X24070423Y32830455D01*
X23951071Y32811551D01*
X23951066Y32811549D01*
X23843392Y32756687D01*
X23757939Y32671234D01*
X23703077Y32563560D01*
X23703075Y32563555D01*
X23684172Y32444203D01*
X23684172Y32444196D01*
X13706448Y32444196D01*
X13707058Y32450000D01*
X13688876Y32622995D01*
X13635123Y32788428D01*
X13548149Y32939071D01*
X13431755Y33068340D01*
X13291029Y33170583D01*
X13132120Y33241334D01*
X12961974Y33277500D01*
X12788026Y33277500D01*
X12617880Y33241334D01*
X12617871Y33241330D01*
X12617868Y33241329D01*
X12548751Y33210556D01*
X12458971Y33170583D01*
X12458968Y33170581D01*
X12458966Y33170580D01*
X12318245Y33068340D01*
X12318239Y33068334D01*
X12268501Y33013093D01*
X12201851Y32939071D01*
X12114877Y32788428D01*
X12114875Y32788424D01*
X12114875Y32788423D01*
X12061124Y32622996D01*
X12042942Y32450000D01*
X3638179Y32450000D01*
X3541029Y32520583D01*
X3382120Y32591334D01*
X3211974Y32627500D01*
X3038026Y32627500D01*
X2867880Y32591334D01*
X2867871Y32591330D01*
X2867868Y32591329D01*
X2805499Y32563560D01*
X2708971Y32520583D01*
X2708968Y32520581D01*
X2708966Y32520580D01*
X2568245Y32418340D01*
X2568239Y32418334D01*
X2545010Y32392535D01*
X2451851Y32289071D01*
X2364877Y32138428D01*
X2364875Y32138424D01*
X2364875Y32138423D01*
X2311124Y31972996D01*
X2292942Y31800000D01*
X381500Y31800000D01*
X381500Y34850000D01*
X9492580Y34850000D01*
X9512196Y34675896D01*
X9570066Y34510515D01*
X9570067Y34510514D01*
X9663277Y34362170D01*
X9787170Y34238277D01*
X9935514Y34145067D01*
X9935515Y34145066D01*
X10100896Y34087196D01*
X10275000Y34067580D01*
X10449103Y34087196D01*
X10539264Y34118745D01*
X10614479Y34145064D01*
X10614484Y34145066D01*
X10614485Y34145067D01*
X10762829Y34238277D01*
X10824548Y34299996D01*
X24684045Y34299996D01*
X24702948Y34180644D01*
X24702950Y34180639D01*
X24757812Y34072965D01*
X24843265Y33987512D01*
X24950939Y33932650D01*
X24950944Y33932648D01*
X25070296Y33913745D01*
X25070300Y33913745D01*
X25070304Y33913745D01*
X25171016Y33929696D01*
X26338045Y33929696D01*
X26356948Y33810344D01*
X26356950Y33810339D01*
X26411812Y33702665D01*
X26497265Y33617212D01*
X26604939Y33562350D01*
X26604944Y33562348D01*
X26724296Y33543445D01*
X26724300Y33543445D01*
X26724304Y33543445D01*
X26843655Y33562348D01*
X26843660Y33562350D01*
X26951334Y33617212D01*
X27036787Y33702665D01*
X27091649Y33810339D01*
X27091651Y33810344D01*
X27110555Y33929696D01*
X27110555Y33929703D01*
X27091651Y34049055D01*
X27091650Y34049056D01*
X27091650Y34049059D01*
X27036787Y34156735D01*
X26951335Y34242187D01*
X26843659Y34297050D01*
X26843656Y34297050D01*
X26843655Y34297051D01*
X26724304Y34315955D01*
X26724296Y34315955D01*
X26604944Y34297051D01*
X26604939Y34297049D01*
X26497265Y34242187D01*
X26411812Y34156734D01*
X26356950Y34049060D01*
X26356948Y34049055D01*
X26338045Y33929703D01*
X26338045Y33929696D01*
X25171016Y33929696D01*
X25189655Y33932648D01*
X25189660Y33932650D01*
X25297334Y33987512D01*
X25382787Y34072965D01*
X25437649Y34180639D01*
X25437651Y34180644D01*
X25456555Y34299996D01*
X25456555Y34300003D01*
X25437651Y34419355D01*
X25437650Y34419356D01*
X25437650Y34419359D01*
X25382787Y34527035D01*
X25297335Y34612487D01*
X25189659Y34667350D01*
X25189656Y34667350D01*
X25189655Y34667351D01*
X25070304Y34686255D01*
X25070296Y34686255D01*
X24950944Y34667351D01*
X24950939Y34667349D01*
X24843265Y34612487D01*
X24757812Y34527034D01*
X24702950Y34419360D01*
X24702948Y34419355D01*
X24684045Y34300003D01*
X24684045Y34299996D01*
X10824548Y34299996D01*
X10886722Y34362170D01*
X10979932Y34510514D01*
X10979933Y34510515D01*
X10979933Y34510517D01*
X10979936Y34510521D01*
X11037803Y34675895D01*
X11057420Y34850000D01*
X11037803Y35024105D01*
X10979936Y35189479D01*
X10886721Y35337831D01*
X10762831Y35461721D01*
X10614479Y35554936D01*
X10449105Y35612803D01*
X10275000Y35632420D01*
X10100895Y35612803D01*
X9935521Y35554936D01*
X9935517Y35554933D01*
X9935515Y35554933D01*
X9935514Y35554932D01*
X9787170Y35461722D01*
X9663277Y35337829D01*
X9570067Y35189485D01*
X9570066Y35189484D01*
X9512196Y35024103D01*
X9492580Y34850000D01*
X381500Y34850000D01*
X381500Y36593514D01*
X23610813Y36593514D01*
X23629716Y36474162D01*
X23629718Y36474157D01*
X23684580Y36366483D01*
X23770033Y36281030D01*
X23877707Y36226168D01*
X23877712Y36226166D01*
X23997064Y36207263D01*
X23997067Y36207263D01*
X23997068Y36207263D01*
X24006046Y36208685D01*
X24052559Y36197517D01*
X24077553Y36156730D01*
X24077553Y36137178D01*
X24063746Y36050003D01*
X24063745Y36049997D01*
X24063745Y36049996D01*
X24082648Y35930644D01*
X24082650Y35930639D01*
X24137512Y35822965D01*
X24222965Y35737512D01*
X24330639Y35682650D01*
X24330644Y35682648D01*
X24449996Y35663745D01*
X24450000Y35663745D01*
X24450004Y35663745D01*
X24569355Y35682648D01*
X24569360Y35682650D01*
X24677034Y35737512D01*
X24762487Y35822965D01*
X24817349Y35930639D01*
X24817351Y35930644D01*
X24836255Y36049996D01*
X24836255Y36050003D01*
X24817351Y36169355D01*
X24817350Y36169356D01*
X24817350Y36169359D01*
X24762487Y36277035D01*
X24677035Y36362487D01*
X24569359Y36417350D01*
X24569356Y36417350D01*
X24569355Y36417351D01*
X24450004Y36436255D01*
X24450001Y36436255D01*
X24450000Y36436254D01*
X24450000Y36436255D01*
X24441023Y36434833D01*
X24394511Y36445998D01*
X24369515Y36486783D01*
X24369515Y36506341D01*
X24383323Y36593515D01*
X24383323Y36593521D01*
X24364419Y36712873D01*
X24364418Y36712874D01*
X24364418Y36712877D01*
X24309555Y36820553D01*
X24224103Y36906005D01*
X24116427Y36960868D01*
X24116424Y36960868D01*
X24116423Y36960869D01*
X23997072Y36979773D01*
X23997064Y36979773D01*
X23877712Y36960869D01*
X23877707Y36960867D01*
X23770033Y36906005D01*
X23684580Y36820552D01*
X23629718Y36712878D01*
X23629716Y36712873D01*
X23610813Y36593521D01*
X23610813Y36593514D01*
X381500Y36593514D01*
X381500Y37650000D01*
X9492580Y37650000D01*
X9512196Y37475896D01*
X9570066Y37310515D01*
X9570067Y37310514D01*
X9663277Y37162170D01*
X9787170Y37038277D01*
X9935514Y36945067D01*
X9935515Y36945066D01*
X10100896Y36887196D01*
X10275000Y36867580D01*
X10449103Y36887196D01*
X10539264Y36918745D01*
X10614479Y36945064D01*
X10614484Y36945066D01*
X10614485Y36945067D01*
X10762829Y37038277D01*
X10886722Y37162170D01*
X10979932Y37310514D01*
X10979933Y37310515D01*
X10979933Y37310517D01*
X10979936Y37310521D01*
X11037803Y37475895D01*
X11057420Y37650000D01*
X11037803Y37824105D01*
X10979936Y37989479D01*
X10886721Y38137831D01*
X10762831Y38261721D01*
X10614479Y38354936D01*
X10449105Y38412803D01*
X10275000Y38432420D01*
X10100895Y38412803D01*
X9935521Y38354936D01*
X9935517Y38354933D01*
X9935515Y38354933D01*
X9935514Y38354932D01*
X9787170Y38261722D01*
X9663277Y38137829D01*
X9570067Y37989485D01*
X9570066Y37989484D01*
X9512196Y37824103D01*
X9492580Y37650000D01*
X381500Y37650000D01*
X381500Y38799996D01*
X18063745Y38799996D01*
X18082648Y38680644D01*
X18082650Y38680639D01*
X18137512Y38572965D01*
X18222965Y38487512D01*
X18330639Y38432650D01*
X18330644Y38432648D01*
X18449996Y38413745D01*
X18450000Y38413745D01*
X18450004Y38413745D01*
X18569355Y38432648D01*
X18569360Y38432650D01*
X18677034Y38487512D01*
X18762487Y38572965D01*
X18817349Y38680639D01*
X18817351Y38680644D01*
X18836255Y38799996D01*
X21313745Y38799996D01*
X21332648Y38680644D01*
X21332650Y38680639D01*
X21387512Y38572965D01*
X21472965Y38487512D01*
X21580639Y38432650D01*
X21580644Y38432648D01*
X21699996Y38413745D01*
X21700000Y38413745D01*
X21700004Y38413745D01*
X21819355Y38432648D01*
X21819360Y38432650D01*
X21927034Y38487512D01*
X22012487Y38572965D01*
X22018976Y38585700D01*
X22055350Y38616767D01*
X22103038Y38613014D01*
X22130352Y38585701D01*
X22137068Y38572519D01*
X22222520Y38487067D01*
X22330194Y38432205D01*
X22330199Y38432203D01*
X22449551Y38413300D01*
X22449555Y38413300D01*
X22449559Y38413300D01*
X22568910Y38432203D01*
X22568915Y38432205D01*
X22676589Y38487067D01*
X22763130Y38573608D01*
X22807324Y38591914D01*
X22851518Y38573608D01*
X22936884Y38488242D01*
X23044558Y38433380D01*
X23044563Y38433378D01*
X23163915Y38414475D01*
X23163919Y38414475D01*
X23163923Y38414475D01*
X23283274Y38433378D01*
X23283279Y38433380D01*
X23390953Y38488242D01*
X23476406Y38573695D01*
X23531268Y38681369D01*
X23531270Y38681374D01*
X23550174Y38800726D01*
X23550174Y38800733D01*
X23531270Y38920085D01*
X23531269Y38920086D01*
X23531269Y38920089D01*
X23476406Y39027765D01*
X23390954Y39113217D01*
X23283278Y39168080D01*
X23283275Y39168080D01*
X23283274Y39168081D01*
X23163923Y39186985D01*
X23163915Y39186985D01*
X23044563Y39168081D01*
X23044558Y39168079D01*
X22936884Y39113217D01*
X22850343Y39026676D01*
X22806149Y39008370D01*
X22761956Y39026675D01*
X22676590Y39112042D01*
X22568914Y39166905D01*
X22568911Y39166905D01*
X22568910Y39166906D01*
X22449559Y39185810D01*
X22449551Y39185810D01*
X22330199Y39166906D01*
X22330194Y39166904D01*
X22222520Y39112042D01*
X22137067Y39026589D01*
X22130577Y39013852D01*
X22094202Y38982787D01*
X22046514Y38986541D01*
X22019202Y39013854D01*
X22012487Y39027035D01*
X21927035Y39112487D01*
X21819359Y39167350D01*
X21819356Y39167350D01*
X21819355Y39167351D01*
X21700004Y39186255D01*
X21699996Y39186255D01*
X21580644Y39167351D01*
X21580639Y39167349D01*
X21472965Y39112487D01*
X21387512Y39027034D01*
X21332650Y38919360D01*
X21332648Y38919355D01*
X21313745Y38800003D01*
X21313745Y38799996D01*
X18836255Y38799996D01*
X18836255Y38800003D01*
X18817351Y38919355D01*
X18817350Y38919356D01*
X18817350Y38919359D01*
X18811683Y38930479D01*
X18807929Y38978165D01*
X18838994Y39014541D01*
X18886682Y39018296D01*
X18895745Y39014542D01*
X18998985Y38961939D01*
X18998990Y38961937D01*
X19118342Y38943034D01*
X19118346Y38943034D01*
X19118350Y38943034D01*
X19237701Y38961937D01*
X19237706Y38961939D01*
X19345380Y39016801D01*
X19430833Y39102254D01*
X19485695Y39209928D01*
X19485697Y39209933D01*
X19504601Y39329285D01*
X19504601Y39329292D01*
X19485697Y39448644D01*
X19485696Y39448645D01*
X19485696Y39448648D01*
X19430833Y39556324D01*
X19345381Y39641776D01*
X19237705Y39696639D01*
X19237702Y39696639D01*
X19237701Y39696640D01*
X19118350Y39715544D01*
X19118342Y39715544D01*
X18998990Y39696640D01*
X18998987Y39696639D01*
X18913453Y39653057D01*
X18865766Y39649305D01*
X18829392Y39680372D01*
X18823350Y39718524D01*
X18836255Y39799997D01*
X18836255Y39800003D01*
X18817351Y39919355D01*
X18817350Y39919356D01*
X18817350Y39919359D01*
X18762487Y40027035D01*
X18677035Y40112487D01*
X18569359Y40167350D01*
X18569356Y40167350D01*
X18569355Y40167351D01*
X18450004Y40186255D01*
X18449996Y40186255D01*
X18330644Y40167351D01*
X18330639Y40167349D01*
X18222965Y40112487D01*
X18137512Y40027034D01*
X18082650Y39919360D01*
X18082648Y39919355D01*
X18063745Y39800003D01*
X18063745Y39799996D01*
X18082648Y39680644D01*
X18082650Y39680639D01*
X18137512Y39572965D01*
X18222965Y39487512D01*
X18330639Y39432650D01*
X18330644Y39432648D01*
X18449996Y39413745D01*
X18450000Y39413745D01*
X18450004Y39413745D01*
X18569355Y39432648D01*
X18569360Y39432650D01*
X18654891Y39476230D01*
X18702579Y39479983D01*
X18738953Y39448916D01*
X18744995Y39410765D01*
X18732092Y39329292D01*
X18732091Y39329286D01*
X18732091Y39329285D01*
X18750994Y39209933D01*
X18750996Y39209927D01*
X18756663Y39198806D01*
X18760414Y39151118D01*
X18729346Y39114745D01*
X18681658Y39110994D01*
X18672611Y39114740D01*
X18569359Y39167350D01*
X18569356Y39167350D01*
X18569355Y39167351D01*
X18450004Y39186255D01*
X18449996Y39186255D01*
X18330644Y39167351D01*
X18330639Y39167349D01*
X18222965Y39112487D01*
X18137512Y39027034D01*
X18082650Y38919360D01*
X18082648Y38919355D01*
X18063745Y38800003D01*
X18063745Y38799996D01*
X381500Y38799996D01*
X381500Y40700000D01*
X2292942Y40700000D01*
X2311124Y40527003D01*
X2364875Y40361576D01*
X2364876Y40361573D01*
X2364877Y40361572D01*
X2388708Y40320296D01*
X2451850Y40210930D01*
X2451849Y40210930D01*
X2568239Y40081665D01*
X2568245Y40081659D01*
X2708966Y39979419D01*
X2708972Y39979416D01*
X2867868Y39908670D01*
X2867883Y39908665D01*
X3038026Y39872500D01*
X3211974Y39872500D01*
X3382116Y39908665D01*
X3382117Y39908665D01*
X3382120Y39908666D01*
X3382122Y39908667D01*
X3382131Y39908670D01*
X3541027Y39979416D01*
X3541033Y39979419D01*
X3638179Y40050000D01*
X12042942Y40050000D01*
X12061124Y39877003D01*
X12114875Y39711576D01*
X12114876Y39711573D01*
X12114877Y39711572D01*
X12148660Y39653058D01*
X12201850Y39560930D01*
X12201849Y39560930D01*
X12318239Y39431665D01*
X12318245Y39431659D01*
X12458966Y39329419D01*
X12458972Y39329416D01*
X12617868Y39258670D01*
X12617883Y39258665D01*
X12788026Y39222500D01*
X12961974Y39222500D01*
X13132116Y39258665D01*
X13132117Y39258665D01*
X13132120Y39258666D01*
X13132122Y39258667D01*
X13132131Y39258670D01*
X13291027Y39329416D01*
X13291033Y39329419D01*
X13431754Y39431659D01*
X13431760Y39431665D01*
X13482045Y39487513D01*
X13548149Y39560929D01*
X13635123Y39711572D01*
X13688876Y39877005D01*
X13707058Y40050000D01*
X13688876Y40222995D01*
X13657261Y40320296D01*
X20913745Y40320296D01*
X20932648Y40200944D01*
X20932650Y40200939D01*
X20987512Y40093265D01*
X21072965Y40007812D01*
X21180639Y39952950D01*
X21180644Y39952948D01*
X21299996Y39934045D01*
X21300000Y39934045D01*
X21300004Y39934045D01*
X21419355Y39952948D01*
X21419360Y39952950D01*
X21527034Y40007812D01*
X21612487Y40093265D01*
X21667349Y40200939D01*
X21667351Y40200944D01*
X21686255Y40320296D01*
X21686255Y40320302D01*
X21676946Y40379071D01*
X21688112Y40425585D01*
X21728898Y40450579D01*
X21748453Y40450580D01*
X21761758Y40448472D01*
X21850128Y40434476D01*
X21850129Y40434476D01*
X21850131Y40434476D01*
X21850132Y40434476D01*
X21969483Y40453379D01*
X21969488Y40453381D01*
X22077162Y40508243D01*
X22162615Y40593696D01*
X22217477Y40701370D01*
X22217479Y40701375D01*
X22236383Y40820727D01*
X22236383Y40820734D01*
X22217479Y40940086D01*
X22217478Y40940087D01*
X22217478Y40940090D01*
X22162615Y41047766D01*
X22077163Y41133218D01*
X22021664Y41161496D01*
X35798739Y41161496D01*
X35817642Y41042144D01*
X35817644Y41042139D01*
X35872506Y40934465D01*
X35957959Y40849012D01*
X36065633Y40794150D01*
X36065638Y40794148D01*
X36184990Y40775245D01*
X36184994Y40775245D01*
X36184998Y40775245D01*
X36304349Y40794148D01*
X36304354Y40794150D01*
X36412028Y40849012D01*
X36476145Y40913129D01*
X36520339Y40931435D01*
X36564533Y40913130D01*
X36628652Y40849011D01*
X36736324Y40794150D01*
X36736329Y40794148D01*
X36855681Y40775245D01*
X36855685Y40775245D01*
X36855689Y40775245D01*
X36975040Y40794148D01*
X36975045Y40794150D01*
X37082719Y40849012D01*
X37128742Y40895035D01*
X37172936Y40913341D01*
X37217130Y40895036D01*
X37263155Y40849011D01*
X37370827Y40794150D01*
X37370832Y40794148D01*
X37490184Y40775245D01*
X37490188Y40775245D01*
X37490192Y40775245D01*
X37609543Y40794148D01*
X37609548Y40794150D01*
X37717222Y40849012D01*
X37802675Y40934465D01*
X37857537Y41042139D01*
X37857539Y41042144D01*
X37876443Y41161496D01*
X37876443Y41161503D01*
X37870346Y41199996D01*
X43442247Y41199996D01*
X43461150Y41080644D01*
X43461152Y41080639D01*
X43516014Y40972965D01*
X43601467Y40887512D01*
X43709141Y40832650D01*
X43709146Y40832648D01*
X43828498Y40813745D01*
X43828502Y40813745D01*
X43828506Y40813745D01*
X43947857Y40832648D01*
X43947862Y40832650D01*
X44055536Y40887512D01*
X44140989Y40972965D01*
X44195851Y41080639D01*
X44195853Y41080644D01*
X44214757Y41199996D01*
X44214757Y41200003D01*
X44195853Y41319355D01*
X44195852Y41319356D01*
X44195852Y41319359D01*
X44140989Y41427035D01*
X44055537Y41512487D01*
X43947861Y41567350D01*
X43947858Y41567350D01*
X43947857Y41567351D01*
X43828506Y41586255D01*
X43828498Y41586255D01*
X43709146Y41567351D01*
X43709141Y41567349D01*
X43601467Y41512487D01*
X43516014Y41427034D01*
X43461152Y41319360D01*
X43461150Y41319355D01*
X43442247Y41200003D01*
X43442247Y41199996D01*
X37870346Y41199996D01*
X37857539Y41280855D01*
X37857538Y41280856D01*
X37857538Y41280859D01*
X37802675Y41388535D01*
X37717223Y41473987D01*
X37609547Y41528850D01*
X37609544Y41528850D01*
X37609543Y41528851D01*
X37490192Y41547755D01*
X37490184Y41547755D01*
X37370832Y41528851D01*
X37370827Y41528849D01*
X37263153Y41473987D01*
X37217130Y41427964D01*
X37172936Y41409658D01*
X37128743Y41427963D01*
X37082720Y41473987D01*
X36975044Y41528850D01*
X36975041Y41528850D01*
X36975040Y41528851D01*
X36855689Y41547755D01*
X36855681Y41547755D01*
X36736329Y41528851D01*
X36736324Y41528849D01*
X36628650Y41473987D01*
X36564533Y41409870D01*
X36520339Y41391564D01*
X36476146Y41409869D01*
X36412029Y41473987D01*
X36304353Y41528850D01*
X36304350Y41528850D01*
X36304349Y41528851D01*
X36184998Y41547755D01*
X36184990Y41547755D01*
X36065638Y41528851D01*
X36065633Y41528849D01*
X35957959Y41473987D01*
X35872506Y41388534D01*
X35817644Y41280860D01*
X35817642Y41280855D01*
X35798739Y41161503D01*
X35798739Y41161496D01*
X22021664Y41161496D01*
X21969487Y41188081D01*
X21969484Y41188081D01*
X21969483Y41188082D01*
X21850132Y41206986D01*
X21850126Y41206986D01*
X21833973Y41204427D01*
X21829179Y41203668D01*
X21782667Y41214834D01*
X21757672Y41255620D01*
X21757672Y41275175D01*
X21774227Y41379696D01*
X21774227Y41379703D01*
X21755323Y41499055D01*
X21755322Y41499056D01*
X21755322Y41499059D01*
X21700459Y41606735D01*
X21615007Y41692187D01*
X21507331Y41747050D01*
X21507328Y41747050D01*
X21507327Y41747051D01*
X21387976Y41765955D01*
X21387968Y41765955D01*
X21268616Y41747051D01*
X21268611Y41747049D01*
X21160937Y41692187D01*
X21075484Y41606734D01*
X21020622Y41499060D01*
X21020620Y41499055D01*
X21001717Y41379703D01*
X21001717Y41379696D01*
X21020620Y41260344D01*
X21020622Y41260339D01*
X21075484Y41152665D01*
X21160937Y41067212D01*
X21268611Y41012350D01*
X21268616Y41012348D01*
X21387968Y40993445D01*
X21387970Y40993445D01*
X21387971Y40993445D01*
X21387972Y40993445D01*
X21408920Y40996762D01*
X21455434Y40985595D01*
X21480428Y40944809D01*
X21480428Y40925255D01*
X21463873Y40820734D01*
X21463873Y40820731D01*
X21464979Y40813745D01*
X21473182Y40761958D01*
X21462014Y40715444D01*
X21421228Y40690450D01*
X21401674Y40690450D01*
X21341386Y40700000D01*
X21300002Y40706555D01*
X21299996Y40706555D01*
X21180644Y40687651D01*
X21180639Y40687649D01*
X21072965Y40632787D01*
X20987512Y40547334D01*
X20932650Y40439660D01*
X20932648Y40439655D01*
X20913745Y40320303D01*
X20913745Y40320296D01*
X13657261Y40320296D01*
X13635123Y40388428D01*
X13548149Y40539071D01*
X13431755Y40668340D01*
X13291029Y40770583D01*
X13132120Y40841334D01*
X12961974Y40877500D01*
X12788026Y40877500D01*
X12617880Y40841334D01*
X12617871Y40841330D01*
X12617868Y40841329D01*
X12571605Y40820731D01*
X12458971Y40770583D01*
X12458968Y40770581D01*
X12458966Y40770580D01*
X12318245Y40668340D01*
X12318239Y40668334D01*
X12292003Y40639195D01*
X12201851Y40539071D01*
X12114877Y40388428D01*
X12114875Y40388424D01*
X12114875Y40388423D01*
X12061124Y40222996D01*
X12042942Y40050000D01*
X3638179Y40050000D01*
X3681754Y40081659D01*
X3681760Y40081665D01*
X3723208Y40127698D01*
X3798149Y40210929D01*
X3885123Y40361572D01*
X3938876Y40527005D01*
X3957058Y40700000D01*
X3938876Y40872995D01*
X3885123Y41038428D01*
X3798149Y41189071D01*
X3681755Y41318340D01*
X3541029Y41420583D01*
X3382120Y41491334D01*
X3211974Y41527500D01*
X3038026Y41527500D01*
X2867880Y41491334D01*
X2867871Y41491330D01*
X2867868Y41491329D01*
X2828920Y41473988D01*
X2708971Y41420583D01*
X2708968Y41420581D01*
X2708966Y41420580D01*
X2568245Y41318340D01*
X2568239Y41318334D01*
X2534498Y41280860D01*
X2451851Y41189071D01*
X2364877Y41038428D01*
X2364875Y41038424D01*
X2364875Y41038423D01*
X2311124Y40872996D01*
X2292942Y40700000D01*
X381500Y40700000D01*
X381500Y41999996D01*
X12713745Y41999996D01*
X12732648Y41880644D01*
X12732650Y41880639D01*
X12787512Y41772965D01*
X12872965Y41687512D01*
X12980639Y41632650D01*
X12980644Y41632648D01*
X13099996Y41613745D01*
X13100000Y41613745D01*
X13100004Y41613745D01*
X13219355Y41632648D01*
X13219360Y41632650D01*
X13327034Y41687512D01*
X13412487Y41772965D01*
X13467349Y41880639D01*
X13467351Y41880644D01*
X13486255Y41999996D01*
X13486255Y42000003D01*
X13467351Y42119355D01*
X13467350Y42119356D01*
X13467350Y42119359D01*
X13438238Y42176496D01*
X35813745Y42176496D01*
X35832648Y42057144D01*
X35832650Y42057139D01*
X35887512Y41949465D01*
X35972965Y41864012D01*
X36080639Y41809150D01*
X36080644Y41809148D01*
X36199996Y41790245D01*
X36200000Y41790245D01*
X36200004Y41790245D01*
X36319355Y41809148D01*
X36319360Y41809150D01*
X36427034Y41864012D01*
X36480806Y41917784D01*
X36525000Y41936090D01*
X36569194Y41917784D01*
X36622965Y41864012D01*
X36730639Y41809150D01*
X36730644Y41809148D01*
X36849996Y41790245D01*
X36850000Y41790245D01*
X36850004Y41790245D01*
X36969355Y41809148D01*
X36969360Y41809150D01*
X37077034Y41864012D01*
X37123057Y41910035D01*
X37167251Y41928341D01*
X37211445Y41910036D01*
X37257470Y41864011D01*
X37365142Y41809150D01*
X37365147Y41809148D01*
X37484499Y41790245D01*
X37484503Y41790245D01*
X37484507Y41790245D01*
X37603858Y41809148D01*
X37603863Y41809150D01*
X37711537Y41864012D01*
X37796990Y41949465D01*
X37851852Y42057139D01*
X37851854Y42057144D01*
X37870758Y42176496D01*
X37870758Y42176503D01*
X37851854Y42295855D01*
X37851853Y42295856D01*
X37851853Y42295859D01*
X37796990Y42403535D01*
X37711538Y42488987D01*
X37603862Y42543850D01*
X37603859Y42543850D01*
X37603858Y42543851D01*
X37484507Y42562755D01*
X37484499Y42562755D01*
X37365147Y42543851D01*
X37365142Y42543849D01*
X37257468Y42488987D01*
X37211445Y42442964D01*
X37167251Y42424658D01*
X37123058Y42442963D01*
X37077035Y42488987D01*
X36969359Y42543850D01*
X36969356Y42543850D01*
X36969355Y42543851D01*
X36850004Y42562755D01*
X36849996Y42562755D01*
X36730644Y42543851D01*
X36730639Y42543849D01*
X36622965Y42488987D01*
X36569194Y42435216D01*
X36525000Y42416910D01*
X36480806Y42435216D01*
X36473058Y42442964D01*
X36427035Y42488987D01*
X36319359Y42543850D01*
X36319356Y42543850D01*
X36319355Y42543851D01*
X36200004Y42562755D01*
X36199996Y42562755D01*
X36080644Y42543851D01*
X36080639Y42543849D01*
X35972965Y42488987D01*
X35887512Y42403534D01*
X35832650Y42295860D01*
X35832648Y42295855D01*
X35813745Y42176503D01*
X35813745Y42176496D01*
X13438238Y42176496D01*
X13412487Y42227035D01*
X13327035Y42312487D01*
X13219359Y42367350D01*
X13219356Y42367350D01*
X13219355Y42367351D01*
X13100004Y42386255D01*
X13099996Y42386255D01*
X12980644Y42367351D01*
X12980639Y42367349D01*
X12872965Y42312487D01*
X12787512Y42227034D01*
X12732650Y42119360D01*
X12732648Y42119355D01*
X12713745Y42000003D01*
X12713745Y41999996D01*
X381500Y41999996D01*
X381500Y46000000D01*
X867572Y46000000D01*
X887268Y45649279D01*
X887268Y45649274D01*
X887269Y45649271D01*
X946110Y45302962D01*
X1043352Y44965426D01*
X1043356Y44965414D01*
X1177778Y44640893D01*
X1177785Y44640878D01*
X1347693Y44333455D01*
X1347698Y44333446D01*
X1550966Y44046966D01*
X1550967Y44046965D01*
X1785039Y43785039D01*
X2046965Y43550967D01*
X2046966Y43550966D01*
X2333446Y43347698D01*
X2333455Y43347693D01*
X2640878Y43177785D01*
X2640893Y43177778D01*
X2965414Y43043356D01*
X2965426Y43043352D01*
X3302962Y42946110D01*
X3649271Y42887269D01*
X3649274Y42887268D01*
X3649279Y42887268D01*
X4000000Y42867572D01*
X4350721Y42887268D01*
X4350726Y42887268D01*
X4350728Y42887269D01*
X4697037Y42946110D01*
X5034573Y43043352D01*
X5034585Y43043356D01*
X5359106Y43177778D01*
X5359121Y43177785D01*
X5656667Y43342234D01*
X5666552Y43347697D01*
X5953037Y43550969D01*
X6214961Y43785039D01*
X6317694Y43899997D01*
X17322560Y43899997D01*
X17342234Y43750554D01*
X17342236Y43750548D01*
X17399922Y43611279D01*
X17491687Y43491687D01*
X17611279Y43399922D01*
X17750548Y43342236D01*
X17750554Y43342234D01*
X17862472Y43327500D01*
X17862477Y43327500D01*
X17937527Y43327500D01*
X18049445Y43342234D01*
X18049450Y43342235D01*
X18049452Y43342236D01*
X18188720Y43399922D01*
X18308312Y43491687D01*
X18400077Y43611279D01*
X18400078Y43611280D01*
X18457764Y43750548D01*
X18477440Y43899997D01*
X31522560Y43899997D01*
X31542234Y43750554D01*
X31542236Y43750548D01*
X31599922Y43611279D01*
X31691687Y43491687D01*
X31811279Y43399922D01*
X31950548Y43342236D01*
X31950554Y43342234D01*
X32062472Y43327500D01*
X32062477Y43327500D01*
X32137527Y43327500D01*
X32249445Y43342234D01*
X32249450Y43342235D01*
X32249452Y43342236D01*
X32388720Y43399922D01*
X32508312Y43491687D01*
X32600077Y43611279D01*
X32600078Y43611280D01*
X32657764Y43750548D01*
X32677440Y43900000D01*
X32658091Y44046965D01*
X32657765Y44049445D01*
X32657764Y44049445D01*
X32657764Y44049452D01*
X32600078Y44188720D01*
X32508312Y44308312D01*
X32388720Y44400078D01*
X32249452Y44457764D01*
X32249445Y44457764D01*
X32249445Y44457765D01*
X32233540Y44459858D01*
X32137523Y44472500D01*
X32062477Y44472500D01*
X31993161Y44463374D01*
X31950554Y44457765D01*
X31950552Y44457764D01*
X31950548Y44457764D01*
X31811280Y44400078D01*
X31787857Y44382105D01*
X31691687Y44308312D01*
X31603507Y44193392D01*
X31599922Y44188720D01*
X31545408Y44057108D01*
X31542236Y44049451D01*
X31542234Y44049445D01*
X31522560Y43900002D01*
X31522560Y43899997D01*
X18477440Y43899997D01*
X18477440Y43900000D01*
X18458091Y44046965D01*
X18457765Y44049445D01*
X18457764Y44049445D01*
X18457764Y44049452D01*
X18400078Y44188720D01*
X18308312Y44308312D01*
X18188822Y44400000D01*
X18534493Y44400000D01*
X18552032Y44278009D01*
X18552033Y44278006D01*
X18587731Y44199837D01*
X18587732Y44199836D01*
X18751694Y44363799D01*
X18795888Y44382105D01*
X18840082Y44363799D01*
X18852740Y44345569D01*
X18867467Y44313320D01*
X18919689Y44279760D01*
X18946971Y44240467D01*
X18938477Y44193392D01*
X18930093Y44182988D01*
X18766684Y44019579D01*
X18766684Y44019578D01*
X18787617Y44006125D01*
X18787626Y44006121D01*
X18905874Y43971400D01*
X19029125Y43971400D01*
X19147375Y44006121D01*
X19168314Y44019579D01*
X19005465Y44182429D01*
X18987159Y44226623D01*
X19005465Y44270817D01*
X19032050Y44286591D01*
X19039059Y44288649D01*
X19039060Y44288649D01*
X19093786Y44351806D01*
X19095634Y44350204D01*
X19121308Y44374114D01*
X19169113Y44372413D01*
X19187351Y44359752D01*
X19253737Y44293366D01*
X19265231Y44277547D01*
X19310818Y44188079D01*
X19390580Y44108317D01*
X19491082Y44057108D01*
X19491086Y44057107D01*
X19602500Y44039461D01*
X19713913Y44057107D01*
X19713917Y44057108D01*
X19814419Y44108317D01*
X19875806Y44169704D01*
X19920000Y44188010D01*
X19964194Y44169704D01*
X20025580Y44108317D01*
X20126082Y44057108D01*
X20126086Y44057107D01*
X20237499Y44039461D01*
X20237500Y44039461D01*
X20348913Y44057107D01*
X20348917Y44057108D01*
X20449419Y44108317D01*
X20510806Y44169704D01*
X20555000Y44188010D01*
X20599194Y44169704D01*
X20660580Y44108317D01*
X20761082Y44057108D01*
X20761086Y44057107D01*
X20872500Y44039461D01*
X20983913Y44057107D01*
X20983917Y44057108D01*
X21084419Y44108317D01*
X21164182Y44188080D01*
X21170172Y44199836D01*
X21209768Y44277547D01*
X21221261Y44293366D01*
X21291694Y44363799D01*
X21335888Y44382105D01*
X21380082Y44363799D01*
X21392740Y44345569D01*
X21407467Y44313320D01*
X21459689Y44279760D01*
X21486971Y44240467D01*
X21478477Y44193392D01*
X21470093Y44182988D01*
X21306684Y44019579D01*
X21306684Y44019578D01*
X21327617Y44006125D01*
X21327626Y44006121D01*
X21445874Y43971400D01*
X21569125Y43971400D01*
X21687375Y44006121D01*
X21708314Y44019579D01*
X21545465Y44182429D01*
X21527159Y44226623D01*
X21545465Y44270817D01*
X21572050Y44286591D01*
X21579059Y44288649D01*
X21579060Y44288649D01*
X21633786Y44351806D01*
X21635634Y44350204D01*
X21661308Y44374114D01*
X21709113Y44372413D01*
X21727351Y44359752D01*
X21793737Y44293366D01*
X21805231Y44277547D01*
X21850818Y44188079D01*
X21930580Y44108317D01*
X22031082Y44057108D01*
X22031086Y44057107D01*
X22142500Y44039461D01*
X22253913Y44057107D01*
X22253917Y44057108D01*
X22354419Y44108317D01*
X22415806Y44169704D01*
X22460000Y44188010D01*
X22504194Y44169704D01*
X22565580Y44108317D01*
X22666082Y44057108D01*
X22666086Y44057107D01*
X22777500Y44039461D01*
X22888913Y44057107D01*
X22888917Y44057108D01*
X22989419Y44108317D01*
X23069182Y44188080D01*
X23075172Y44199836D01*
X23114768Y44277547D01*
X23126261Y44293366D01*
X23196694Y44363799D01*
X23240888Y44382105D01*
X23285082Y44363799D01*
X23297740Y44345569D01*
X23312467Y44313320D01*
X23364689Y44279760D01*
X23391971Y44240467D01*
X23383477Y44193392D01*
X23375093Y44182988D01*
X23211684Y44019579D01*
X23211684Y44019578D01*
X23232617Y44006125D01*
X23232626Y44006121D01*
X23350874Y43971400D01*
X23474125Y43971400D01*
X23592375Y44006121D01*
X23613314Y44019579D01*
X23450465Y44182429D01*
X23432159Y44226623D01*
X23450465Y44270817D01*
X23477050Y44286591D01*
X23484059Y44288649D01*
X23484060Y44288649D01*
X23538786Y44351806D01*
X23540634Y44350204D01*
X23566308Y44374114D01*
X23614113Y44372413D01*
X23632351Y44359752D01*
X23698737Y44293366D01*
X23710231Y44277547D01*
X23755818Y44188079D01*
X23835580Y44108317D01*
X23936082Y44057108D01*
X23936086Y44057107D01*
X24047500Y44039461D01*
X24158913Y44057107D01*
X24158917Y44057108D01*
X24259419Y44108317D01*
X24320806Y44169704D01*
X24365000Y44188010D01*
X24409194Y44169704D01*
X24470580Y44108317D01*
X24571082Y44057108D01*
X24571086Y44057107D01*
X24682499Y44039461D01*
X24682500Y44039461D01*
X24793913Y44057107D01*
X24793917Y44057108D01*
X24894419Y44108317D01*
X24955806Y44169704D01*
X25000000Y44188010D01*
X25044194Y44169704D01*
X25105580Y44108317D01*
X25206082Y44057108D01*
X25206086Y44057107D01*
X25317500Y44039461D01*
X25428913Y44057107D01*
X25428917Y44057108D01*
X25529419Y44108317D01*
X25590806Y44169704D01*
X25635000Y44188010D01*
X25679194Y44169704D01*
X25740580Y44108317D01*
X25841082Y44057108D01*
X25841086Y44057107D01*
X25952499Y44039461D01*
X25952500Y44039461D01*
X26063913Y44057107D01*
X26063917Y44057108D01*
X26164419Y44108317D01*
X26244182Y44188080D01*
X26289767Y44277545D01*
X26301261Y44293365D01*
X26371694Y44363799D01*
X26415888Y44382105D01*
X26460082Y44363799D01*
X26472740Y44345569D01*
X26487467Y44313320D01*
X26539689Y44279760D01*
X26566971Y44240467D01*
X26558477Y44193392D01*
X26550093Y44182988D01*
X26386684Y44019579D01*
X26386684Y44019578D01*
X26407617Y44006125D01*
X26407626Y44006121D01*
X26525874Y43971400D01*
X26649125Y43971400D01*
X26767375Y44006121D01*
X26788314Y44019579D01*
X26625465Y44182429D01*
X26607159Y44226623D01*
X26625465Y44270817D01*
X26652050Y44286591D01*
X26659059Y44288649D01*
X26659060Y44288649D01*
X26713786Y44351806D01*
X26715634Y44350204D01*
X26741308Y44374114D01*
X26789113Y44372413D01*
X26807351Y44359752D01*
X26873737Y44293366D01*
X26885231Y44277547D01*
X26930818Y44188079D01*
X27010580Y44108317D01*
X27111082Y44057108D01*
X27111086Y44057107D01*
X27222500Y44039461D01*
X27333913Y44057107D01*
X27333917Y44057108D01*
X27434419Y44108317D01*
X27514182Y44188080D01*
X27520172Y44199836D01*
X27559768Y44277547D01*
X27571261Y44293366D01*
X27641694Y44363799D01*
X27685888Y44382105D01*
X27730082Y44363799D01*
X27742740Y44345569D01*
X27757467Y44313320D01*
X27809689Y44279760D01*
X27836971Y44240467D01*
X27828477Y44193392D01*
X27820093Y44182988D01*
X27656684Y44019579D01*
X27656684Y44019578D01*
X27677617Y44006125D01*
X27677626Y44006121D01*
X27795874Y43971400D01*
X27919125Y43971400D01*
X28037375Y44006121D01*
X28058314Y44019579D01*
X27895465Y44182429D01*
X27877159Y44226623D01*
X27895465Y44270817D01*
X27922050Y44286591D01*
X27929059Y44288649D01*
X27929060Y44288649D01*
X27983786Y44351806D01*
X27985634Y44350204D01*
X28011308Y44374114D01*
X28059113Y44372413D01*
X28077351Y44359752D01*
X28143737Y44293366D01*
X28155231Y44277547D01*
X28200818Y44188079D01*
X28280580Y44108317D01*
X28381082Y44057108D01*
X28381086Y44057107D01*
X28492500Y44039461D01*
X28603913Y44057107D01*
X28603917Y44057108D01*
X28704419Y44108317D01*
X28765806Y44169704D01*
X28810000Y44188010D01*
X28854194Y44169704D01*
X28915580Y44108317D01*
X29016082Y44057108D01*
X29016086Y44057107D01*
X29127499Y44039461D01*
X29127500Y44039461D01*
X29238913Y44057107D01*
X29238917Y44057108D01*
X29339419Y44108317D01*
X29400806Y44169704D01*
X29445000Y44188010D01*
X29489194Y44169704D01*
X29550580Y44108317D01*
X29651082Y44057108D01*
X29651086Y44057107D01*
X29762500Y44039461D01*
X29873913Y44057107D01*
X29873917Y44057108D01*
X29974419Y44108317D01*
X30035806Y44169704D01*
X30080000Y44188010D01*
X30124194Y44169704D01*
X30185580Y44108317D01*
X30286082Y44057108D01*
X30286086Y44057107D01*
X30397499Y44039461D01*
X30397500Y44039461D01*
X30508913Y44057107D01*
X30508917Y44057108D01*
X30609419Y44108317D01*
X30670806Y44169704D01*
X30715000Y44188010D01*
X30759194Y44169704D01*
X30820580Y44108317D01*
X30921082Y44057108D01*
X30921086Y44057107D01*
X31032500Y44039461D01*
X31143913Y44057107D01*
X31143917Y44057108D01*
X31244419Y44108317D01*
X31324182Y44188080D01*
X31375391Y44288582D01*
X31375392Y44288586D01*
X31375393Y44288587D01*
X31393039Y44400000D01*
X31375393Y44511413D01*
X31374376Y44513408D01*
X31343821Y44573376D01*
X31324182Y44611920D01*
X31324178Y44611923D01*
X31321294Y44615894D01*
X31322983Y44617121D01*
X31307500Y44654472D01*
X31307500Y45345510D01*
X31322978Y45382876D01*
X31321292Y45384102D01*
X31324181Y45388079D01*
X31326889Y45393392D01*
X31367451Y45473000D01*
X31375391Y45488582D01*
X31375392Y45488586D01*
X31375393Y45488587D01*
X31393039Y45600000D01*
X31375393Y45711413D01*
X31374376Y45713408D01*
X31366339Y45729182D01*
X31324182Y45811920D01*
X31244420Y45891682D01*
X31143913Y45942893D01*
X31032500Y45960539D01*
X30921087Y45942893D01*
X30921084Y45942891D01*
X30921082Y45942891D01*
X30820580Y45891682D01*
X30759194Y45830296D01*
X30715000Y45811990D01*
X30670806Y45830296D01*
X30670805Y45830296D01*
X30609420Y45891682D01*
X30508913Y45942893D01*
X30397500Y45960539D01*
X30286087Y45942893D01*
X30286084Y45942891D01*
X30286082Y45942891D01*
X30185580Y45891682D01*
X30124194Y45830296D01*
X30080000Y45811990D01*
X30035806Y45830296D01*
X30035805Y45830296D01*
X29974420Y45891682D01*
X29873913Y45942893D01*
X29762500Y45960539D01*
X29651087Y45942893D01*
X29651084Y45942891D01*
X29651082Y45942891D01*
X29550580Y45891682D01*
X29489194Y45830296D01*
X29445000Y45811990D01*
X29400806Y45830296D01*
X29339420Y45891682D01*
X29238913Y45942893D01*
X29127500Y45960539D01*
X29016087Y45942893D01*
X29016084Y45942891D01*
X29016082Y45942891D01*
X28915580Y45891682D01*
X28854194Y45830296D01*
X28810000Y45811990D01*
X28765806Y45830296D01*
X28704420Y45891682D01*
X28603913Y45942893D01*
X28492500Y45960539D01*
X28381087Y45942893D01*
X28381084Y45942891D01*
X28381082Y45942891D01*
X28280580Y45891682D01*
X28200818Y45811920D01*
X28155231Y45722451D01*
X28143737Y45706632D01*
X28073305Y45636200D01*
X28029111Y45617894D01*
X27984917Y45636200D01*
X27972262Y45654425D01*
X27957533Y45686679D01*
X27905308Y45720240D01*
X27878028Y45759532D01*
X27886521Y45806608D01*
X27894906Y45817012D01*
X28058315Y45980419D01*
X28058315Y45980420D01*
X28037377Y45993877D01*
X27919125Y46028600D01*
X27795875Y46028600D01*
X27677626Y45993879D01*
X27677622Y45993877D01*
X27656684Y45980419D01*
X27819533Y45817570D01*
X27837839Y45773376D01*
X27819533Y45729182D01*
X27792947Y45713408D01*
X27785940Y45711350D01*
X27785939Y45711350D01*
X27731214Y45648194D01*
X27729367Y45649793D01*
X27703674Y45625879D01*
X27655870Y45627593D01*
X27637647Y45640247D01*
X27571261Y45706633D01*
X27559769Y45722449D01*
X27514182Y45811920D01*
X27434420Y45891682D01*
X27333913Y45942893D01*
X27222500Y45960539D01*
X27111087Y45942893D01*
X27111084Y45942891D01*
X27111082Y45942891D01*
X27010580Y45891682D01*
X26930818Y45811920D01*
X26885231Y45722451D01*
X26873737Y45706632D01*
X26803305Y45636200D01*
X26759111Y45617894D01*
X26714917Y45636200D01*
X26702262Y45654425D01*
X26687533Y45686679D01*
X26635309Y45720240D01*
X26608029Y45759531D01*
X26616521Y45806606D01*
X26624906Y45817011D01*
X26788315Y45980419D01*
X26788315Y45980420D01*
X26767377Y45993877D01*
X26649125Y46028600D01*
X26525875Y46028600D01*
X26407626Y45993879D01*
X26407622Y45993877D01*
X26386684Y45980419D01*
X26386683Y45980419D01*
X26549534Y45817570D01*
X26567840Y45773376D01*
X26549534Y45729182D01*
X26522949Y45713408D01*
X26515940Y45711350D01*
X26515939Y45711349D01*
X26461214Y45648194D01*
X26459367Y45649793D01*
X26433679Y45625879D01*
X26385874Y45627590D01*
X26367647Y45640246D01*
X26301261Y45706632D01*
X26289771Y45722445D01*
X26244182Y45811920D01*
X26164420Y45891682D01*
X26063913Y45942893D01*
X25952500Y45960539D01*
X25841087Y45942893D01*
X25841084Y45942891D01*
X25841082Y45942891D01*
X25740580Y45891682D01*
X25679194Y45830296D01*
X25635000Y45811990D01*
X25590806Y45830296D01*
X25590805Y45830296D01*
X25529420Y45891682D01*
X25428913Y45942893D01*
X25317500Y45960539D01*
X25206087Y45942893D01*
X25206084Y45942891D01*
X25206082Y45942891D01*
X25105580Y45891682D01*
X25044194Y45830296D01*
X25000000Y45811990D01*
X24955806Y45830296D01*
X24955805Y45830296D01*
X24894420Y45891682D01*
X24793913Y45942893D01*
X24682500Y45960539D01*
X24571087Y45942893D01*
X24571084Y45942891D01*
X24571082Y45942891D01*
X24470580Y45891682D01*
X24409194Y45830296D01*
X24365000Y45811990D01*
X24320806Y45830296D01*
X24259420Y45891682D01*
X24158913Y45942893D01*
X24047500Y45960539D01*
X23936087Y45942893D01*
X23936084Y45942891D01*
X23936082Y45942891D01*
X23835580Y45891682D01*
X23774194Y45830296D01*
X23730000Y45811990D01*
X23685806Y45830296D01*
X23624420Y45891682D01*
X23523913Y45942893D01*
X23412500Y45960539D01*
X23301087Y45942893D01*
X23301084Y45942891D01*
X23301082Y45942891D01*
X23200580Y45891682D01*
X23139194Y45830296D01*
X23095000Y45811990D01*
X23050806Y45830296D01*
X23050805Y45830296D01*
X22989420Y45891682D01*
X22888913Y45942893D01*
X22777500Y45960539D01*
X22666087Y45942893D01*
X22666084Y45942891D01*
X22666082Y45942891D01*
X22565580Y45891682D01*
X22504194Y45830296D01*
X22460000Y45811990D01*
X22415806Y45830296D01*
X22415805Y45830296D01*
X22354420Y45891682D01*
X22253913Y45942893D01*
X22142500Y45960539D01*
X22031087Y45942893D01*
X22031084Y45942891D01*
X22031082Y45942891D01*
X21930580Y45891682D01*
X21869194Y45830296D01*
X21825000Y45811990D01*
X21780806Y45830296D01*
X21719420Y45891682D01*
X21618913Y45942893D01*
X21507500Y45960539D01*
X21396087Y45942893D01*
X21396084Y45942891D01*
X21396082Y45942891D01*
X21295580Y45891682D01*
X21234194Y45830296D01*
X21190000Y45811990D01*
X21145806Y45830296D01*
X21084420Y45891682D01*
X20983913Y45942893D01*
X20872500Y45960539D01*
X20761087Y45942893D01*
X20761084Y45942891D01*
X20761082Y45942891D01*
X20660580Y45891682D01*
X20599194Y45830296D01*
X20555000Y45811990D01*
X20510806Y45830296D01*
X20510805Y45830296D01*
X20449420Y45891682D01*
X20348913Y45942893D01*
X20237500Y45960539D01*
X20126087Y45942893D01*
X20126084Y45942891D01*
X20126082Y45942891D01*
X20025580Y45891682D01*
X19964194Y45830296D01*
X19920000Y45811990D01*
X19875806Y45830296D01*
X19875805Y45830296D01*
X19814420Y45891682D01*
X19713913Y45942893D01*
X19602500Y45960539D01*
X19491087Y45942893D01*
X19491084Y45942891D01*
X19491082Y45942891D01*
X19390580Y45891682D01*
X19329194Y45830296D01*
X19285000Y45811990D01*
X19240806Y45830296D01*
X19179420Y45891682D01*
X19078913Y45942893D01*
X18967500Y45960539D01*
X18856087Y45942893D01*
X18856084Y45942891D01*
X18856082Y45942891D01*
X18755580Y45891682D01*
X18675817Y45811919D01*
X18624608Y45711417D01*
X18624607Y45711413D01*
X18609945Y45618837D01*
X18606961Y45599999D01*
X18624607Y45488586D01*
X18624608Y45488582D01*
X18675817Y45388080D01*
X18755580Y45308317D01*
X18856082Y45257108D01*
X18856086Y45257107D01*
X18967499Y45239461D01*
X18967500Y45239461D01*
X19078913Y45257107D01*
X19078917Y45257108D01*
X19179419Y45308317D01*
X19240806Y45369704D01*
X19285000Y45388010D01*
X19329194Y45369704D01*
X19390580Y45308317D01*
X19491082Y45257108D01*
X19491086Y45257107D01*
X19602500Y45239461D01*
X19713913Y45257107D01*
X19713917Y45257108D01*
X19814419Y45308317D01*
X19875806Y45369704D01*
X19920000Y45388010D01*
X19964194Y45369704D01*
X20025580Y45308317D01*
X20126082Y45257108D01*
X20126086Y45257107D01*
X20237499Y45239461D01*
X20237500Y45239461D01*
X20348913Y45257107D01*
X20348917Y45257108D01*
X20449419Y45308317D01*
X20510806Y45369704D01*
X20555000Y45388010D01*
X20599194Y45369704D01*
X20660580Y45308317D01*
X20761082Y45257108D01*
X20761086Y45257107D01*
X20872500Y45239461D01*
X20983913Y45257107D01*
X20983917Y45257108D01*
X21084419Y45308317D01*
X21145806Y45369704D01*
X21190000Y45388010D01*
X21234194Y45369704D01*
X21295580Y45308317D01*
X21396082Y45257108D01*
X21396086Y45257107D01*
X21507499Y45239461D01*
X21507500Y45239461D01*
X21618913Y45257107D01*
X21618917Y45257108D01*
X21719419Y45308317D01*
X21780806Y45369704D01*
X21825000Y45388010D01*
X21869194Y45369704D01*
X21930580Y45308317D01*
X22031082Y45257108D01*
X22031086Y45257107D01*
X22142500Y45239461D01*
X22253913Y45257107D01*
X22253917Y45257108D01*
X22354419Y45308317D01*
X22415806Y45369704D01*
X22460000Y45388010D01*
X22504194Y45369704D01*
X22565580Y45308317D01*
X22666082Y45257108D01*
X22666086Y45257107D01*
X22777500Y45239461D01*
X22888913Y45257107D01*
X22888917Y45257108D01*
X22989419Y45308317D01*
X23050806Y45369704D01*
X23095000Y45388010D01*
X23139194Y45369704D01*
X23200580Y45308317D01*
X23301082Y45257108D01*
X23301086Y45257107D01*
X23412500Y45239461D01*
X23523913Y45257107D01*
X23523917Y45257108D01*
X23624419Y45308317D01*
X23685806Y45369704D01*
X23730000Y45388010D01*
X23774194Y45369704D01*
X23835580Y45308317D01*
X23936082Y45257108D01*
X23936086Y45257107D01*
X24047500Y45239461D01*
X24158913Y45257107D01*
X24158917Y45257108D01*
X24259419Y45308317D01*
X24320806Y45369704D01*
X24365000Y45388010D01*
X24409194Y45369704D01*
X24470580Y45308317D01*
X24571082Y45257108D01*
X24571086Y45257107D01*
X24682499Y45239461D01*
X24682500Y45239461D01*
X24793913Y45257107D01*
X24793917Y45257108D01*
X24894419Y45308317D01*
X24955806Y45369704D01*
X25000000Y45388010D01*
X25044194Y45369704D01*
X25105580Y45308317D01*
X25206082Y45257108D01*
X25206086Y45257107D01*
X25317500Y45239461D01*
X25428913Y45257107D01*
X25428917Y45257108D01*
X25529419Y45308317D01*
X25560806Y45339704D01*
X25605000Y45358010D01*
X25649194Y45339704D01*
X25667500Y45295510D01*
X25667500Y44704489D01*
X25649194Y44660295D01*
X25605000Y44641989D01*
X25560807Y44660294D01*
X25529420Y44691682D01*
X25428913Y44742893D01*
X25317500Y44760539D01*
X25206087Y44742893D01*
X25206084Y44742891D01*
X25206082Y44742891D01*
X25105580Y44691682D01*
X25044194Y44630296D01*
X25000000Y44611990D01*
X24955806Y44630296D01*
X24925806Y44660296D01*
X24894420Y44691682D01*
X24793913Y44742893D01*
X24682500Y44760539D01*
X24571087Y44742893D01*
X24571084Y44742891D01*
X24571082Y44742891D01*
X24470580Y44691682D01*
X24409194Y44630296D01*
X24365000Y44611990D01*
X24320806Y44630296D01*
X24290806Y44660296D01*
X24259420Y44691682D01*
X24158913Y44742893D01*
X24047500Y44760539D01*
X23936087Y44742893D01*
X23936084Y44742891D01*
X23936082Y44742891D01*
X23835580Y44691682D01*
X23755818Y44611920D01*
X23710231Y44522451D01*
X23698737Y44506632D01*
X23628305Y44436200D01*
X23584111Y44417894D01*
X23539917Y44436200D01*
X23527262Y44454425D01*
X23512533Y44486679D01*
X23460309Y44520240D01*
X23433029Y44559531D01*
X23441521Y44606606D01*
X23449906Y44617011D01*
X23613315Y44780419D01*
X23613315Y44780420D01*
X23592377Y44793877D01*
X23474125Y44828600D01*
X23350875Y44828600D01*
X23232626Y44793879D01*
X23232622Y44793877D01*
X23211684Y44780419D01*
X23211683Y44780419D01*
X23374534Y44617570D01*
X23392840Y44573376D01*
X23374534Y44529182D01*
X23347949Y44513408D01*
X23340940Y44511350D01*
X23340939Y44511349D01*
X23286214Y44448194D01*
X23284367Y44449793D01*
X23258674Y44425879D01*
X23210870Y44427593D01*
X23192647Y44440247D01*
X23126261Y44506633D01*
X23114769Y44522449D01*
X23069182Y44611920D01*
X22989420Y44691682D01*
X22888913Y44742893D01*
X22777500Y44760539D01*
X22666087Y44742893D01*
X22666084Y44742891D01*
X22666082Y44742891D01*
X22565580Y44691682D01*
X22504194Y44630296D01*
X22460000Y44611990D01*
X22415806Y44630296D01*
X22385806Y44660296D01*
X22354420Y44691682D01*
X22253913Y44742893D01*
X22142500Y44760539D01*
X22031087Y44742893D01*
X22031084Y44742891D01*
X22031082Y44742891D01*
X21930580Y44691682D01*
X21850818Y44611920D01*
X21805231Y44522451D01*
X21793737Y44506632D01*
X21723305Y44436200D01*
X21679111Y44417894D01*
X21634917Y44436200D01*
X21622262Y44454425D01*
X21607533Y44486679D01*
X21555309Y44520240D01*
X21528029Y44559531D01*
X21536521Y44606606D01*
X21544906Y44617011D01*
X21708315Y44780419D01*
X21708315Y44780420D01*
X21687377Y44793877D01*
X21569125Y44828600D01*
X21445875Y44828600D01*
X21327626Y44793879D01*
X21327622Y44793877D01*
X21306684Y44780419D01*
X21306683Y44780419D01*
X21469534Y44617570D01*
X21487840Y44573376D01*
X21469534Y44529182D01*
X21442949Y44513408D01*
X21435940Y44511350D01*
X21435939Y44511349D01*
X21381214Y44448194D01*
X21379367Y44449793D01*
X21353674Y44425879D01*
X21305870Y44427593D01*
X21287647Y44440247D01*
X21221261Y44506633D01*
X21209769Y44522449D01*
X21164182Y44611920D01*
X21084420Y44691682D01*
X20983913Y44742893D01*
X20872500Y44760539D01*
X20761087Y44742893D01*
X20761084Y44742891D01*
X20761082Y44742891D01*
X20660580Y44691682D01*
X20599194Y44630296D01*
X20555000Y44611990D01*
X20510806Y44630296D01*
X20480806Y44660296D01*
X20449420Y44691682D01*
X20348913Y44742893D01*
X20237500Y44760539D01*
X20126087Y44742893D01*
X20126084Y44742891D01*
X20126082Y44742891D01*
X20025580Y44691682D01*
X19964194Y44630296D01*
X19920000Y44611990D01*
X19875806Y44630296D01*
X19845806Y44660296D01*
X19814420Y44691682D01*
X19713913Y44742893D01*
X19602500Y44760539D01*
X19491087Y44742893D01*
X19491084Y44742891D01*
X19491082Y44742891D01*
X19390580Y44691682D01*
X19310818Y44611920D01*
X19265231Y44522451D01*
X19253737Y44506632D01*
X19183305Y44436200D01*
X19139111Y44417894D01*
X19094917Y44436200D01*
X19082262Y44454425D01*
X19067533Y44486679D01*
X19015309Y44520240D01*
X18988029Y44559531D01*
X18996521Y44606606D01*
X19004906Y44617011D01*
X19168315Y44780419D01*
X19168315Y44780420D01*
X19147377Y44793877D01*
X19029125Y44828600D01*
X18905875Y44828600D01*
X18787626Y44793879D01*
X18787622Y44793877D01*
X18766684Y44780419D01*
X18766683Y44780419D01*
X18929534Y44617570D01*
X18947840Y44573376D01*
X18929534Y44529182D01*
X18902949Y44513408D01*
X18895940Y44511350D01*
X18895939Y44511349D01*
X18841214Y44448194D01*
X18839367Y44449793D01*
X18813679Y44425879D01*
X18765874Y44427590D01*
X18747647Y44440246D01*
X18587732Y44600162D01*
X18587731Y44600161D01*
X18552033Y44521993D01*
X18552032Y44521990D01*
X18534493Y44400000D01*
X18188822Y44400000D01*
X18188720Y44400078D01*
X18049452Y44457764D01*
X18049445Y44457764D01*
X18049445Y44457765D01*
X18033540Y44459858D01*
X17937523Y44472500D01*
X17862477Y44472500D01*
X17793161Y44463374D01*
X17750554Y44457765D01*
X17750552Y44457764D01*
X17750548Y44457764D01*
X17611280Y44400078D01*
X17587857Y44382105D01*
X17491687Y44308312D01*
X17403507Y44193392D01*
X17399922Y44188720D01*
X17345408Y44057108D01*
X17342236Y44049451D01*
X17342234Y44049445D01*
X17322560Y43900002D01*
X17322560Y43899997D01*
X6317694Y43899997D01*
X6449031Y44046963D01*
X6652303Y44333448D01*
X6778204Y44561249D01*
X6822214Y44640878D01*
X6822221Y44640893D01*
X6822676Y44641990D01*
X6885588Y44793874D01*
X6956643Y44965414D01*
X6956647Y44965426D01*
X7053889Y45302962D01*
X7053891Y45302969D01*
X7112732Y45649279D01*
X7132428Y46000000D01*
X7126812Y46099997D01*
X17322560Y46099997D01*
X17342234Y45950554D01*
X17342236Y45950548D01*
X17399922Y45811279D01*
X17491687Y45691687D01*
X17611279Y45599922D01*
X17750548Y45542236D01*
X17750554Y45542234D01*
X17862472Y45527500D01*
X17862477Y45527500D01*
X17937527Y45527500D01*
X18049445Y45542234D01*
X18049450Y45542235D01*
X18049452Y45542236D01*
X18188720Y45599922D01*
X18224782Y45627593D01*
X18308312Y45691687D01*
X18378725Y45783452D01*
X18400078Y45811280D01*
X18457764Y45950548D01*
X18459079Y45960538D01*
X18477440Y46099997D01*
X31522560Y46099997D01*
X31542234Y45950554D01*
X31542236Y45950548D01*
X31599922Y45811279D01*
X31691687Y45691687D01*
X31811279Y45599922D01*
X31950548Y45542236D01*
X31950554Y45542234D01*
X32062472Y45527500D01*
X32062477Y45527500D01*
X32137527Y45527500D01*
X32249445Y45542234D01*
X32249450Y45542235D01*
X32249452Y45542236D01*
X32388720Y45599922D01*
X32424782Y45627593D01*
X32508312Y45691687D01*
X32578725Y45783453D01*
X32600078Y45811280D01*
X32657764Y45950548D01*
X32659079Y45960538D01*
X32664275Y46000000D01*
X42867572Y46000000D01*
X42887268Y45649279D01*
X42887268Y45649274D01*
X42887269Y45649271D01*
X42946110Y45302962D01*
X43043352Y44965426D01*
X43043356Y44965414D01*
X43177778Y44640893D01*
X43177785Y44640878D01*
X43347693Y44333455D01*
X43347698Y44333446D01*
X43550966Y44046966D01*
X43550967Y44046965D01*
X43785039Y43785039D01*
X44046965Y43550967D01*
X44046966Y43550966D01*
X44333446Y43347698D01*
X44333455Y43347693D01*
X44640878Y43177785D01*
X44640893Y43177778D01*
X44965414Y43043356D01*
X44965426Y43043352D01*
X45302962Y42946110D01*
X45649271Y42887269D01*
X45649274Y42887268D01*
X45649279Y42887268D01*
X46000000Y42867572D01*
X46350721Y42887268D01*
X46350726Y42887268D01*
X46350728Y42887269D01*
X46697037Y42946110D01*
X47034573Y43043352D01*
X47034585Y43043356D01*
X47359106Y43177778D01*
X47359121Y43177785D01*
X47656667Y43342234D01*
X47666552Y43347697D01*
X47953037Y43550969D01*
X48214961Y43785039D01*
X48449031Y44046963D01*
X48652303Y44333448D01*
X48778204Y44561249D01*
X48822214Y44640878D01*
X48822221Y44640893D01*
X48822676Y44641990D01*
X48885588Y44793874D01*
X48956643Y44965414D01*
X48956647Y44965426D01*
X49053889Y45302962D01*
X49053891Y45302969D01*
X49112732Y45649279D01*
X49132428Y46000000D01*
X49112732Y46350721D01*
X49053891Y46697031D01*
X48956647Y47034575D01*
X48822220Y47359110D01*
X48652303Y47666552D01*
X48449031Y47953037D01*
X48214961Y48214961D01*
X47953037Y48449031D01*
X47666552Y48652303D01*
X47359110Y48822220D01*
X47034575Y48956647D01*
X46697031Y49053891D01*
X46350721Y49112732D01*
X46000000Y49132428D01*
X45649279Y49112732D01*
X45302969Y49053891D01*
X44965425Y48956647D01*
X44965420Y48956645D01*
X44965414Y48956643D01*
X44777013Y48878604D01*
X44640890Y48822220D01*
X44640885Y48822217D01*
X44640878Y48822214D01*
X44595348Y48797050D01*
X44333448Y48652303D01*
X44046963Y48449031D01*
X43785039Y48214961D01*
X43550969Y47953037D01*
X43550967Y47953034D01*
X43550966Y47953033D01*
X43347698Y47666553D01*
X43347693Y47666544D01*
X43177785Y47359121D01*
X43177778Y47359106D01*
X43043356Y47034585D01*
X43043352Y47034573D01*
X42946110Y46697037D01*
X42946109Y46697031D01*
X42887268Y46350721D01*
X42867572Y46000000D01*
X32664275Y46000000D01*
X32677440Y46099997D01*
X32677440Y46100002D01*
X32657765Y46249445D01*
X32657764Y46249445D01*
X32657764Y46249452D01*
X32600078Y46388720D01*
X32508312Y46508312D01*
X32388720Y46600078D01*
X32249452Y46657764D01*
X32249445Y46657764D01*
X32249445Y46657765D01*
X32233540Y46659858D01*
X32137523Y46672500D01*
X32062477Y46672500D01*
X31993161Y46663374D01*
X31950554Y46657765D01*
X31950552Y46657764D01*
X31950548Y46657764D01*
X31811280Y46600078D01*
X31811279Y46600077D01*
X31691687Y46508312D01*
X31599922Y46388720D01*
X31584183Y46350721D01*
X31542236Y46249451D01*
X31542234Y46249445D01*
X31522560Y46100002D01*
X31522560Y46099997D01*
X18477440Y46099997D01*
X18477440Y46100002D01*
X18457765Y46249445D01*
X18457764Y46249445D01*
X18457764Y46249452D01*
X18400078Y46388720D01*
X18308312Y46508312D01*
X18188720Y46600078D01*
X18049452Y46657764D01*
X18049445Y46657764D01*
X18049445Y46657765D01*
X18033540Y46659858D01*
X17937523Y46672500D01*
X17862477Y46672500D01*
X17793161Y46663374D01*
X17750554Y46657765D01*
X17750552Y46657764D01*
X17750548Y46657764D01*
X17611280Y46600078D01*
X17611279Y46600077D01*
X17491687Y46508312D01*
X17399921Y46388720D01*
X17399922Y46388720D01*
X17384183Y46350721D01*
X17342236Y46249451D01*
X17342234Y46249445D01*
X17322560Y46100002D01*
X17322560Y46099997D01*
X7126812Y46099997D01*
X7112732Y46350721D01*
X7053891Y46697031D01*
X6956647Y47034575D01*
X6822220Y47359110D01*
X6652303Y47666552D01*
X6449031Y47953037D01*
X6214961Y48214961D01*
X5974673Y48429696D01*
X22413745Y48429696D01*
X22432648Y48310344D01*
X22432650Y48310339D01*
X22487512Y48202665D01*
X22572965Y48117212D01*
X22680639Y48062350D01*
X22680644Y48062348D01*
X22799996Y48043445D01*
X22800000Y48043445D01*
X22800004Y48043445D01*
X22919355Y48062348D01*
X22919360Y48062350D01*
X23027034Y48117212D01*
X23112487Y48202665D01*
X23167349Y48310339D01*
X23167351Y48310344D01*
X23186255Y48429696D01*
X23186255Y48429703D01*
X23167351Y48549055D01*
X23167350Y48549056D01*
X23167350Y48549059D01*
X23112487Y48656735D01*
X23027035Y48742187D01*
X22919359Y48797050D01*
X22919356Y48797050D01*
X22919355Y48797051D01*
X22800004Y48815955D01*
X22799996Y48815955D01*
X22680644Y48797051D01*
X22680639Y48797049D01*
X22572965Y48742187D01*
X22487512Y48656734D01*
X22432650Y48549060D01*
X22432648Y48549055D01*
X22413745Y48429703D01*
X22413745Y48429696D01*
X5974673Y48429696D01*
X5953037Y48449031D01*
X5666552Y48652303D01*
X5359110Y48822220D01*
X5034575Y48956647D01*
X4697031Y49053891D01*
X4350721Y49112732D01*
X4000000Y49132428D01*
X3649279Y49112732D01*
X3302969Y49053891D01*
X2965425Y48956647D01*
X2965420Y48956645D01*
X2965414Y48956643D01*
X2777013Y48878604D01*
X2640890Y48822220D01*
X2640885Y48822217D01*
X2640878Y48822214D01*
X2595348Y48797050D01*
X2333448Y48652303D01*
X2046963Y48449031D01*
X1785039Y48214961D01*
X1550969Y47953037D01*
X1550967Y47953034D01*
X1550966Y47953033D01*
X1347698Y47666553D01*
X1347693Y47666544D01*
X1177785Y47359121D01*
X1177778Y47359106D01*
X1043356Y47034585D01*
X1043352Y47034573D01*
X946110Y46697037D01*
X946109Y46697031D01*
X887268Y46350721D01*
X867572Y46000000D01*
X381500Y46000000D01*
X381500Y47998880D01*
X381580Y48001110D01*
X397655Y48225878D01*
X398924Y48234704D01*
X445547Y48449031D01*
X446110Y48451621D01*
X448623Y48460174D01*
X526197Y48668159D01*
X529898Y48676264D01*
X636292Y48871110D01*
X641103Y48878597D01*
X774142Y49056316D01*
X779982Y49063055D01*
X936944Y49220017D01*
X943683Y49225857D01*
X1121394Y49358890D01*
X1121399Y49358893D01*
X1128893Y49363709D01*
X1323729Y49470098D01*
X1331840Y49473802D01*
X1539825Y49551376D01*
X1548381Y49553889D01*
X1765295Y49601075D01*
X1774121Y49602344D01*
X1998890Y49618420D01*
X2001120Y49618500D01*
X2054851Y49618500D01*
X47945149Y49618500D01*
X47998880Y49618500D01*
X48001110Y49618420D01*
G37*
%TD.AperFunction*%
%TD*%
M02*
